<svg preserveAspectRatio="none" width="100%" height="100%" overflow="visible" style="display: block;" viewBox="0 0 35.9957 24.7475" fill="none" xmlns="http://www.w3.org/2000/svg">
<path id="Vector" d="M35.7598 8.42377L32.171 1.24346C32.0388 0.979176 31.8559 0.743525 31.6326 0.549963C31.4093 0.356401 31.15 0.208719 30.8697 0.115351C30.5893 0.021982 30.2933 -0.0152441 29.9985 0.00579838C29.7038 0.0268408 29.4161 0.10574 29.1518 0.237989L25.6545 1.98596L18.2871 0.0368954C18.0981 -0.0122985 17.8996 -0.0122985 17.7106 0.0368954L10.3432 1.98596L6.84587 0.237989C6.58161 0.10574 6.29389 0.0268408 5.99913 0.00579838C5.70438 -0.0152441 5.40836 0.021982 5.128 0.115351C4.84763 0.208719 4.5884 0.356401 4.36512 0.549963C4.14183 0.743525 3.95886 0.979176 3.82665 1.24346L0.237902 8.42236C0.105653 8.68662 0.0267543 8.97435 0.00571186 9.2691C-0.0153306 9.56386 0.0218954 9.85987 0.115264 10.1402C0.208632 10.4206 0.356315 10.6798 0.549877 10.9031C0.743439 11.1264 0.97909 11.3094 1.24337 11.4416L5.04025 13.3414L12.8435 18.9144C12.9585 18.9962 13.0878 19.0558 13.2246 19.0902L22.2246 21.3402C22.4131 21.3874 22.6106 21.3851 22.7979 21.3333C22.9852 21.2816 23.1559 21.1822 23.2934 21.0449L31.0376 13.2992L34.7529 11.4416C35.2863 11.1746 35.6918 10.7067 35.8803 10.1408C36.0689 9.57493 36.025 8.95733 35.7584 8.42377H35.7598ZM28.0409 13.1164L23.202 9.2408C22.9852 9.0672 22.7119 8.97991 22.4346 8.99575C22.1573 9.01159 21.8957 9.12942 21.7001 9.32658C19.1956 11.8494 16.4042 11.5302 14.6238 10.4052L20.7045 4.49893H25.1777L29.0042 12.1503L28.0409 13.1164ZM5.839 2.24893L8.71759 3.68611L5.12181 10.865L2.24884 9.42924L5.839 2.24893ZM22.1515 19.0016L13.9798 16.9597L7.06103 12.0181L10.9985 4.14315L17.9988 2.2883L19.377 2.65252L13.0488 8.79502L13.0376 8.80768C12.7994 9.04589 12.6177 9.33455 12.506 9.65235C12.3942 9.97016 12.3553 10.309 12.392 10.6439C12.4287 10.9788 12.5401 11.3011 12.7181 11.5872C12.896 11.8732 13.1359 12.1156 13.4201 12.2966C16.3113 14.143 19.8002 13.8435 22.5481 11.5935L26.4363 14.7167L22.1515 19.0016ZM30.8702 10.8636L27.2815 3.69174L30.1587 2.24893L33.7488 9.42924L30.8702 10.8636ZM18.5304 23.8953C18.4696 24.1385 18.3294 24.3544 18.132 24.5088C17.9345 24.6631 17.6912 24.7472 17.4406 24.7475C17.3481 24.7474 17.256 24.7361 17.1663 24.7138L11.3065 23.2485C11.1694 23.2146 11.0401 23.155 10.9254 23.0727L7.21993 20.4261C6.99209 20.2472 6.84204 19.9873 6.80102 19.7006C6.75999 19.4138 6.83116 19.1223 6.9997 18.8867C7.16825 18.6511 7.42117 18.4896 7.70581 18.4358C7.99045 18.382 8.28486 18.4401 8.52775 18.598L12.0588 21.1208L17.7176 22.5327C18.007 22.6051 18.2558 22.7894 18.4093 23.0452C18.5627 23.301 18.6083 23.6073 18.536 23.8967L18.5304 23.8953Z" fill="var(--fill-0, #A90831)"/>
</svg>
