<svg preserveAspectRatio="none" width="100%" height="100%" overflow="visible" style="display: block;" viewBox="0 0 26.0117 26.48" fill="none" xmlns="http://www.w3.org/2000/svg">
<path id="Vector" d="M25.5113 5.38375L24.9288 5.0475C24.9971 4.6857 24.9971 4.3143 24.9288 3.9525L25.5113 3.61625C25.741 3.48364 25.9087 3.2652 25.9773 3.00898C26.046 2.75276 26.0101 2.47974 25.8775 2.25C25.7449 2.02026 25.5265 1.8526 25.2702 1.78392C25.014 1.71523 24.741 1.75114 24.5113 1.88375L23.9275 2.22125C23.6481 1.98157 23.3269 1.79554 22.98 1.6725V1C22.98 0.734784 22.8747 0.48043 22.6871 0.292893C22.4996 0.105357 22.2452 0 21.98 0C21.7148 0 21.4604 0.105357 21.2729 0.292893C21.0854 0.48043 20.98 0.734784 20.98 1V1.6725C20.6331 1.79554 20.3119 1.98157 20.0325 2.22125L19.4488 1.88375C19.335 1.81809 19.2094 1.77548 19.0792 1.75835C18.949 1.74122 18.8167 1.74991 18.6898 1.78392C18.5629 1.81792 18.444 1.87659 18.3398 1.95656C18.2356 2.03653 18.1482 2.13624 18.0825 2.25C18.0169 2.36376 17.9742 2.48933 17.9571 2.61956C17.94 2.74979 17.9487 2.88211 17.9827 3.00898C18.0167 3.13585 18.0754 3.25477 18.1553 3.35897C18.2353 3.46316 18.335 3.55059 18.4488 3.61625L19.0313 3.9525C18.9629 4.3143 18.9629 4.6857 19.0313 5.0475L18.4488 5.38375C18.258 5.49377 18.1089 5.66367 18.0246 5.86709C17.9403 6.07052 17.9255 6.29609 17.9824 6.50879C18.0394 6.72149 18.165 6.90944 18.3398 7.04346C18.5145 7.17748 18.7286 7.25009 18.9488 7.25C19.1243 7.25054 19.2969 7.20438 19.4488 7.11625L20.0325 6.77875C20.3119 7.01843 20.6331 7.20446 20.98 7.3275V8C20.98 8.26522 21.0854 8.51957 21.2729 8.70711C21.4604 8.89464 21.7148 9 21.98 9C22.2452 9 22.4996 8.89464 22.6871 8.70711C22.8747 8.51957 22.98 8.26522 22.98 8V7.3275C23.3269 7.20446 23.6481 7.01843 23.9275 6.77875L24.5113 7.11625C24.6631 7.20438 24.8357 7.25054 25.0113 7.25C25.2315 7.25009 25.4455 7.17748 25.6203 7.04346C25.795 6.90944 25.9206 6.72149 25.9776 6.50879C26.0346 6.29609 26.0198 6.07052 25.9354 5.86709C25.8511 5.66367 25.702 5.49377 25.5113 5.38375ZM20.98 4.5C20.98 4.30222 21.0387 4.10888 21.1485 3.94443C21.2584 3.77998 21.4146 3.65181 21.5973 3.57612C21.7801 3.50043 21.9811 3.48063 22.1751 3.51921C22.3691 3.5578 22.5473 3.65304 22.6871 3.79289C22.827 3.93275 22.9222 4.11093 22.9608 4.30491C22.9994 4.49889 22.9796 4.69996 22.9039 4.88268C22.8282 5.06541 22.7 5.22159 22.5356 5.33147C22.3711 5.44135 22.1778 5.5 21.98 5.5C21.7148 5.5 21.4604 5.39464 21.2729 5.20711C21.0854 5.01957 20.98 4.76522 20.98 4.5ZM24.6488 10.5138C24.3872 10.5575 24.1537 10.7034 23.9997 10.9193C23.8457 11.1352 23.7838 11.4034 23.8275 11.665C23.9291 12.2714 23.9801 12.8852 23.98 13.5C23.9824 16.1927 22.9927 18.792 21.2 20.8013C20.0847 19.1851 18.5165 17.9348 16.6925 17.2075C17.6723 16.4358 18.3872 15.378 18.7379 14.1811C19.0886 12.9843 19.0576 11.7079 18.6493 10.5294C18.2409 9.351 17.4755 8.32911 16.4594 7.60586C15.4434 6.88262 14.2272 6.49397 12.98 6.49397C11.7328 6.49397 10.5167 6.88262 9.50059 7.60586C8.48453 8.32911 7.7191 9.351 7.31075 10.5294C6.90239 11.7079 6.87141 12.9843 7.2221 14.1811C7.5728 15.378 8.28774 16.4358 9.26751 17.2075C7.44354 17.9348 5.8753 19.1851 4.76001 20.8013C3.35341 19.2162 2.4346 17.2586 2.11407 15.1638C1.79353 13.069 2.08492 10.9262 2.95318 8.99308C3.82145 7.05995 5.22964 5.41877 7.00841 4.26688C8.78719 3.115 10.8608 2.50144 12.98 2.5C13.5948 2.4999 14.2086 2.55091 14.815 2.6525C15.0754 2.69359 15.3415 2.63019 15.5554 2.47611C15.7693 2.32203 15.9137 2.08972 15.9572 1.82973C16.0007 1.56973 15.9397 1.30307 15.7876 1.08776C15.6356 0.872453 15.4046 0.725906 15.145 0.68C12.4293 0.223144 9.63869 0.641168 7.17606 1.87372C4.71342 3.10627 2.70622 5.08956 1.44424 7.53725C0.18227 9.98493 -0.269169 12.7703 0.155109 15.4913C0.579386 18.2123 1.85742 20.728 3.8047 22.6753C5.75197 24.6226 8.26771 25.9006 10.9887 26.3249C13.7097 26.7492 16.4951 26.2977 18.9428 25.0358C21.3905 23.7738 23.3737 21.7666 24.6063 19.304C25.8388 16.8413 26.2569 14.0507 25.8 11.335C25.7562 11.0734 25.6104 10.84 25.3945 10.686C25.1786 10.5319 24.9103 10.47 24.6488 10.5138ZM8.98001 12.5C8.98001 11.7089 9.21461 10.9355 9.65414 10.2777C10.0937 9.61992 10.7184 9.10723 11.4493 8.80448C12.1802 8.50173 12.9845 8.42252 13.7604 8.57686C14.5363 8.7312 15.249 9.11216 15.8084 9.67157C16.3679 10.231 16.7488 10.9437 16.9032 11.7196C17.0575 12.4956 16.9783 13.2998 16.6755 14.0307C16.3728 14.7616 15.8601 15.3864 15.2023 15.8259C14.5445 16.2654 13.7711 16.5 12.98 16.5C11.9191 16.5 10.9017 16.0786 10.1516 15.3284C9.40144 14.5783 8.98001 13.5609 8.98001 12.5ZM6.24001 22.1875C6.96343 21.0561 7.96002 20.125 9.13792 19.4801C10.3158 18.8351 11.6371 18.4971 12.98 18.4971C14.3229 18.4971 15.6442 18.8351 16.8221 19.4801C18 20.125 18.9966 21.0561 19.72 22.1875C17.7929 23.6862 15.4213 24.4999 12.98 24.4999C10.5387 24.4999 8.16709 23.6862 6.24001 22.1875Z" fill="var(--fill-0, #A90831)"/>
</svg>
