<svg preserveAspectRatio="none" width="100%" height="100%" overflow="visible" style="display: block;" viewBox="0 0 24.7783 24.7783" fill="none" xmlns="http://www.w3.org/2000/svg">
<g id="Arrow icon">
<path id="Vector" d="M2.53215 16.5813C2.82256 16.8716 3.2164 17.0347 3.62704 17.0347C4.03769 17.0347 4.43152 16.8716 4.72193 16.5813L12.3877 8.91551L20.0535 16.5813C20.3456 16.8634 20.7368 17.0195 21.1428 17.016C21.5489 17.0124 21.9373 16.8496 22.2244 16.5624C22.5116 16.2753 22.6744 15.8869 22.678 15.4808C22.6815 15.0748 22.5254 14.6836 22.2433 14.3915L13.4826 5.63083C13.1922 5.3405 12.7984 5.17741 12.3877 5.17741C11.9771 5.17741 11.5833 5.3405 11.2928 5.63083L2.53215 14.3915C2.24182 14.6819 2.07873 15.0758 2.07873 15.4864C2.07873 15.8971 2.24182 16.2909 2.53215 16.5813Z" fill="var(--fill-0, white)"/>
</g>
</svg>
