<svg preserveAspectRatio="none" width="100%" height="100%" overflow="visible" style="display: block;" viewBox="0 0 128.637 30.8217" fill="none" xmlns="http://www.w3.org/2000/svg">
<g id="Footer icon text">
<path id="Path 9342" d="M6.1066 10.8363H18.7196V0.276073H24.8197V30.3368H18.7196V16.4575H6.1066V30.3368H0V0.276073H6.1066V10.8363Z" fill="var(--fill-0, #AB3347)"/>
<path id="Path 9343" d="M91.2452 25.1545H101.256V30.3363H79.8011L91.4952 16.3456C92.5333 15.1059 93.5754 13.7088 94.3104 12.2658C94.7629 11.3606 95.1569 10.3177 95.1569 9.29444C95.1569 8.23841 94.892 7.2283 94.1202 6.47399C93.32 5.70658 92.2561 5.45733 91.1814 5.45733C90.1393 5.45733 89.214 5.74593 88.4599 6.47399C87.6801 7.22175 87.3377 8.16627 87.2521 9.22885L87.1991 9.89789H81.3173V9.16981C81.3173 6.54615 82.1638 4.23732 84.1366 2.4729C86.2045 0.636329 88.8472 8.30581e-05 91.5564 8.30581e-05C94.1066 8.30581e-05 96.6324 0.5773 98.5726 2.30891C100.45 3.97495 101.21 6.19194 101.21 8.65164C101.21 10.6325 100.66 12.5216 99.7588 14.2663C99.1569 15.4404 98.3321 16.5817 97.5373 17.6312C96.3634 19.1791 95.1039 20.6746 93.8376 22.1504L91.2452 25.1545Z" fill="var(--fill-0, #AB3347)"/>
<path id="Path 9344" d="M103.693 8.30581e-05H109.76V18.0903C109.76 19.9203 110.067 22.0061 111.353 23.4032C112.588 24.7479 114.405 25.1152 116.163 25.1152C117.913 25.1152 119.711 24.7413 120.944 23.4032C122.221 22.0061 122.535 19.9203 122.535 18.0903V8.30581e-05H128.637V18.5232C128.637 21.8422 127.942 25.3185 125.489 27.7323C123.029 30.1526 119.478 30.8217 116.148 30.8217C112.811 30.8217 109.283 30.1526 106.826 27.7389C104.375 25.3185 103.693 21.829 103.693 18.5232V8.30581e-05Z" fill="var(--fill-0, #AB3347)"/>
<path id="Path 9345" d="M44.6008 22.1438C44.6259 24.4133 43.7142 26.5841 42.0879 28.1583C41.2672 28.9453 40.3107 29.5751 39.2544 30.0016C37.1233 30.8674 34.749 30.8674 32.6165 30.0016C31.5737 29.5817 30.6226 28.952 29.8224 28.1583C29.0092 27.3844 28.3604 26.4464 27.9202 25.4102C26.5554 22.2224 27.317 18.5229 29.8224 16.1289C30.6226 15.3417 31.5737 14.7121 32.6165 14.2857C34.7544 13.4265 37.1355 13.4265 39.2747 14.2857C40.323 14.7121 41.2815 15.3417 42.0879 16.1289C43.7142 17.7097 44.6198 19.8807 44.6008 22.1438ZM35.9426 26.9056C37.1613 26.9056 38.1783 26.4598 38.9799 25.561C39.7795 24.6621 40.1783 23.521 40.1783 22.1438C40.1783 20.7859 39.772 19.6577 38.9656 18.7459C38.1525 17.8342 37.143 17.3818 35.9426 17.3818C34.7157 17.3818 33.6994 17.8342 32.8984 18.7459C32.0989 19.6448 31.6987 20.7859 31.6987 22.1502C31.6987 23.5341 32.0921 24.6755 32.8781 25.5675C33.6729 26.4598 34.6899 26.9056 35.9426 26.9056ZM65.964 30.2178H61.8309L60.8805 23.2063C60.8214 22.7141 60.7555 22.1633 60.6971 21.5533C60.6441 20.9497 60.5911 20.2873 60.5531 19.5725C60.4464 20.2612 60.244 21.1205 59.9417 22.1438C59.8764 22.3535 59.8241 22.5176 59.7976 22.6225L57.5939 30.2178H54.6489L52.4444 22.6225C52.4118 22.5176 52.3663 22.3535 52.3086 22.1438C51.9995 21.1205 51.7957 20.2676 51.6972 19.5855C51.6584 20.2022 51.6061 20.8055 51.5464 21.4092C51.4879 22.0125 51.4152 22.6096 51.3364 23.2063L50.386 30.2178H46.2794L48.7787 14.0039H53.1544L55.6 22.3666C55.6129 22.4254 55.6455 22.5176 55.6856 22.6553C55.9145 23.4029 56.0592 24.0395 56.1176 24.5706C56.1509 24.2492 56.2094 23.9277 56.2827 23.613C56.3676 23.2587 56.4797 22.8323 56.6163 22.3403L59.083 14.0039H63.4715L65.964 30.2178ZM68.3383 30.2178V14.0039H78.275V17.5655H72.6467V20.3794H77.953V23.8488H72.6467V26.5909H78.275V30.2178H68.3383Z" fill="var(--fill-0, #696B6C)"/>
</g>
</svg>
