<svg preserveAspectRatio="none" width="100%" height="100%" overflow="visible" style="display: block;" viewBox="0 0 31.1627 31.1562" fill="none" xmlns="http://www.w3.org/2000/svg">
<g id="Footer icon">
<path id="Path 9346" d="M5.74146 20.2874V9.66814H8.64072V13.8003H12.4974V9.66814H15.3966V16.6077C14.5176 16.6667 13.6977 16.9487 13.055 17.5784C12.8385 17.7949 12.6483 18.0376 12.504 18.3065V15.9649H8.64072V20.2874H5.74146V20.2874Z" fill="var(--fill-0, #AB3347)"/>
<path id="Path 9347" d="M15.9734 9.66814H18.8726V15.7615C18.8789 16.0567 18.8923 16.2928 18.9117 16.47C18.9185 16.5093 18.9249 16.555 18.9314 16.5945H18.9249C18.9579 16.8372 19.0235 17.0734 19.1087 17.2964C19.2267 17.5653 19.43 17.7883 19.6923 17.9195C19.9484 18.0441 20.2303 18.1163 20.5192 18.1229H20.8798C21.1617 18.1163 21.4438 18.0441 21.706 17.9195C21.9686 17.7883 22.1719 17.5653 22.2834 17.2964C22.3752 17.0734 22.4341 16.8372 22.467 16.5945V16.5945C22.4737 16.555 22.4737 16.5093 22.4801 16.47C22.4996 16.2928 22.5197 16.0567 22.5261 15.7615V9.66814H25.4252V15.9649C25.4252 16.5749 25.3661 17.2571 25.2087 17.8605C25.0842 18.3851 24.8417 18.8706 24.5003 19.2773C24.1396 19.7102 23.6409 20.0316 23.0115 20.248C22.4996 20.4186 21.9028 20.5234 21.2208 20.5563H20.1712C19.9024 20.5431 19.627 20.5169 19.3512 20.4776C19.3971 20.2677 19.4236 20.0513 19.4236 19.8347C19.4236 18.8968 19.1023 18.0835 18.3871 17.467C17.7118 16.8766 16.872 16.6405 15.9933 16.6012C15.9802 16.3846 15.9734 16.1682 15.9734 15.9649V9.66814Z" fill="var(--fill-0, #AB3347)"/>
<path id="Path 9348" d="M18.8626 25.8761H12.2116L16.1208 21.2454C16.3241 21.0161 16.5012 20.7539 16.6456 20.4846C16.7505 20.2879 16.8029 20.0651 16.8162 19.8421C16.8162 19.5399 16.7177 19.2909 16.5274 19.0944C16.3307 18.9039 16.0815 18.8059 15.7665 18.8059C15.3927 18.8059 15.104 18.9302 14.9073 19.1663C14.7106 19.4025 14.6123 19.7505 14.6055 20.2028V20.3079H12.5132V20.2486C12.5132 19.2648 12.8018 18.4844 13.379 17.9199C13.9563 17.3491 14.7435 17.0675 15.747 17.0675C16.7242 17.0675 17.4983 17.3168 18.0754 17.8214C18.6591 18.3266 18.9478 18.9954 18.9478 19.8286C18.9478 20.2417 18.8494 20.6488 18.6723 21.0226C18.4886 21.4098 18.187 21.8293 17.7672 22.2948L16.1995 24.0202H18.8626V25.8761Z" fill="var(--fill-0, #696B6C)"/>
<path id="Path 9349" d="M15.7486 0C24.2755 0.0918285 31.1627 7.03144 31.1627 15.578H30.0935C30.0935 7.56273 23.5934 1.06915 15.578 1.06915V0H15.7486ZM15.578 31.1561C6.97241 31.1561 0 24.1837 0 15.578H1.06915C1.06915 23.5934 7.56273 30.0869 15.578 30.0869V31.1561Z" fill="var(--fill-0, #696B6C)"/>
</g>
</svg>
