<svg preserveAspectRatio="none" width="100%" height="100%" overflow="visible" style="display: block;" viewBox="0 0 20.25 29.25" fill="none" xmlns="http://www.w3.org/2000/svg">
<path id="Vector" d="M20.25 7.26187V2.25C20.25 1.65326 20.0129 1.08097 19.591 0.65901C19.169 0.237053 18.5967 0 18 0H2.25C1.65326 0 1.08097 0.237053 0.65901 0.65901C0.237053 1.08097 0 1.65326 0 2.25V7.3125C0.000760064 7.66167 0.0824202 8.00591 0.238573 8.31821C0.394725 8.63052 0.621123 8.90239 0.9 9.1125L8.25047 14.625L0.9 20.1375C0.621123 20.3476 0.394725 20.6195 0.238573 20.9318C0.0824202 21.2441 0.000760064 21.5883 0 21.9375V27C0 27.5967 0.237053 28.169 0.65901 28.591C1.08097 29.0129 1.65326 29.25 2.25 29.25H18C18.5967 29.25 19.169 29.0129 19.591 28.591C20.0129 28.169 20.25 27.5967 20.25 27V21.9881C20.2491 21.6405 20.1681 21.2978 20.0132 20.9866C19.8583 20.6754 19.6338 20.4041 19.357 20.1938L11.9911 14.625L19.357 9.05625C19.634 8.84614 19.8587 8.57487 20.0136 8.26362C20.1685 7.95237 20.2494 7.60954 20.25 7.26187ZM17.1886 21.375H2.99953L10.125 16.0312L17.1886 21.375ZM2.25 27V23.625H18V27H2.25ZM18 7.26187L10.125 13.2188L2.25 7.3125V2.25H18V7.26187Z" fill="var(--fill-0, #A90831)"/>
</svg>
