<svg preserveAspectRatio="none" width="100%" height="100%" overflow="visible" style="display: block;" viewBox="0 0 42.0411 40.2513" fill="none" xmlns="http://www.w3.org/2000/svg">
<path id="Vector" d="M42.0411 21.0013C42.0411 21.4654 41.8567 21.9105 41.5286 22.2387C41.2004 22.5669 40.7552 22.7513 40.2911 22.7513H15.7911C15.327 22.7513 14.8819 22.5669 14.5537 22.2387C14.2255 21.9105 14.0411 21.4654 14.0411 21.0013C14.0411 20.5371 14.2255 20.092 14.5537 19.7638C14.8819 19.4356 15.327 19.2513 15.7911 19.2513H40.2911C40.7552 19.2513 41.2004 19.4356 41.5286 19.7638C41.8567 20.092 42.0411 20.5371 42.0411 21.0013ZM15.7911 8.75125H40.2911C40.7552 8.75125 41.2004 8.56688 41.5286 8.23869C41.8567 7.9105 42.0411 7.46538 42.0411 7.00125C42.0411 6.53712 41.8567 6.09201 41.5286 5.76382C41.2004 5.43563 40.7552 5.25125 40.2911 5.25125H15.7911C15.327 5.25125 14.8819 5.43563 14.5537 5.76382C14.2255 6.09201 14.0411 6.53712 14.0411 7.00125C14.0411 7.46538 14.2255 7.9105 14.5537 8.23869C14.8819 8.56688 15.327 8.75125 15.7911 8.75125ZM40.2911 33.2513H15.7911C15.327 33.2513 14.8819 33.4356 14.5537 33.7638C14.2255 34.092 14.0411 34.5371 14.0411 35.0013C14.0411 35.4654 14.2255 35.9105 14.5537 36.2387C14.8819 36.5669 15.327 36.7513 15.7911 36.7513H40.2911C40.7552 36.7513 41.2004 36.5669 41.5286 36.2387C41.8567 35.9105 42.0411 35.4654 42.0411 35.0013C42.0411 34.5371 41.8567 34.092 41.5286 33.7638C41.2004 33.4356 40.7552 33.2513 40.2911 33.2513ZM2.57424 5.0675L3.54111 4.58188V15.7513C3.54111 16.2154 3.72549 16.6605 4.05368 16.9887C4.38186 17.3169 4.82698 17.5013 5.29111 17.5013C5.75524 17.5013 6.20036 17.3169 6.52855 16.9887C6.85674 16.6605 7.04111 16.2154 7.04111 15.7513V1.75125C7.04133 1.4528 6.96521 1.15925 6.81999 0.898511C6.67477 0.63777 6.46529 0.418499 6.21144 0.261543C5.95759 0.104587 5.66782 0.0151608 5.36967 0.00176413C5.07151 -0.0116325 4.77489 0.0514458 4.50799 0.185003L1.00799 1.935C0.592592 2.1427 0.276719 2.50691 0.129854 2.9475C0.0571343 3.16566 0.0280958 3.39601 0.0443974 3.62539C0.0606991 3.85477 0.122022 4.0787 0.224863 4.28438C0.327704 4.49006 0.470051 4.67347 0.643775 4.82414C0.8175 4.97481 1.0192 5.08979 1.23736 5.16251C1.67795 5.30938 2.15884 5.2752 2.57424 5.0675ZM10.4908 27.2838C10.394 26.5907 10.1581 25.9243 9.79723 25.3247C9.43635 24.7251 8.95795 24.2047 8.3908 23.7947C7.25485 22.9698 5.84392 22.6162 4.45321 22.8078C3.0625 22.9995 1.79978 23.7215 0.929238 24.8228C0.596514 25.25 0.332987 25.7269 0.148301 26.2359C0.0518601 26.455 0.00139528 26.6916 2.85264e-05 26.931C-0.00133823 27.1704 0.0464216 27.4075 0.140354 27.6277C0.234287 27.8478 0.372395 28.0464 0.546136 28.2111C0.719877 28.3758 0.925557 28.503 1.15045 28.5851C1.37535 28.6671 1.61468 28.7021 1.85365 28.6879C2.09261 28.6737 2.32612 28.6107 2.53975 28.5026C2.75337 28.3946 2.94255 28.2439 3.0956 28.0598C3.24865 27.8758 3.36231 27.6622 3.42955 27.4325C3.4908 27.2647 3.57789 27.1075 3.68767 26.9666C3.99638 26.5819 4.44151 26.3311 4.93044 26.2663C5.41937 26.2015 5.91445 26.3278 6.31267 26.6188C6.50423 26.7542 6.66624 26.9273 6.78883 27.1273C6.91142 27.3274 6.99205 27.5503 7.0258 27.7825C7.05667 28.0055 7.04216 28.2325 6.98315 28.4497C6.92413 28.667 6.82182 28.8701 6.68236 29.0469C6.67599 29.0545 6.67014 29.0625 6.66486 29.0709L0.388926 37.4534C0.194445 37.7136 0.0762054 38.0227 0.0474399 38.3463C0.0186744 38.6698 0.0805184 38.995 0.22605 39.2853C0.371583 39.5757 0.595059 39.8199 0.871466 39.9905C1.14787 40.1611 1.4663 40.2514 1.79111 40.2513H8.79111C9.25524 40.2513 9.70036 40.0669 10.0285 39.7387C10.3567 39.4105 10.5411 38.9654 10.5411 38.5013C10.5411 38.0371 10.3567 37.592 10.0285 37.2638C9.70036 36.9356 9.25524 36.7513 8.79111 36.7513H5.29111L9.46486 31.1666C9.88802 30.6215 10.197 29.9968 10.3732 29.3296C10.5495 28.6625 10.5895 27.9667 10.4908 27.2838Z" fill="#A90831"/>
</svg>
