<svg preserveAspectRatio="none" width="100%" height="100%" overflow="visible" style="display: block;" viewBox="0 0 24.75 31.4997" fill="none" xmlns="http://www.w3.org/2000/svg">
<path id="Vector" d="M12.375 6.75C11.2625 6.75 10.1749 7.0799 9.24992 7.69798C8.32489 8.31607 7.60392 9.19457 7.17818 10.2224C6.75243 11.2502 6.64104 12.3812 6.85808 13.4724C7.07512 14.5635 7.61085 15.5658 8.39752 16.3525C9.18419 17.1391 10.1865 17.6749 11.2776 17.8919C12.3688 18.109 13.4998 17.9976 14.5276 17.5718C15.5554 17.1461 16.4339 16.4251 17.052 15.5001C17.6701 14.5751 18 13.4875 18 12.375C18 10.8832 17.4074 9.45242 16.3525 8.39752C15.2976 7.34263 13.8668 6.75 12.375 6.75ZM12.375 15.75C11.7075 15.75 11.055 15.5521 10.5 15.1812C9.94493 14.8104 9.51235 14.2833 9.25691 13.6666C9.00146 13.0499 8.93462 12.3713 9.06485 11.7166C9.19507 11.0619 9.51651 10.4605 9.98851 9.98851C10.4605 9.51651 11.0619 9.19507 11.7166 9.06485C12.3713 8.93462 13.0499 9.00146 13.6666 9.25691C14.2833 9.51235 14.8104 9.94493 15.1812 10.5C15.5521 11.055 15.75 11.7075 15.75 12.375C15.75 13.2701 15.3944 14.1286 14.7615 14.7615C14.1286 15.3944 13.2701 15.75 12.375 15.75ZM12.375 0C9.09409 0.00372197 5.94862 1.30871 3.62866 3.62866C1.30871 5.94862 0.00372197 9.09409 0 12.375C0 16.7906 2.04047 21.4706 5.90625 25.9102C7.64328 27.9163 9.59829 29.7227 11.7352 31.2961C11.9243 31.4286 12.1497 31.4997 12.3806 31.4997C12.6116 31.4997 12.8369 31.4286 13.0261 31.2961C15.159 29.7221 17.1102 27.9156 18.8438 25.9102C22.7039 21.4706 24.75 16.7906 24.75 12.375C24.7463 9.09409 23.4413 5.94862 21.1213 3.62866C18.8014 1.30871 15.6559 0.00372197 12.375 0ZM12.375 28.9688C10.0505 27.1406 2.25 20.4258 2.25 12.375C2.25 9.68968 3.31674 7.11435 5.21554 5.21554C7.11435 3.31674 9.68968 2.25 12.375 2.25C15.0603 2.25 17.6356 3.31674 19.5345 5.21554C21.4333 7.11435 22.5 9.68968 22.5 12.375C22.5 20.423 14.6995 27.1406 12.375 28.9688Z" fill="var(--fill-0, #A90831)"/>
</svg>
