<svg preserveAspectRatio="xMidYMid meet" width="100%" height="100%" overflow="visible" style="display: block;" viewBox="0 0 21.0005 21.0007" fill="none" xmlns="http://www.w3.org/2000/svg">
<path id="Vector" d="M21.0005 1.75V19.25C21.0005 19.7141 20.8161 20.1592 20.4879 20.4874C20.1597 20.8156 19.7146 21 19.2505 21H11.3755C11.1434 21 10.9209 20.9078 10.7568 20.7437C10.5927 20.5796 10.5005 20.3571 10.5005 20.125C10.5005 19.8929 10.5927 19.6704 10.7568 19.5063C10.9209 19.3422 11.1434 19.25 11.3755 19.25H19.2505V1.75H1.75049V12.25C1.75049 12.4821 1.6583 12.7046 1.4942 12.8687C1.33011 13.0328 1.10755 13.125 0.875487 13.125C0.643422 13.125 0.420863 13.0328 0.256768 12.8687C0.0926739 12.7046 0.000486493 12.4821 0.000486493 12.25V1.75C0.000486493 1.28587 0.184861 0.840752 0.51305 0.512563C0.841238 0.184374 1.28636 0 1.75049 0H19.2505C19.7146 0 20.1597 0.184374 20.4879 0.512563C20.8161 0.840752 21.0005 1.28587 21.0005 1.75ZM10.2446 13.3809C10.1633 13.2996 10.0668 13.235 9.96056 13.191C9.85434 13.147 9.74048 13.1243 9.62549 13.1243C9.5105 13.1243 9.39664 13.147 9.29041 13.191C9.18419 13.235 9.08769 13.2996 9.00642 13.3809L3.50049 18.888L1.49455 16.8809C1.41325 16.7996 1.31674 16.7352 1.21052 16.6912C1.1043 16.6472 0.990457 16.6245 0.875487 16.6245C0.760516 16.6245 0.646671 16.6472 0.540452 16.6912C0.434233 16.7352 0.33772 16.7996 0.256424 16.8809C0.175128 16.9622 0.11064 17.0587 0.0666425 17.165C0.0226451 17.2712 0 17.385 0 17.5C0 17.615 0.0226451 17.7288 0.0666425 17.835C0.11064 17.9413 0.175128 18.0378 0.256424 18.1191L2.88142 20.7441C2.96269 20.8254 3.05919 20.89 3.16541 20.934C3.27164 20.978 3.3855 21.0007 3.50049 21.0007C3.61548 21.0007 3.72934 20.978 3.83556 20.934C3.94178 20.89 4.03829 20.8254 4.11955 20.7441L10.2446 14.6191C10.3259 14.5378 10.3904 14.4413 10.4345 14.3351C10.4785 14.2288 10.5012 14.115 10.5012 14C10.5012 13.885 10.4785 13.7711 10.4345 13.6649C10.3904 13.5587 10.3259 13.4622 10.2446 13.3809Z" fill="var(--fill-0, #A90831)"/>
</svg>
