<svg preserveAspectRatio="none" width="100%" height="100%" overflow="visible" style="display: block;" viewBox="0 0 21 22.75" fill="none" xmlns="http://www.w3.org/2000/svg">
<path id="Vector" d="M19.25 1.75H16.625V0.875C16.625 0.642936 16.5328 0.420376 16.3687 0.256282C16.2046 0.0921872 15.9821 0 15.75 0C15.5179 0 15.2954 0.0921872 15.1313 0.256282C14.9672 0.420376 14.875 0.642936 14.875 0.875V1.75H6.125V0.875C6.125 0.642936 6.03281 0.420376 5.86872 0.256282C5.70462 0.0921872 5.48206 0 5.25 0C5.01794 0 4.79538 0.0921872 4.63128 0.256282C4.46719 0.420376 4.375 0.642936 4.375 0.875V1.75H1.75C1.28587 1.75 0.840752 1.93437 0.512563 2.26256C0.184374 2.59075 0 3.03587 0 3.5V21C0 21.4641 0.184374 21.9092 0.512563 22.2374C0.840752 22.5656 1.28587 22.75 1.75 22.75H19.25C19.7141 22.75 20.1592 22.5656 20.4874 22.2374C20.8156 21.9092 21 21.4641 21 21V3.5C21 3.03587 20.8156 2.59075 20.4874 2.26256C20.1592 1.93437 19.7141 1.75 19.25 1.75ZM4.375 3.5V4.375C4.375 4.60706 4.46719 4.82962 4.63128 4.99372C4.79538 5.15781 5.01794 5.25 5.25 5.25C5.48206 5.25 5.70462 5.15781 5.86872 4.99372C6.03281 4.82962 6.125 4.60706 6.125 4.375V3.5H14.875V4.375C14.875 4.60706 14.9672 4.82962 15.1313 4.99372C15.2954 5.15781 15.5179 5.25 15.75 5.25C15.9821 5.25 16.2046 5.15781 16.3687 4.99372C16.5328 4.82962 16.625 4.60706 16.625 4.375V3.5H19.25V7H1.75V3.5H4.375ZM19.25 21H1.75V8.75H19.25V21ZM11.8125 12.6875C11.8125 12.9471 11.7355 13.2008 11.5913 13.4167C11.4471 13.6325 11.2421 13.8008 11.0023 13.9001C10.7624 13.9994 10.4985 14.0254 10.2439 13.9748C9.98934 13.9241 9.75548 13.7991 9.57192 13.6156C9.38837 13.432 9.26336 13.1982 9.21272 12.9436C9.16208 12.689 9.18807 12.4251 9.28741 12.1852C9.38675 11.9454 9.55497 11.7404 9.77081 11.5962C9.98665 11.452 10.2404 11.375 10.5 11.375C10.8481 11.375 11.1819 11.5133 11.4281 11.7594C11.6742 12.0056 11.8125 12.3394 11.8125 12.6875ZM16.625 12.6875C16.625 12.9471 16.548 13.2008 16.4038 13.4167C16.2596 13.6325 16.0546 13.8008 15.8148 13.9001C15.5749 13.9994 15.311 14.0254 15.0564 13.9748C14.8018 13.9241 14.568 13.7991 14.3844 13.6156C14.2009 13.432 14.0759 13.1982 14.0252 12.9436C13.9746 12.689 14.0006 12.4251 14.0999 12.1852C14.1992 11.9454 14.3675 11.7404 14.5833 11.5962C14.7992 11.452 15.0529 11.375 15.3125 11.375C15.6606 11.375 15.9944 11.5133 16.2406 11.7594C16.4867 12.0056 16.625 12.3394 16.625 12.6875ZM7 17.0625C7 17.3221 6.92302 17.5758 6.7788 17.7917C6.63458 18.0075 6.4296 18.1758 6.18977 18.2751C5.94994 18.3744 5.68604 18.4004 5.43144 18.3498C5.17684 18.2991 4.94298 18.1741 4.75942 17.9906C4.57587 17.807 4.45086 17.5732 4.40022 17.3186C4.34958 17.064 4.37557 16.8001 4.47491 16.5602C4.57425 16.3204 4.74247 16.1154 4.95831 15.9712C5.17415 15.827 5.42791 15.75 5.6875 15.75C6.0356 15.75 6.36944 15.8883 6.61558 16.1344C6.86172 16.3806 7 16.7144 7 17.0625ZM11.8125 17.0625C11.8125 17.3221 11.7355 17.5758 11.5913 17.7917C11.4471 18.0075 11.2421 18.1758 11.0023 18.2751C10.7624 18.3744 10.4985 18.4004 10.2439 18.3498C9.98934 18.2991 9.75548 18.1741 9.57192 17.9906C9.38837 17.807 9.26336 17.5732 9.21272 17.3186C9.16208 17.064 9.18807 16.8001 9.28741 16.5602C9.38675 16.3204 9.55497 16.1154 9.77081 15.9712C9.98665 15.827 10.2404 15.75 10.5 15.75C10.8481 15.75 11.1819 15.8883 11.4281 16.1344C11.6742 16.3806 11.8125 16.7144 11.8125 17.0625ZM16.625 17.0625C16.625 17.3221 16.548 17.5758 16.4038 17.7917C16.2596 18.0075 16.0546 18.1758 15.8148 18.2751C15.5749 18.3744 15.311 18.4004 15.0564 18.3498C14.8018 18.2991 14.568 18.1741 14.3844 17.9906C14.2009 17.807 14.0759 17.5732 14.0252 17.3186C13.9746 17.064 14.0006 16.8001 14.0999 16.5602C14.1992 16.3204 14.3675 16.1154 14.5833 15.9712C14.7992 15.827 15.0529 15.75 15.3125 15.75C15.6606 15.75 15.9944 15.8883 16.2406 16.1344C16.4867 16.3806 16.625 16.7144 16.625 17.0625Z" fill="var(--fill-0, #A90831)"/>
</svg>
