<svg preserveAspectRatio="xMidYMid meet" width="100%" height="100%" overflow="visible" style="display: block;" viewBox="0 0 21.0005 19.2512" fill="none" xmlns="http://www.w3.org/2000/svg">
<path id="Vector" d="M21.0005 9.62549C21.0005 9.85755 20.9083 10.0801 20.7442 10.2442C20.5801 10.4083 20.3576 10.5005 20.1255 10.5005H10.5005C10.2684 10.5005 10.0459 10.4083 9.88177 10.2442C9.71767 10.0801 9.62549 9.85755 9.62549 9.62549C9.62549 9.39342 9.71767 9.17086 9.88177 9.00677C10.0459 8.84267 10.2684 8.75049 10.5005 8.75049H20.1255C20.3576 8.75049 20.5801 8.84267 20.7442 9.00677C20.9083 9.17086 21.0005 9.39342 21.0005 9.62549ZM10.5005 3.50049H20.1255C20.3576 3.50049 20.5801 3.4083 20.7442 3.2442C20.9083 3.08011 21.0005 2.85755 21.0005 2.62549C21.0005 2.39342 20.9083 2.17086 20.7442 2.00677C20.5801 1.84267 20.3576 1.75049 20.1255 1.75049H10.5005C10.2684 1.75049 10.0459 1.84267 9.88177 2.00677C9.71767 2.17086 9.62549 2.39342 9.62549 2.62549C9.62549 2.85755 9.71767 3.08011 9.88177 3.2442C10.0459 3.4083 10.2684 3.50049 10.5005 3.50049ZM20.1255 15.7505H10.5005C10.2684 15.7505 10.0459 15.8427 9.88177 16.0068C9.71767 16.1709 9.62549 16.3934 9.62549 16.6255C9.62549 16.8576 9.71767 17.0801 9.88177 17.2442C10.0459 17.4083 10.2684 17.5005 10.5005 17.5005H20.1255C20.3576 17.5005 20.5801 17.4083 20.7442 17.2442C20.9083 17.0801 21.0005 16.8576 21.0005 16.6255C21.0005 16.3934 20.9083 16.1709 20.7442 16.0068C20.5801 15.8427 20.3576 15.7505 20.1255 15.7505ZM5.50642 0.256424L2.62549 3.13846L1.49455 2.00642C1.33036 1.84224 1.10768 1.75 0.875487 1.75C0.643293 1.75 0.42061 1.84224 0.256424 2.00642C0.0922384 2.17061 1.72998e-09 2.39329 0 2.62549C-1.72998e-09 2.85768 0.0922384 3.08036 0.256424 3.24455L2.00642 4.99455C2.08769 5.0759 2.18419 5.14044 2.29041 5.18448C2.39664 5.22851 2.5105 5.25117 2.62549 5.25117C2.74048 5.25117 2.85434 5.22851 2.96056 5.18448C3.06678 5.14044 3.16329 5.0759 3.24455 4.99455L6.74455 1.49455C6.90874 1.33036 7.00097 1.10768 7.00097 0.875486C7.00097 0.643293 6.90874 0.42061 6.74455 0.256424C6.58036 0.0922384 6.35768 0 6.12549 0C5.89329 0 5.67061 0.0922384 5.50642 0.256424ZM5.50642 7.25642L2.62549 10.1385L1.49455 9.00642C1.33036 8.84224 1.10768 8.75 0.875487 8.75C0.643293 8.75 0.42061 8.84224 0.256424 9.00642C0.0922384 9.17061 0 9.39329 0 9.62549C0 9.74046 0.0226451 9.8543 0.0666425 9.96052C0.11064 10.0667 0.175128 10.1633 0.256424 10.2445L2.00642 11.9945C2.08769 12.0759 2.18419 12.1404 2.29041 12.1845C2.39664 12.2285 2.5105 12.2512 2.62549 12.2512C2.74048 12.2512 2.85434 12.2285 2.96056 12.1845C3.06678 12.1404 3.16329 12.0759 3.24455 11.9945L6.74455 8.49455C6.90874 8.33036 7.00097 8.10768 7.00097 7.87549C7.00097 7.64329 6.90874 7.42061 6.74455 7.25642C6.58036 7.09224 6.35768 7 6.12549 7C5.89329 7 5.67061 7.09224 5.50642 7.25642ZM5.50642 14.2564L2.62549 17.1385L1.49455 16.0064C1.41325 15.9251 1.31674 15.8606 1.21052 15.8166C1.1043 15.7726 0.990457 15.75 0.875487 15.75C0.760516 15.75 0.646671 15.7726 0.540452 15.8166C0.434233 15.8606 0.33772 15.9251 0.256424 16.0064C0.175128 16.0877 0.11064 16.1842 0.0666425 16.2905C0.0226451 16.3967 0 16.5105 0 16.6255C0 16.7405 0.0226451 16.8543 0.0666425 16.9605C0.11064 17.0667 0.175128 17.1633 0.256424 17.2446L2.00642 18.9946C2.08769 19.0759 2.18419 19.1404 2.29041 19.1845C2.39664 19.2285 2.5105 19.2512 2.62549 19.2512C2.74048 19.2512 2.85434 19.2285 2.96056 19.1845C3.06678 19.1404 3.16329 19.0759 3.24455 18.9946L6.74455 15.4946C6.90874 15.3304 7.00097 15.1077 7.00097 14.8755C7.00097 14.6433 6.90874 14.4206 6.74455 14.2564C6.58036 14.0922 6.35768 14 6.12549 14C5.89329 14 5.67061 14.0922 5.50642 14.2564Z" fill="var(--fill-0, #A90831)"/>
</svg>
