<svg preserveAspectRatio="none" width="100%" height="100%" overflow="visible" style="display: block;" viewBox="0 0 27 29.25" fill="none" xmlns="http://www.w3.org/2000/svg">
<path id="Vector" d="M24.75 2.25H21.375V1.125C21.375 0.826631 21.2565 0.540483 21.0455 0.329505C20.8345 0.118526 20.5484 0 20.25 0C19.9516 0 19.6655 0.118526 19.4545 0.329505C19.2435 0.540483 19.125 0.826631 19.125 1.125V2.25H7.875V1.125C7.875 0.826631 7.75647 0.540483 7.54549 0.329505C7.33452 0.118526 7.04837 0 6.75 0C6.45163 0 6.16548 0.118526 5.95451 0.329505C5.74353 0.540483 5.625 0.826631 5.625 1.125V2.25H2.25C1.65326 2.25 1.08097 2.48705 0.65901 2.90901C0.237053 3.33097 0 3.90326 0 4.5V27C0 27.5967 0.237053 28.169 0.65901 28.591C1.08097 29.0129 1.65326 29.25 2.25 29.25H24.75C25.3467 29.25 25.919 29.0129 26.341 28.591C26.7629 28.169 27 27.5967 27 27V4.5C27 3.90326 26.7629 3.33097 26.341 2.90901C25.919 2.48705 25.3467 2.25 24.75 2.25ZM5.625 4.5V5.625C5.625 5.92337 5.74353 6.20952 5.95451 6.42049C6.16548 6.63147 6.45163 6.75 6.75 6.75C7.04837 6.75 7.33452 6.63147 7.54549 6.42049C7.75647 6.20952 7.875 5.92337 7.875 5.625V4.5H19.125V5.625C19.125 5.92337 19.2435 6.20952 19.4545 6.42049C19.6655 6.63147 19.9516 6.75 20.25 6.75C20.5484 6.75 20.8345 6.63147 21.0455 6.42049C21.2565 6.20952 21.375 5.92337 21.375 5.625V4.5H24.75V9H2.25V4.5H5.625ZM24.75 27H2.25V11.25H24.75V27ZM15.1875 16.3125C15.1875 16.6463 15.0885 16.9725 14.9031 17.25C14.7177 17.5275 14.4541 17.7438 14.1458 17.8715C13.8374 17.9993 13.4981 18.0327 13.1708 17.9676C12.8434 17.9025 12.5428 17.7417 12.3068 17.5057C12.0708 17.2697 11.91 16.9691 11.8449 16.6417C11.7798 16.3144 11.8132 15.9751 11.941 15.6667C12.0687 15.3584 12.285 15.0948 12.5625 14.9094C12.84 14.724 13.1662 14.625 13.5 14.625C13.9476 14.625 14.3768 14.8028 14.6932 15.1193C15.0097 15.4357 15.1875 15.8649 15.1875 16.3125ZM21.375 16.3125C21.375 16.6463 21.276 16.9725 21.0906 17.25C20.9052 17.5275 20.6416 17.7438 20.3333 17.8715C20.0249 17.9993 19.6856 18.0327 19.3583 17.9676C19.0309 17.9025 18.7303 17.7417 18.4943 17.5057C18.2583 17.2697 18.0975 16.9691 18.0324 16.6417C17.9673 16.3144 18.0007 15.9751 18.1285 15.6667C18.2562 15.3584 18.4725 15.0948 18.75 14.9094C19.0275 14.724 19.3537 14.625 19.6875 14.625C20.1351 14.625 20.5643 14.8028 20.8807 15.1193C21.1972 15.4357 21.375 15.8649 21.375 16.3125ZM9 21.9375C9 22.2713 8.90103 22.5975 8.71561 22.875C8.53018 23.1525 8.26663 23.3688 7.95828 23.4965C7.64993 23.6243 7.31063 23.6577 6.98328 23.5926C6.65594 23.5275 6.35526 23.3667 6.11926 23.1307C5.88326 22.8947 5.72254 22.5941 5.65742 22.2667C5.59231 21.9394 5.62573 21.6001 5.75345 21.2917C5.88118 20.9834 6.09747 20.7198 6.37498 20.5344C6.65248 20.349 6.97874 20.25 7.3125 20.25C7.76005 20.25 8.18928 20.4278 8.50574 20.7443C8.82221 21.0607 9 21.4899 9 21.9375ZM15.1875 21.9375C15.1875 22.2713 15.0885 22.5975 14.9031 22.875C14.7177 23.1525 14.4541 23.3688 14.1458 23.4965C13.8374 23.6243 13.4981 23.6577 13.1708 23.5926C12.8434 23.5275 12.5428 23.3667 12.3068 23.1307C12.0708 22.8947 11.91 22.5941 11.8449 22.2667C11.7798 21.9394 11.8132 21.6001 11.941 21.2917C12.0687 20.9834 12.285 20.7198 12.5625 20.5344C12.84 20.349 13.1662 20.25 13.5 20.25C13.9476 20.25 14.3768 20.4278 14.6932 20.7443C15.0097 21.0607 15.1875 21.4899 15.1875 21.9375ZM21.375 21.9375C21.375 22.2713 21.276 22.5975 21.0906 22.875C20.9052 23.1525 20.6416 23.3688 20.3333 23.4965C20.0249 23.6243 19.6856 23.6577 19.3583 23.5926C19.0309 23.5275 18.7303 23.3667 18.4943 23.1307C18.2583 22.8947 18.0975 22.5941 18.0324 22.2667C17.9673 21.9394 18.0007 21.6001 18.1285 21.2917C18.2562 20.9834 18.4725 20.7198 18.75 20.5344C19.0275 20.349 19.3537 20.25 19.6875 20.25C20.1351 20.25 20.5643 20.4278 20.8807 20.7443C21.1972 21.0607 21.375 21.4899 21.375 21.9375Z" fill="var(--fill-0, #A90831)"/>
</svg>
