<svg preserveAspectRatio="none" width="100%" height="100%" overflow="visible" style="display: block;" viewBox="0 0 26.2503 11.3765" fill="none" xmlns="http://www.w3.org/2000/svg">
<path id="Vector" d="M15.4887 1.50027L5.68872 11.1253C5.52506 11.2863 5.3047 11.3765 5.07513 11.3765C4.84557 11.3765 4.6252 11.2863 4.46154 11.1253L0.261537 7.00074C0.179594 6.92016 0.114325 6.82423 0.0694556 6.71843C0.0245863 6.61262 0.000995706 6.49902 3.08458e-05 6.3841C-0.000934014 6.26918 0.0207456 6.1552 0.0638321 6.04865C0.106919 5.94211 0.170568 5.8451 0.251146 5.76316C0.331725 5.68122 0.427654 5.61595 0.533456 5.57108C0.639259 5.52621 0.752864 5.50262 0.867783 5.50165C0.982703 5.50069 1.09669 5.52237 1.20323 5.56545C1.30977 5.60854 1.40678 5.67219 1.48872 5.75277L5.07513 9.27464L14.2626 0.251206C14.4283 0.0884704 14.6518 -0.00180091 14.884 0.000250269C14.9989 0.00126591 15.1126 0.0249165 15.2184 0.0698522C15.3242 0.114788 15.4202 0.180128 15.5008 0.262143C15.5813 0.344158 15.645 0.44124 15.688 0.547848C15.7311 0.654456 15.7527 0.7685 15.7517 0.883471C15.7507 0.998441 15.727 1.11209 15.6821 1.21792C15.6372 1.32375 15.5718 1.41969 15.4898 1.50027H15.4887ZM25.9997 0.262143C25.9191 0.180067 25.8232 0.114672 25.7174 0.069697C25.6115 0.0247223 25.4979 0.00104995 25.3829 3.41428e-05C25.2679 -0.000981668 25.1538 0.0206785 25.0472 0.0637764C24.9406 0.106874 24.8435 0.170565 24.7615 0.251206L15.574 9.27464L13.5145 7.2512C13.3489 7.08861 13.1254 6.99848 12.8933 7.00064C12.6612 7.00279 12.4395 7.09705 12.2769 7.26269C12.1143 7.42833 12.0242 7.65177 12.0264 7.88386C12.0285 8.11595 12.1228 8.33768 12.2884 8.50027L14.9604 11.1253C15.1241 11.2863 15.3445 11.3765 15.574 11.3765C15.8036 11.3765 16.024 11.2863 16.1876 11.1253L25.9876 1.50027C26.0698 1.4198 26.1353 1.32392 26.1803 1.21813C26.2254 1.11233 26.2492 0.998689 26.2503 0.883699C26.2514 0.768709 26.2298 0.654626 26.1868 0.547975C26.1438 0.441323 26.0802 0.344195 25.9997 0.262143Z" fill="var(--fill-0, #A90831)"/>
</svg>
