<svg preserveAspectRatio="xMidYMid meet" width="100%" height="100%" overflow="visible" style="display: block;" viewBox="0 0 22.75 22.75" fill="none" xmlns="http://www.w3.org/2000/svg">
<path id="Vector" d="M11.375 0C9.12524 0 6.926 0.667132 5.05539 1.91703C3.18478 3.16693 1.72682 4.94347 0.865875 7.02198C0.00492861 9.10049 -0.220334 11.3876 0.218573 13.5942C0.657479 15.8007 1.74084 17.8275 3.33167 19.4183C4.92249 21.0092 6.94932 22.0925 9.15585 22.5314C11.3624 22.9703 13.6495 22.7451 15.728 21.8841C17.8065 21.0232 19.5831 19.5652 20.833 17.6946C22.0829 15.824 22.75 13.6248 22.75 11.375C22.7468 8.35914 21.5474 5.46771 19.4148 3.33518C17.2823 1.20264 14.3909 0.0031848 11.375 0ZM11.375 21C9.47136 21 7.61046 20.4355 6.02764 19.3779C4.44482 18.3203 3.21116 16.8171 2.48266 15.0583C1.75417 13.2996 1.56356 11.3643 1.93495 9.49726C2.30633 7.63019 3.22302 5.91518 4.5691 4.5691C5.91518 3.22302 7.63019 2.30632 9.49726 1.93494C11.3643 1.56356 13.2996 1.75417 15.0583 2.48266C16.8171 3.21115 18.3203 4.44481 19.3779 6.02764C20.4355 7.61046 21 9.47135 21 11.375C20.9971 13.9268 19.9821 16.3733 18.1777 18.1777C16.3733 19.9821 13.9268 20.9971 11.375 21ZM18.375 11.375C18.375 11.6071 18.2828 11.8296 18.1187 11.9937C17.9546 12.1578 17.7321 12.25 17.5 12.25H11.375C11.1429 12.25 10.9204 12.1578 10.7563 11.9937C10.5922 11.8296 10.5 11.6071 10.5 11.375V5.25C10.5 5.01794 10.5922 4.79538 10.7563 4.63128C10.9204 4.46719 11.1429 4.375 11.375 4.375C11.6071 4.375 11.8296 4.46719 11.9937 4.63128C12.1578 4.79538 12.25 5.01794 12.25 5.25V10.5H17.5C17.7321 10.5 17.9546 10.5922 18.1187 10.7563C18.2828 10.9204 18.375 11.1429 18.375 11.375Z" fill="var(--fill-0, #A90831)"/>
</svg>
