<svg preserveAspectRatio="none" width="100%" height="100%" overflow="visible" style="display: block;" viewBox="0 0 28.0006 18.0006" fill="none" xmlns="http://www.w3.org/2000/svg">
<path id="Vector" d="M28.0006 1V9C28.0006 9.26522 27.8952 9.51957 27.7077 9.70711C27.5201 9.89464 27.2658 10 27.0006 10C26.7353 10 26.481 9.89464 26.2934 9.70711C26.1059 9.51957 26.0006 9.26522 26.0006 9V3.41375L15.7081 13.7075C15.6152 13.8005 15.5049 13.8742 15.3835 13.9246C15.2621 13.9749 15.132 14.0008 15.0006 14.0008C14.8691 14.0008 14.739 13.9749 14.6176 13.9246C14.4962 13.8742 14.3859 13.8005 14.2931 13.7075L10.0006 9.41375L1.70806 17.7075C1.52042 17.8951 1.26592 18.0006 1.00056 18.0006C0.735192 18.0006 0.480697 17.8951 0.293056 17.7075C0.105415 17.5199 0 17.2654 0 17C0 16.7346 0.105415 16.4801 0.293056 16.2925L9.29306 7.2925C9.38593 7.19952 9.49622 7.12576 9.61762 7.07544C9.73901 7.02512 9.86914 6.99921 10.0006 6.99921C10.132 6.99921 10.2621 7.02512 10.3835 7.07544C10.5049 7.12576 10.6152 7.19952 10.7081 7.2925L15.0006 11.5863L24.5868 2H19.0006C18.7353 2 18.481 1.89464 18.2934 1.70711C18.1059 1.51957 18.0006 1.26522 18.0006 1C18.0006 0.734784 18.1059 0.48043 18.2934 0.292893C18.481 0.105357 18.7353 0 19.0006 0H27.0006C27.2658 0 27.5201 0.105357 27.7077 0.292893C27.8952 0.48043 28.0006 0.734784 28.0006 1Z" fill="var(--fill-0, #A90831)"/>
</svg>
