<svg preserveAspectRatio="none" width="100%" height="100%" overflow="visible" style="display: block;" viewBox="0 0 25.3752 22.75" fill="none" xmlns="http://www.w3.org/2000/svg">
<path id="Vector" d="M10.5 21C10.5 21.3461 10.3974 21.6845 10.2051 21.9722C10.0128 22.26 9.73947 22.4843 9.4197 22.6168C9.09993 22.7492 8.74806 22.7839 8.40859 22.7164C8.06913 22.6489 7.75731 22.4822 7.51256 22.2374C7.26782 21.9927 7.10115 21.6809 7.03363 21.3414C6.9661 21.0019 7.00076 20.6501 7.13321 20.3303C7.26566 20.0105 7.48997 19.7372 7.77775 19.5449C8.06554 19.3526 8.40388 19.25 8.75 19.25C9.21413 19.25 9.65925 19.4344 9.98744 19.7626C10.3156 20.0908 10.5 20.5359 10.5 21ZM20.125 19.25C19.7789 19.25 19.4405 19.3526 19.1528 19.5449C18.865 19.7372 18.6407 20.0105 18.5082 20.3303C18.3758 20.6501 18.3411 21.0019 18.4086 21.3414C18.4761 21.6809 18.6428 21.9927 18.8876 22.2374C19.1323 22.4822 19.4441 22.6489 19.7836 22.7164C20.1231 22.7839 20.4749 22.7492 20.7947 22.6168C21.1145 22.4843 21.3878 22.26 21.5801 21.9722C21.7724 21.6845 21.875 21.3461 21.875 21C21.875 20.5359 21.6906 20.0908 21.3624 19.7626C21.0342 19.4344 20.5891 19.25 20.125 19.25ZM25.3433 5.48406L22.5389 15.5772C22.3847 16.1285 22.0549 16.6146 21.5996 16.9616C21.1442 17.3086 20.5881 17.4976 20.0156 17.5H9.205C8.63082 17.4997 8.07247 17.3117 7.61512 16.9645C7.15777 16.6174 6.82652 16.1302 6.67188 15.5772L2.835 1.75H0.875C0.642936 1.75 0.420376 1.65781 0.256282 1.49372C0.0921872 1.32962 0 1.10706 0 0.875C0 0.642936 0.0921872 0.420376 0.256282 0.256282C0.420376 0.0921872 0.642936 1.61617e-08 0.875 1.61617e-08H3.5C3.6913 -3.67389e-05 3.87734 0.0626189 4.02964 0.178375C4.18194 0.294132 4.29211 0.45661 4.34328 0.640938L5.38016 4.375H24.5C24.6349 4.37497 24.768 4.40614 24.8888 4.46605C25.0097 4.52597 25.115 4.61302 25.1967 4.7204C25.2783 4.82777 25.3341 4.95258 25.3595 5.08505C25.3849 5.21753 25.3794 5.35409 25.3433 5.48406ZM23.3483 6.125H5.86687L8.36172 15.1091C8.41289 15.2934 8.52306 15.4559 8.67536 15.5716C8.82766 15.6874 9.0137 15.75 9.205 15.75H20.0156C20.2069 15.75 20.393 15.6874 20.5453 15.5716C20.6976 15.4559 20.8077 15.2934 20.8589 15.1091L23.3483 6.125Z" fill="var(--fill-0, #A90831)"/>
</svg>
