<svg preserveAspectRatio="xMidYMid meet" width="100%" height="100%" overflow="visible" style="display: block;" viewBox="0 0 15 17.5" fill="none" xmlns="http://www.w3.org/2000/svg">
<path id="Vector" d="M7.5 2.5C6.01664 2.5 4.5666 2.93987 3.33323 3.76398C2.09986 4.58809 1.13856 5.75943 0.570907 7.12987C0.00324964 8.50032 -0.145275 10.0083 0.144114 11.4632C0.433503 12.918 1.14781 14.2544 2.1967 15.3033C3.2456 16.3522 4.58197 17.0665 6.03683 17.3559C7.49168 17.6453 8.99968 17.4968 10.3701 16.9291C11.7406 16.3614 12.9119 15.4001 13.736 14.1668C14.5601 12.9334 15 11.4834 15 10C14.9977 8.01157 14.2068 6.10524 12.8008 4.69921C11.3948 3.29318 9.48843 2.50227 7.5 2.5ZM7.5 16.25C6.26387 16.25 5.0555 15.8834 4.02769 15.1967C2.99988 14.5099 2.1988 13.5338 1.72576 12.3918C1.25271 11.2497 1.12894 9.99307 1.3701 8.78069C1.61125 7.5683 2.20651 6.45466 3.08059 5.58058C3.95466 4.7065 5.06831 4.11125 6.28069 3.87009C7.49307 3.62893 8.74974 3.75271 9.89177 4.22575C11.0338 4.6988 12.0099 5.49988 12.6967 6.52769C13.3834 7.55549 13.75 8.76387 13.75 10C13.7481 11.657 13.0891 13.2457 11.9174 14.4174C10.7457 15.5891 9.15704 16.2481 7.5 16.25ZM11.0672 6.43281C11.1253 6.49086 11.1714 6.55979 11.2029 6.63566C11.2343 6.71154 11.2505 6.79287 11.2505 6.875C11.2505 6.95713 11.2343 7.03846 11.2029 7.11434C11.1714 7.19021 11.1253 7.25914 11.0672 7.31719L7.94219 10.4422C7.88412 10.5003 7.81518 10.5463 7.73931 10.5777C7.66344 10.6092 7.58213 10.6253 7.5 10.6253C7.41788 10.6253 7.33656 10.6092 7.26069 10.5777C7.18482 10.5463 7.11588 10.5003 7.05782 10.4422C6.99975 10.3841 6.95368 10.3152 6.92226 10.2393C6.89083 10.1634 6.87466 10.0821 6.87466 10C6.87466 9.91788 6.89083 9.83656 6.92226 9.76069C6.95368 9.68482 6.99975 9.61588 7.05782 9.55781L10.1828 6.43281C10.2409 6.3747 10.3098 6.3286 10.3857 6.29715C10.4615 6.2657 10.5429 6.24951 10.625 6.24951C10.7071 6.24951 10.7885 6.2657 10.8643 6.29715C10.9402 6.3286 11.0091 6.3747 11.0672 6.43281ZM5 0.625C5 0.45924 5.06585 0.300268 5.18306 0.183058C5.30027 0.065848 5.45924 0 5.625 0H9.375C9.54076 0 9.69974 0.065848 9.81695 0.183058C9.93416 0.300268 10 0.45924 10 0.625C10 0.79076 9.93416 0.949732 9.81695 1.06694C9.69974 1.18415 9.54076 1.25 9.375 1.25H5.625C5.45924 1.25 5.30027 1.18415 5.18306 1.06694C5.06585 0.949732 5 0.79076 5 0.625Z" fill="var(--fill-0, #A90831)"/>
</svg>
