<svg preserveAspectRatio="xMidYMid meet" width="100%" height="100%" overflow="visible" style="display: block;" viewBox="0 0 55.9933 38.4961" fill="none" xmlns="http://www.w3.org/2000/svg">
<path id="Vector" d="M55.6263 13.1036L50.0438 1.93427C49.8382 1.52316 49.5535 1.1566 49.2062 0.855498C48.8589 0.554402 48.4556 0.324674 48.0195 0.179434C47.5834 0.0341942 47.1229 -0.023713 46.6644 0.0090197C46.2059 0.0417524 45.7583 0.164484 45.3473 0.370205L39.9069 3.08927L28.4466 0.0573928C28.1526 -0.0191309 27.8438 -0.0191309 27.5498 0.0573928L16.0894 3.08927L10.6491 0.370205C10.2381 0.164484 9.79049 0.0417524 9.33198 0.0090197C8.87348 -0.023713 8.41301 0.0341942 7.97689 0.179434C7.54076 0.324674 7.13752 0.554402 6.79018 0.855498C6.44285 1.1566 6.15822 1.52316 5.95257 1.93427L0.37007 13.1015C0.164349 13.5125 0.0416178 13.9601 0.00888512 14.4186C-0.0238476 14.8771 0.0340595 15.3376 0.179299 15.7737C0.324539 16.2098 0.554267 16.6131 0.855364 16.9604C1.15646 17.3077 1.52303 17.5924 1.93413 17.798L7.84038 20.7533L19.9788 29.4224C20.1577 29.5496 20.3587 29.6424 20.5716 29.6958L34.5716 33.1958C34.8648 33.2694 35.1721 33.2657 35.4634 33.1852C35.7548 33.1047 36.0203 32.9501 36.2341 32.7365L48.2807 20.6877L54.0601 17.798C54.8898 17.3827 55.5206 16.6549 55.8139 15.7746C56.1072 14.8943 56.0389 13.9336 55.6241 13.1036H55.6263ZM43.6191 20.4033L36.0919 14.3746C35.7547 14.1045 35.3295 13.9688 34.8982 13.9934C34.4669 14.018 34.06 14.2013 33.7557 14.508C29.8598 18.4324 25.5176 17.9358 22.7482 16.1858L32.2069 6.99833H39.1654L45.1176 18.9005L43.6191 20.4033ZM9.08288 3.49833L13.5607 5.73396L7.96726 16.9011L3.4982 14.6677L9.08288 3.49833ZM34.4579 29.558L21.7463 26.3818L10.9838 18.6949L17.1088 6.44489L27.9982 3.55958L30.1419 4.12614L20.2982 13.6811L20.2807 13.7008C19.9101 14.0714 19.6275 14.5204 19.4537 15.0148C19.2799 15.5091 19.2193 16.0362 19.2764 16.5571C19.3335 17.0781 19.5069 17.5795 19.7837 18.0245C20.0605 18.4694 20.4337 18.8466 20.8757 19.128C25.3732 22.0002 30.8004 21.5343 35.0748 18.0343L41.1232 22.8927L34.4579 29.558ZM48.0204 16.899L42.4379 5.74271L46.9135 3.49833L52.4982 14.6677L48.0204 16.899ZM28.8251 37.1705C28.7305 37.5487 28.5124 37.8846 28.2053 38.1247C27.8981 38.3649 27.5196 38.4956 27.1298 38.4961C26.986 38.496 26.8427 38.4783 26.7032 38.4436L17.5879 36.1643C17.3747 36.1117 17.1735 36.0189 16.9951 35.8908L11.231 31.774C10.8766 31.4957 10.6432 31.0914 10.5794 30.6454C10.5155 30.1993 10.6263 29.7458 10.8884 29.3793C11.1506 29.0128 11.544 28.7616 11.9868 28.678C12.4296 28.5943 12.8876 28.6846 13.2654 28.9302L18.7582 32.8546L27.5607 35.0508C28.0109 35.1634 28.3979 35.4502 28.6366 35.8481C28.8754 36.2461 28.9463 36.7225 28.8338 37.1727L28.8251 37.1705Z" fill="#A90831"/>
</svg>
