<svg preserveAspectRatio="xMidYMid meet" width="100%" height="100%" overflow="visible" style="display: block;" viewBox="0 0 22.75 20.125" fill="none" xmlns="http://www.w3.org/2000/svg">
<path id="Vector" d="M21.875 18.375H21V0.875C21 0.642936 20.9078 0.420376 20.7437 0.256282C20.5796 0.0921874 20.3571 0 20.125 0H14C13.7679 0 13.5454 0.0921874 13.3813 0.256282C13.2172 0.420376 13.125 0.642936 13.125 0.875V5.25H7.875C7.64294 5.25 7.42038 5.34219 7.25628 5.50628C7.09219 5.67038 7 5.89294 7 6.125V10.5H2.625C2.39294 10.5 2.17038 10.5922 2.00628 10.7563C1.84219 10.9204 1.75 11.1429 1.75 11.375V18.375H0.875C0.642936 18.375 0.420376 18.4672 0.256282 18.6313C0.0921872 18.7954 0 19.0179 0 19.25C0 19.4821 0.0921872 19.7046 0.256282 19.8687C0.420376 20.0328 0.642936 20.125 0.875 20.125H21.875C22.1071 20.125 22.3296 20.0328 22.4937 19.8687C22.6578 19.7046 22.75 19.4821 22.75 19.25C22.75 19.0179 22.6578 18.7954 22.4937 18.6313C22.3296 18.4672 22.1071 18.375 21.875 18.375ZM14.875 1.75H19.25V18.375H14.875V1.75ZM8.75 7H13.125V18.375H8.75V7ZM3.5 12.25H7V18.375H3.5V12.25Z" fill="var(--fill-0, #A90831)"/>
</svg>
