<svg preserveAspectRatio="none" width="100%" height="100%" overflow="visible" style="display: block;" viewBox="0 0 22.75 19.25" fill="none" xmlns="http://www.w3.org/2000/svg">
<path id="Vector" d="M21 0H1.75C1.28587 0 0.840752 0.184374 0.512563 0.512563C0.184374 0.840752 0 1.28587 0 1.75V17.5C0 17.9641 0.184374 18.4092 0.512563 18.7374C0.840752 19.0656 1.28587 19.25 1.75 19.25H21C21.4641 19.25 21.9092 19.0656 22.2374 18.7374C22.5656 18.4092 22.75 17.9641 22.75 17.5V1.75C22.75 1.28587 22.5656 0.840752 22.2374 0.512563C21.9092 0.184374 21.4641 0 21 0ZM7.875 8.75C7.875 8.05777 8.08027 7.38108 8.46486 6.8055C8.84944 6.22993 9.39607 5.78133 10.0356 5.51642C10.6751 5.25151 11.3789 5.1822 12.0578 5.31725C12.7367 5.4523 13.3604 5.78564 13.8499 6.27513C14.3394 6.76461 14.6727 7.38825 14.8077 8.06718C14.9428 8.74612 14.8735 9.44985 14.6086 10.0894C14.3437 10.7289 13.8951 11.2756 13.3195 11.6601C12.7439 12.0447 12.0672 12.25 11.375 12.25C10.4467 12.25 9.5565 11.8813 8.90013 11.2249C8.24375 10.5685 7.875 9.67826 7.875 8.75ZM5.31234 17.5C5.92666 16.4356 6.81035 15.5518 7.87459 14.9372C8.93882 14.3227 10.1461 13.9992 11.375 13.9992C12.6039 13.9992 13.8112 14.3227 14.8754 14.9372C15.9396 15.5518 16.8233 16.4356 17.4377 17.5H5.31234ZM21 17.5H19.3955C18.4718 15.3907 16.7553 13.7296 14.6169 12.8756C15.4758 12.2013 16.1031 11.276 16.4114 10.2284C16.7197 9.18082 16.6937 8.06319 16.337 7.0311C15.9802 5.99901 15.3106 5.10385 14.4212 4.47024C13.5318 3.83664 12.467 3.49613 11.375 3.49613C10.283 3.49613 9.21819 3.83664 8.32881 4.47024C7.43943 5.10385 6.76975 5.99901 6.41303 7.0311C6.0563 8.06319 6.03028 9.18082 6.33859 10.2284C6.6469 11.276 7.27419 12.2013 8.13313 12.8756C5.99468 13.7296 4.27815 15.3907 3.35453 17.5H1.75V1.75H21V17.5Z" fill="var(--fill-0, #A90831)"/>
</svg>
