<svg preserveAspectRatio="xMidYMid meet" width="100%" height="100%" overflow="visible" style="display: block;" viewBox="0 0 21 22.75" fill="none" xmlns="http://www.w3.org/2000/svg">
<path id="Vector" d="M19.25 16.625H1.75C1.28587 16.625 0.840752 16.8094 0.512563 17.1376C0.184374 17.4658 0 17.9109 0 18.375V21C0 21.4641 0.184374 21.9092 0.512563 22.2374C0.840752 22.5656 1.28587 22.75 1.75 22.75H19.25C19.7141 22.75 20.1592 22.5656 20.4874 22.2374C20.8156 21.9092 21 21.4641 21 21V18.375C21 17.9109 20.8156 17.4658 20.4874 17.1376C20.1592 16.8094 19.7141 16.625 19.25 16.625ZM19.25 21H1.75V18.375H19.25V21ZM19.25 8.75H1.75C1.28587 8.75 0.840752 8.93437 0.512563 9.26256C0.184374 9.59075 0 10.0359 0 10.5V13.125C0 13.5891 0.184374 14.0342 0.512563 14.3624C0.840752 14.6906 1.28587 14.875 1.75 14.875H19.25C19.7141 14.875 20.1592 14.6906 20.4874 14.3624C20.8156 14.0342 21 13.5891 21 13.125V10.5C21 10.0359 20.8156 9.59075 20.4874 9.26256C20.1592 8.93437 19.7141 8.75 19.25 8.75ZM19.25 13.125H1.75V10.5H19.25V13.125ZM7 3.5C7 3.26794 7.09219 3.04538 7.25628 2.88128C7.42038 2.71719 7.64294 2.625 7.875 2.625H9.625V0.875C9.625 0.642936 9.71719 0.420376 9.88128 0.256282C10.0454 0.0921872 10.2679 0 10.5 0C10.7321 0 10.9546 0.0921872 11.1187 0.256282C11.2828 0.420376 11.375 0.642936 11.375 0.875V2.625H13.125C13.3571 2.625 13.5796 2.71719 13.7437 2.88128C13.9078 3.04538 14 3.26794 14 3.5C14 3.73206 13.9078 3.95462 13.7437 4.11872C13.5796 4.28281 13.3571 4.375 13.125 4.375H11.375V6.125C11.375 6.35706 11.2828 6.57962 11.1187 6.74372C10.9546 6.90781 10.7321 7 10.5 7C10.2679 7 10.0454 6.90781 9.88128 6.74372C9.71719 6.57962 9.625 6.35706 9.625 6.125V4.375H7.875C7.64294 4.375 7.42038 4.28281 7.25628 4.11872C7.09219 3.95462 7 3.73206 7 3.5Z" fill="var(--fill-0, #A90831)"/>
</svg>
