<svg preserveAspectRatio="xMidYMid meet" width="100%" height="100%" overflow="visible" style="display: block;" viewBox="0 0 29.994 22.0053" fill="none" xmlns="http://www.w3.org/2000/svg">
<path id="Vector" d="M15.9934 15.715C17.561 14.7386 18.768 13.2783 19.4318 11.5548C20.0955 9.83142 20.1799 7.93871 19.6721 6.16307C19.1644 4.38742 18.0921 2.82545 16.6176 1.71347C15.1431 0.60149 13.3465 0 11.4997 0C9.65286 0 7.85629 0.60149 6.38176 1.71347C4.90724 2.82545 3.83499 4.38742 3.32724 6.16307C2.81949 7.93871 2.90386 9.83142 3.56759 11.5548C4.23133 13.2783 5.4383 14.7386 7.00593 15.715C4.42468 16.56 2.10218 18.1387 0.234676 20.3612C0.0639424 20.5643 -0.0191342 20.8269 0.00372183 21.0912C0.0265778 21.3555 0.153494 21.5999 0.356551 21.7706C0.559607 21.9414 0.82217 22.0244 1.08648 22.0016C1.35079 21.9787 1.59519 21.8518 1.76593 21.6487C4.27468 18.6537 7.73218 17.005 11.4934 17.005C15.2547 17.005 18.7122 18.6537 21.2272 21.6487C21.3979 21.8518 21.6423 21.9787 21.9066 22.0016C22.1709 22.0244 22.4335 21.9414 22.6366 21.7706C22.8396 21.5999 22.9665 21.3555 22.9894 21.0912C23.0122 20.8269 22.9292 20.5643 22.7584 20.3612C20.8909 18.1387 18.5684 16.56 15.9934 15.715ZM4.99343 8.505C4.99343 7.21942 5.37464 5.96271 6.08887 4.89379C6.8031 3.82487 7.81826 2.99175 9.00598 2.49978C10.1937 2.00781 11.5006 1.87909 12.7615 2.12989C14.0224 2.3807 15.1806 2.99976 16.0896 3.9088C16.9987 4.81785 17.6177 5.97604 17.8685 7.23691C18.1193 8.49779 17.9906 9.80472 17.4986 10.9924C17.0067 12.1802 16.1736 13.1953 15.1046 13.9096C14.0357 14.6238 12.779 15.005 11.4934 15.005C9.77013 15.003 8.11798 14.3176 6.89942 13.099C5.68087 11.8804 4.99541 10.2283 4.99343 8.505ZM29.7009 12.7125L25.7009 16.7125C25.6081 16.8055 25.4978 16.8792 25.3764 16.9296C25.255 16.9799 25.1248 17.0058 24.9934 17.0058C24.862 17.0058 24.7319 16.9799 24.6105 16.9296C24.4891 16.8792 24.3788 16.8055 24.2859 16.7125L22.2859 14.7125C22.0983 14.5249 21.9929 14.2704 21.9929 14.005C21.9929 13.7396 22.0983 13.4851 22.2859 13.2975C22.4736 13.1099 22.7281 13.0044 22.9934 13.0044C23.2588 13.0044 23.5133 13.1099 23.7009 13.2975L24.9934 14.5912L28.2859 11.2975C28.4736 11.1099 28.7281 11.0044 28.9934 11.0044C29.2588 11.0044 29.5133 11.1099 29.7009 11.2975C29.8886 11.4851 29.994 11.7396 29.994 12.005C29.994 12.2704 29.8886 12.5249 29.7009 12.7125Z" fill="var(--fill-0, #A90831)"/>
</svg>
