<svg preserveAspectRatio="xMidYMid meet" width="100%" height="100%" overflow="visible" style="display: block;" viewBox="0 0 38.5 45.5" fill="none" xmlns="http://www.w3.org/2000/svg">
<path id="Vector" d="M37.9881 9.26188L29.2381 0.511876C29.0755 0.349415 28.8824 0.220591 28.67 0.132762C28.4575 0.0449327 28.2299 -0.000180225 28 5.41097e-07H10.5C9.57174 5.41097e-07 8.6815 0.368749 8.02513 1.02513C7.36875 1.6815 7 2.57174 7 3.5V7H3.5C2.57174 7 1.6815 7.36875 1.02513 8.02513C0.368749 8.6815 0 9.57174 0 10.5V42C0 42.9283 0.368749 43.8185 1.02513 44.4749C1.6815 45.1313 2.57174 45.5 3.5 45.5H28C28.9283 45.5 29.8185 45.1313 30.4749 44.4749C31.1313 43.8185 31.5 42.9283 31.5 42V38.5H35C35.9283 38.5 36.8185 38.1313 37.4749 37.4749C38.1313 36.8185 38.5 35.9283 38.5 35V10.5C38.5002 10.2701 38.4551 10.0425 38.3672 9.83001C38.2794 9.61757 38.1506 9.42452 37.9881 9.26188ZM28 42H3.5V10.5H20.2759L28 18.2241V36.715C28 36.7281 28 36.7391 28 36.75C28 36.7609 28 36.7719 28 36.785V42ZM35 35H31.5V17.5C31.5002 17.2701 31.4551 17.0425 31.3672 16.83C31.2794 16.6176 31.1506 16.4245 30.9881 16.2619L22.2381 7.51188C22.0755 7.34942 21.8824 7.22059 21.67 7.13276C21.4575 7.04493 21.2299 6.99982 21 7H10.5V3.5H27.2759L35 11.2241V35ZM22.75 28C22.75 28.4641 22.5656 28.9092 22.2374 29.2374C21.9092 29.5656 21.4641 29.75 21 29.75H10.5C10.0359 29.75 9.59075 29.5656 9.26256 29.2374C8.93437 28.9092 8.75 28.4641 8.75 28C8.75 27.5359 8.93437 27.0908 9.26256 26.7626C9.59075 26.4344 10.0359 26.25 10.5 26.25H21C21.4641 26.25 21.9092 26.4344 22.2374 26.7626C22.5656 27.0908 22.75 27.5359 22.75 28ZM22.75 35C22.75 35.4641 22.5656 35.9092 22.2374 36.2374C21.9092 36.5656 21.4641 36.75 21 36.75H10.5C10.0359 36.75 9.59075 36.5656 9.26256 36.2374C8.93437 35.9092 8.75 35.4641 8.75 35C8.75 34.5359 8.93437 34.0908 9.26256 33.7626C9.59075 33.4344 10.0359 33.25 10.5 33.25H21C21.4641 33.25 21.9092 33.4344 22.2374 33.7626C22.5656 34.0908 22.75 34.5359 22.75 35Z" fill="#A90831"/>
</svg>
