<svg preserveAspectRatio="xMidYMid meet" width="100%" height="100%" overflow="visible" style="display: block;" viewBox="0 0 42 51.3333" fill="none" xmlns="http://www.w3.org/2000/svg">
<path id="Vector" d="M2.33333 43.1667V8.16667C2.33333 6.61957 2.94792 5.13584 4.04188 4.04188C5.13584 2.94792 6.61957 2.33333 8.16667 2.33333H37.3333C37.9522 2.33333 38.5457 2.57917 38.9833 3.01675C39.4208 3.45434 39.6667 4.04783 39.6667 4.66667V46.6667C39.6667 47.2855 39.4208 47.879 38.9833 48.3166C38.5457 48.7542 37.9522 49 37.3333 49H8.16667C6.61957 49 5.13584 48.3854 4.04188 47.2915C2.94792 46.1975 2.33333 44.7138 2.33333 43.1667ZM2.33333 43.1667C2.33333 41.6196 2.94792 40.1358 4.04188 39.0419C5.13584 37.9479 6.61957 37.3333 8.16667 37.3333H39.6667M14 19.8333L18.6667 24.5L28 15.1667" stroke="white" stroke-width="4.66667" stroke-linecap="round" stroke-linejoin="round"/>
</svg>
