<svg preserveAspectRatio="xMidYMid meet" width="100%" height="100%" overflow="visible" style="display: block;" viewBox="0 0 19.25 24.4998" fill="none" xmlns="http://www.w3.org/2000/svg">
<path id="Vector" d="M9.625 5.25C8.75971 5.25 7.91385 5.50659 7.19438 5.98732C6.47492 6.46805 5.91416 7.15133 5.58303 7.95076C5.25189 8.75019 5.16525 9.62985 5.33406 10.4785C5.50287 11.3272 5.91955 12.1067 6.53141 12.7186C7.14326 13.3304 7.92281 13.7471 8.77148 13.9159C9.62015 14.0847 10.4998 13.9981 11.2992 13.667C12.0987 13.3358 12.7819 12.7751 13.2627 12.0556C13.7434 11.3362 14 10.4903 14 9.625C14 8.46468 13.5391 7.35188 12.7186 6.53141C11.8981 5.71094 10.7853 5.25 9.625 5.25ZM9.625 12.25C9.10582 12.25 8.59831 12.096 8.16663 11.8076C7.73495 11.5192 7.3985 11.1092 7.19982 10.6295C7.00114 10.1499 6.94915 9.62209 7.05044 9.11289C7.15172 8.60369 7.40173 8.13596 7.76884 7.76884C8.13596 7.40173 8.60369 7.15172 9.11289 7.05044C9.62209 6.94915 10.1499 7.00114 10.6295 7.19982C11.1092 7.3985 11.5192 7.73495 11.8076 8.16663C12.096 8.59831 12.25 9.10582 12.25 9.625C12.25 10.3212 11.9734 10.9889 11.4812 11.4812C10.9889 11.9734 10.3212 12.25 9.625 12.25ZM9.625 0C7.07318 0.00289486 4.6267 1.01788 2.82229 2.82229C1.01788 4.62671 0.00289486 7.07318 0 9.625C0 13.0594 1.58703 16.6994 4.59375 20.1523C5.94477 21.7126 7.46534 23.1177 9.12734 24.3414C9.27447 24.4445 9.44974 24.4998 9.62937 24.4998C9.809 24.4998 9.98428 24.4445 10.1314 24.3414C11.7904 23.1172 13.308 21.7122 14.6562 20.1523C17.6586 16.6994 19.25 13.0594 19.25 9.625C19.2471 7.07318 18.2321 4.62671 16.4277 2.82229C14.6233 1.01788 12.1768 0.00289486 9.625 0ZM9.625 22.5312C7.81703 21.1094 1.75 15.8867 1.75 9.625C1.75 7.53642 2.57969 5.53338 4.05653 4.05653C5.53338 2.57969 7.53642 1.75 9.625 1.75C11.7136 1.75 13.7166 2.57969 15.1935 4.05653C16.6703 5.53338 17.5 7.53642 17.5 9.625C17.5 15.8845 11.433 21.1094 9.625 22.5312Z" fill="var(--fill-0, #A90831)"/>
</svg>
