<svg preserveAspectRatio="none" width="100%" height="100%" overflow="visible" style="display: block;" viewBox="0 0 51.3333 51.3333" fill="none" xmlns="http://www.w3.org/2000/svg">
<path id="Vector" d="M25.6667 32.6667L30.3333 37.3333L39.6667 28M7 35C4.43333 35 2.33333 32.9 2.33333 30.3333V7C2.33333 4.43333 4.43333 2.33333 7 2.33333H30.3333C32.9 2.33333 35 4.43333 35 7M21 16.3333H44.3333C46.9107 16.3333 49 18.4227 49 21V44.3333C49 46.9107 46.9107 49 44.3333 49H21C18.4227 49 16.3333 46.9107 16.3333 44.3333V21C16.3333 18.4227 18.4227 16.3333 21 16.3333Z" stroke="#A90831" stroke-width="4.66667" stroke-linecap="round" stroke-linejoin="round"/>
</svg>
