<svg preserveAspectRatio="none" width="100%" height="100%" overflow="visible" style="display: block;" viewBox="0 0 45.5331 43.7682" fill="none" xmlns="http://www.w3.org/2000/svg">
<path id="Vector" d="M38.5331 28C36.9863 27.9992 35.4832 28.5133 34.2609 29.4612L29.2056 25.5237C29.5872 24.6488 29.7838 23.7045 29.7831 22.75C29.7831 22.5881 29.7831 22.4262 29.7656 22.2665L32.6596 21.3018C33.5752 22.714 34.9689 23.749 36.5855 24.2172C38.202 24.6855 39.9331 24.5556 41.4617 23.8515C42.9903 23.1474 44.2141 21.9161 44.9088 20.3832C45.6035 18.8504 45.7228 17.1185 45.2446 15.5049C44.7665 13.8912 43.723 12.5039 42.3053 11.597C40.8876 10.69 39.1906 10.3242 37.5251 10.5665C35.8597 10.8089 34.3373 11.6431 33.2369 12.9165C32.1364 14.1898 31.5315 15.817 31.5331 17.5C31.5331 17.6618 31.5331 17.8237 31.5506 17.9834L28.6565 18.9481C28.0221 17.9673 27.1523 17.1609 26.1264 16.6023C25.1005 16.0437 23.9512 15.7507 22.7831 15.75C22.3968 15.7508 22.0113 15.783 21.6303 15.8462L20.134 12.4687C21.426 11.4364 22.3108 9.98005 22.6315 8.35772C22.9523 6.73538 22.6883 5.05188 21.8864 3.60559C21.0844 2.1593 19.7964 1.04362 18.2504 0.456312C16.7045 -0.130998 15.0006 -0.152015 13.4406 0.396987C11.8807 0.945988 10.5655 2.02955 9.72811 3.45562C8.89075 4.8817 8.58533 6.55818 8.86598 8.18793C9.14663 9.81768 9.99521 11.2954 11.2613 12.3593C12.5275 13.4231 14.1293 14.0044 15.7831 14C16.1693 13.9992 16.5549 13.967 16.9359 13.9037L18.4321 17.2725C17.1633 18.2767 16.2826 19.6905 15.9407 21.2721C15.5988 22.8537 15.8168 24.505 16.5574 25.9437L10.9334 30.94C9.51803 29.9858 7.80328 29.5806 6.11053 29.8003C4.41779 30.02 2.86328 30.8495 1.73837 32.1333C0.613467 33.4171 -0.00459879 35.0672 2.57649e-05 36.7741C0.00465032 38.481 0.631648 40.1277 1.76349 41.4054C2.89534 42.6831 4.45432 43.5042 6.14823 43.7147C7.84214 43.9252 9.55467 43.5107 10.9648 42.5489C12.375 41.5871 13.386 40.144 13.8082 38.4901C14.2305 36.8362 14.0351 35.0851 13.2587 33.565L18.8828 28.5687C20.1005 29.3886 21.5457 29.8037 23.0129 29.755C24.4801 29.7063 25.8946 29.1963 27.0553 28.2975L32.1106 32.235C31.7301 33.1072 31.5335 34.0484 31.5331 35C31.5331 36.3844 31.9436 37.7378 32.7128 38.889C33.482 40.0401 34.5752 40.9373 35.8543 41.4671C37.1334 41.9969 38.5408 42.1356 39.8987 41.8655C41.2566 41.5954 42.5038 40.9287 43.4828 39.9497C44.4618 38.9708 45.1285 37.7235 45.3986 36.3656C45.6687 35.0077 45.53 33.6003 45.0002 32.3212C44.4704 31.0421 43.5732 29.9489 42.4221 29.1797C41.2709 28.4105 39.9175 28 38.5331 28ZM38.5331 14C39.2253 14 39.902 14.2052 40.4776 14.5898C41.0531 14.9744 41.5017 15.521 41.7666 16.1606C42.0316 16.8001 42.1009 17.5039 41.9658 18.1828C41.8308 18.8617 41.4974 19.4854 41.0079 19.9748C40.5185 20.4643 39.8948 20.7977 39.2159 20.9327C38.537 21.0678 37.8332 20.9985 37.1937 20.7336C36.5541 20.4686 36.0075 20.02 35.6229 19.4445C35.2383 18.8689 35.0331 18.1922 35.0331 17.5C35.0331 16.5717 35.4018 15.6815 36.0582 15.0251C36.7146 14.3687 37.6048 14 38.5331 14ZM12.2831 6.99998C12.2831 6.30774 12.4883 5.63105 12.8729 5.05548C13.2575 4.47991 13.8041 4.0313 14.4437 3.7664C15.0832 3.50149 15.787 3.43218 16.4659 3.56723C17.1448 3.70227 17.7685 4.03562 18.2579 4.5251C18.7474 5.01459 19.0808 5.63823 19.2158 6.31716C19.3509 6.99609 19.2816 7.69983 19.0166 8.33937C18.7517 8.97891 18.3031 9.52553 17.7276 9.91012C17.152 10.2947 16.4753 10.5 15.7831 10.5C14.8548 10.5 13.9646 10.1312 13.3082 9.47485C12.6518 8.81847 12.2831 7.92823 12.2831 6.99998ZM7.03307 40.25C6.34083 40.25 5.66414 40.0447 5.08857 39.6601C4.513 39.2755 4.0644 38.7289 3.79949 38.0894C3.53458 37.4498 3.46527 36.7461 3.60032 36.0672C3.73537 35.3882 4.06871 34.7646 4.55819 34.2751C5.04768 33.7856 5.67132 33.4523 6.35025 33.3172C7.02919 33.1822 7.73292 33.2515 8.37246 33.5164C9.012 33.7813 9.55863 34.2299 9.94321 34.8055C10.3278 35.3811 10.5331 36.0577 10.5331 36.75C10.5331 37.6782 10.1643 38.5685 9.50794 39.2248C8.85156 39.8812 7.96133 40.25 7.03307 40.25ZM19.2831 22.75C19.2831 22.0577 19.4883 21.3811 19.8729 20.8055C20.2575 20.2299 20.8041 19.7813 21.4437 19.5164C22.0832 19.2515 22.787 19.1822 23.4659 19.3172C24.1448 19.4523 24.7685 19.7856 25.2579 20.2751C25.7474 20.7646 26.0808 21.3882 26.2158 22.0672C26.3509 22.7461 26.2816 23.4498 26.0166 24.0894C25.7517 24.7289 25.3031 25.2755 24.7276 25.6601C24.152 26.0447 23.4753 26.25 22.7831 26.25C21.8548 26.25 20.9646 25.8812 20.3082 25.2248C19.6518 24.5685 19.2831 23.6782 19.2831 22.75ZM38.5331 38.5C37.8408 38.5 37.1641 38.2947 36.5886 37.9101C36.013 37.5255 35.5644 36.9789 35.2995 36.3394C35.0346 35.6998 34.9653 34.9961 35.1003 34.3172C35.2354 33.6382 35.5687 33.0146 36.0582 32.5251C36.5477 32.0356 37.1713 31.7023 37.8503 31.5672C38.5292 31.4322 39.2329 31.5015 39.8725 31.7664C40.512 32.0313 41.0586 32.4799 41.4432 33.0555C41.8278 33.6311 42.0331 34.3077 42.0331 35C42.0331 35.9282 41.6643 36.8185 41.0079 37.4748C40.3516 38.1312 39.4613 38.5 38.5331 38.5Z" fill="#A90831"/>
</svg>
