<svg preserveAspectRatio="none" width="100%" height="100%" overflow="visible" style="display: block;" viewBox="0 0 35.1035 35.0962" fill="none" xmlns="http://www.w3.org/2000/svg">
<g id="Icon container">
<path id="Path 9346" d="M6.46484 22.8528V10.8906H9.73075V15.5454H14.0751V10.8906H17.3409V18.7078C16.3509 18.7743 15.4273 19.0919 14.7032 19.8012C14.4594 20.0451 14.2452 20.3185 14.0826 20.6214V17.9837H9.73075V22.8528H6.46484V22.8528Z" fill="var(--fill-0, #AB3347)"/>
<path id="Path 9347" d="M17.9922 10.8906H21.2581V17.7546C21.2652 18.0871 21.2803 18.3531 21.3021 18.5527C21.3097 18.5969 21.317 18.6485 21.3243 18.6929H21.317C21.3541 18.9663 21.428 19.2324 21.524 19.4835C21.657 19.7865 21.886 20.0377 22.1814 20.1855C22.4699 20.3258 22.7874 20.4071 23.1129 20.4146H23.519C23.8366 20.4071 24.1544 20.3258 24.4498 20.1855C24.7455 20.0377 24.9745 19.7865 25.1002 19.4835C25.2035 19.2324 25.2699 18.9663 25.307 18.6929V18.6929C25.3145 18.6485 25.3145 18.5969 25.3218 18.5527C25.3438 18.3531 25.3663 18.0871 25.3736 17.7546V10.8906H28.6393V17.9837C28.6393 18.6708 28.5728 19.4394 28.3954 20.119C28.2552 20.71 27.982 21.2568 27.5974 21.7149C27.1911 22.2026 26.6294 22.5646 25.9204 22.8085C25.3438 23.0006 24.6715 23.1187 23.9032 23.1557H22.7209C22.418 23.1409 22.1079 23.1113 21.7972 23.067C21.8489 22.8307 21.8787 22.5868 21.8787 22.3428C21.8787 21.2864 21.5167 20.3702 20.7111 19.6757C19.9505 19.0107 19.0044 18.7447 18.0146 18.7004C17.9998 18.4565 17.9922 18.2127 17.9922 17.9837V10.8906Z" fill="var(--fill-0, #AB3347)"/>
<path id="Path 9348" d="M21.2499 29.1482H13.7578L18.1614 23.9319C18.3905 23.6736 18.5899 23.3782 18.7525 23.0748C18.8707 22.8533 18.9298 22.6023 18.9448 22.3511C18.9448 22.0107 18.8338 21.7303 18.6195 21.5089C18.3978 21.2943 18.1172 21.1839 17.7623 21.1839C17.3412 21.1839 17.0161 21.3239 16.7944 21.5898C16.5729 21.8559 16.4621 22.2479 16.4545 22.7574V22.8758H14.0976V22.8091C14.0976 21.7008 14.4227 20.8217 15.0729 20.1858C15.7232 19.5428 16.6099 19.2256 17.7403 19.2256C18.8411 19.2256 19.7131 19.5064 20.3632 20.0748C21.0207 20.644 21.3459 21.3974 21.3459 22.336C21.3459 22.8012 21.2351 23.2598 21.0356 23.6809C20.8286 24.1171 20.4889 24.5896 20.0159 25.114L18.25 27.0576H21.2499V29.1482Z" fill="var(--fill-0, #696B6C)"/>
<path id="Path 9349" d="M17.7402 0C27.3454 0.103441 35.1035 7.92065 35.1035 17.5481H33.8992C33.8992 8.51913 26.577 1.20435 17.5481 1.20435V0H17.7402ZM17.5481 35.0962C7.85415 35.0962 0 27.242 0 17.5481H1.20435C1.20435 26.577 8.51913 33.8918 17.5481 33.8918V35.0962Z" fill="var(--fill-0, #696B6C)"/>
</g>
</svg>
