<svg preserveAspectRatio="none" width="100%" height="100%" overflow="visible" style="display: block;" viewBox="0 0 850.303 688.843" fill="none" xmlns="http://www.w3.org/2000/svg">
<g id="Graphics block" opacity="0.8">
<path id="Vector (Stroke)" opacity="0.4" fill-rule="evenodd" clip-rule="evenodd" d="M126.351 155.919V122.979H126.818V155.919H145.045V122.979H145.513V155.919H163.74V122.979H164.207V155.919L182.434 155.919V122.979H182.902V155.919H201.129V122.979H201.596V155.919H219.823V122.979H220.291V155.919H238.518V122.979H238.985V155.919H257.212V122.979H257.68V155.919H275.907V122.979H276.374V155.919H294.601V122.979H295.068V155.919L313.295 155.919V122.979H313.763V155.919H331.99V122.979H332.457V155.919H350.684V122.979H351.152V155.919H369.379V122.979H369.846V155.919L388.073 155.919V122.979H388.541V155.919H406.768V122.979H407.235V155.919L425.462 155.919V122.979H425.929V155.919H444.157V122.979H444.624V155.919H462.851V122.979H463.318V155.919H481.545V122.979H482.013V155.919L500.24 155.919V122.979H500.707V155.919H518.934V122.979H519.402V155.919L537.629 155.919V122.979H538.096V155.919H556.323V122.979H556.791V155.919H575.018V122.979H575.485V155.919H593.712V122.979H594.18V155.919H612.407V122.979H612.874V155.919L631.101 155.919V122.979H631.568V155.919H649.796V122.979H650.263V155.919L668.49 155.919V122.979H668.957V155.919H687.184V122.979H687.652V155.919L705.879 155.919V122.979H706.346V155.919H754.484V156.441L706.346 156.441V176.833H754.484V177.356H706.346V197.747H754.484V198.27H706.346V218.662H754.484V219.185H706.346V239.576H754.484V240.099H706.346V260.491H754.484V261.013H706.346V281.405H754.484V281.928H706.346V302.319H754.484V302.842H706.346V323.234H754.484V323.756H706.346V344.148H754.484V344.671H706.346V365.062H754.484V365.585H706.346V385.977H754.484V386.5H706.346V406.891H754.484V407.414H706.346V427.805H754.484V428.328H706.346V448.72H754.484V449.243H706.346V469.634H754.484V470.157H706.346V490.549H754.484V491.071H706.346V511.463H754.484V511.986H706.346V532.377H754.484V532.9H706.346V553.292H754.484V553.815H706.346V586.232H705.879V553.815H687.652V586.232H687.184V553.815H668.957V586.232H668.49V553.815H650.263V586.232H649.796V553.815H631.568V586.232H631.101V553.815H612.874V586.232H612.407V553.815H594.18V586.232H593.712V553.815H575.485V586.232H575.018V553.815H556.791V586.232H556.323V553.815H538.096V586.232H537.629V553.815H519.402V586.232H518.934V553.815H500.707V586.232H500.24V553.815H482.013V586.232H481.545V553.815H463.318V586.232H462.851V553.815H444.624V586.232H444.157V553.815H425.929V586.232H425.462V553.815H407.235V586.232H406.768V553.815H388.541V586.232H388.073V553.815H369.846V586.232H369.379V553.815H351.152V586.232H350.684V553.815H332.457V586.232H331.99V553.815H313.763V586.232H313.295V553.815H295.068V586.232H294.601V553.815H276.374V586.232H275.907V553.815H257.679V586.232H257.212V553.815H238.985V586.232H238.518V553.815H220.291V586.232H219.823V553.815H201.596V586.232H201.129V553.815H182.902V586.232H182.434V553.815H164.207V586.232H163.74V553.815H145.513V586.232H145.045V553.815H126.818V586.232H126.351V553.815H81.4844V553.292H126.351V532.9H81.4844V532.377H126.351L126.351 511.986H81.4844V511.463H126.351V491.071H81.4844V490.549H126.351V470.157H81.4844V469.634H126.351V449.243H81.4844V448.72H126.351V428.328H81.4844V427.805H126.351L126.351 407.414H81.4844V406.891H126.351V386.5H81.4844V385.977H126.351V365.585H81.4844V365.062H126.351V344.671H81.4844V344.148H126.351V323.756H81.4844V323.234H126.351V302.842H81.4844V302.319H126.351L126.351 281.928H81.4844V281.405H126.351V261.013H81.4844V260.49H126.351V240.099H81.4844V239.576H126.351V219.185H81.4844V218.662H126.351V198.27H81.4844V197.747H126.351L126.351 177.356L81.4844 177.356V176.833L126.351 176.833V156.441L81.4844 156.441V155.919L126.351 155.919ZM126.818 156.441V176.833H145.045V156.441H126.818ZM145.513 156.441V176.833H163.74V156.441H145.513ZM164.207 156.441V176.833H182.434V156.441L164.207 156.441ZM182.902 156.441V176.833H201.129V156.441H182.902ZM201.596 156.441V176.833H219.823V156.441H201.596ZM220.291 156.441V176.833H238.518V156.441H220.291ZM238.985 156.441V176.833H257.212V156.441H238.985ZM257.68 156.441V176.833L275.907 176.833V156.441H257.68ZM276.374 156.441V176.833H294.601V156.441H276.374ZM295.068 156.441V176.833H313.295V156.441L295.068 156.441ZM313.763 156.441V176.833H331.99V156.441H313.763ZM332.457 156.441V176.833L350.684 176.833V156.441L332.457 156.441ZM351.152 156.441V176.833H369.379V156.441H351.152ZM369.846 156.441V176.833H388.073V156.441L369.846 156.441ZM388.541 156.441V176.833H406.768V156.441H388.541ZM407.235 156.441V176.833H425.462V156.441H407.235ZM425.929 156.441V176.833H444.157V156.441H425.929ZM444.624 156.441V176.833H462.851V156.441L444.624 156.441ZM463.318 156.441V176.833H481.545V156.441H463.318ZM482.013 156.441V176.833L500.24 176.833V156.441L482.013 156.441ZM500.707 156.441V176.833H518.934V156.441H500.707ZM519.402 156.441V176.833H537.629V156.441H519.402ZM538.096 156.441V176.833H556.323V156.441H538.096ZM556.791 156.441V176.833L575.018 176.833V156.441H556.791ZM575.485 156.441V176.833H593.712V156.441L575.485 156.441ZM594.18 156.441V176.833H612.407V156.441H594.18ZM612.874 156.441V176.833H631.101V156.441L612.874 156.441ZM631.568 156.441V176.833L649.796 176.833V156.441H631.568ZM650.263 156.441V176.833H668.49V156.441H650.263ZM668.957 156.441V176.833H687.184V156.441H668.957ZM687.652 156.441V176.833H705.879V156.441L687.652 156.441ZM705.879 177.356H687.652V197.747H705.879V177.356ZM705.879 198.27H687.652V218.662H705.879V198.27ZM705.879 219.185H687.652V239.576H705.879V219.185ZM705.879 240.099H687.652V260.491H705.879V240.099ZM705.879 261.013H687.652V281.405H705.879V261.013ZM705.879 281.928H687.652V302.319H705.879V281.928ZM705.879 302.842H687.652V323.234H705.879V302.842ZM705.879 323.756H687.652V344.148H705.879V323.756ZM705.879 344.671H687.652V365.062H705.879V344.671ZM705.879 365.585H687.652V385.977H705.879V365.585ZM705.879 386.5H687.652V406.891H705.879V386.5ZM705.879 407.414H687.652V427.805H705.879V407.414ZM705.879 428.328H687.652V448.72H705.879V428.328ZM705.879 449.243H687.652V469.634H705.879V449.243ZM705.879 470.157H687.652V490.549H705.879V470.157ZM705.879 491.071H687.652V511.463H705.879V491.071ZM705.879 511.986H687.652V532.377H705.879V511.986ZM705.879 532.9H687.652V553.292H705.879V532.9ZM687.184 553.292V532.9H668.957V553.292H687.184ZM668.49 553.292V532.9H650.263V553.292H668.49ZM649.796 553.292V532.9H631.568V553.292H649.796ZM631.101 553.292V532.9H612.874V553.292H631.101ZM612.407 553.292V532.9H594.18V553.292H612.407ZM593.712 553.292V532.9H575.485V553.292H593.712ZM575.018 553.292V532.9H556.791V553.292H575.018ZM556.323 553.292V532.9H538.096V553.292H556.323ZM537.629 553.292V532.9H519.402V553.292H537.629ZM518.934 553.292V532.9H500.707V553.292H518.934ZM500.24 553.292V532.9H482.013V553.292H500.24ZM481.545 553.292V532.9H463.318V553.292H481.545ZM462.851 553.292V532.9H444.624V553.292H462.851ZM444.157 553.292V532.9H425.929V553.292H444.157ZM425.462 553.292V532.9L407.235 532.9V553.292L425.462 553.292ZM406.768 553.292V532.9H388.541V553.292H406.768ZM388.073 553.292V532.9H369.846V553.292H388.073ZM369.379 553.292V532.9H351.152V553.292H369.379ZM350.684 553.292V532.9H332.457V553.292H350.684ZM331.99 553.292V532.9H313.763V553.292H331.99ZM313.295 553.292V532.9H295.068V553.292H313.295ZM294.601 553.292V532.9H276.374V553.292H294.601ZM275.907 553.292V532.9H257.679V553.292H275.907ZM257.212 553.292V532.9H238.985V553.292H257.212ZM238.518 553.292V532.9H220.291V553.292H238.518ZM219.823 553.292V532.9H201.596V553.292H219.823ZM201.129 553.292V532.9H182.902V553.292H201.129ZM182.434 553.292V532.9H164.207V553.292H182.434ZM163.74 553.292V532.9H145.513V553.292H163.74ZM145.045 553.292V532.9H126.818V553.292H145.045ZM126.818 532.377H145.045V511.986H126.818L126.818 532.377ZM126.818 511.463H145.045V491.071H126.818V511.463ZM126.818 490.549H145.045L145.045 470.157H126.818V490.549ZM126.818 469.634H145.045V449.243H126.818V469.634ZM126.818 448.72H145.045V428.328H126.818V448.72ZM126.818 427.805H145.045V407.414H126.818L126.818 427.805ZM126.818 406.891H145.045V386.5H126.818V406.891ZM126.818 385.977H145.045V365.585H126.818V385.977ZM126.818 365.062H145.045V344.671H126.818V365.062ZM126.818 344.148H145.045V323.756H126.818V344.148ZM126.818 323.234H145.045V302.842H126.818V323.234ZM126.818 302.319H145.045V281.928H126.818L126.818 302.319ZM126.818 281.405H145.045V261.013H126.818V281.405ZM126.818 260.49H145.045V240.099H126.818V260.49ZM126.818 239.576H145.045L145.045 219.185H126.818V239.576ZM126.818 218.662H145.045V198.27H126.818V218.662ZM126.818 197.747H145.045V177.356H126.818L126.818 197.747ZM145.513 177.356V197.747H163.74V177.356H145.513ZM164.207 177.356V197.747L182.434 197.747V177.356H164.207ZM182.902 177.356V197.747H201.129V177.356H182.902ZM201.596 177.356V197.747H219.823V177.356H201.596ZM220.291 177.356V197.747H238.518V177.356H220.291ZM238.985 177.356V197.747H257.212V177.356H238.985ZM257.68 177.356V197.747H275.907V177.356L257.68 177.356ZM276.374 177.356V197.747H294.601V177.356H276.374ZM295.068 177.356V197.747H313.295V177.356H295.068ZM313.763 177.356V197.747H331.99V177.356H313.763ZM332.457 177.356V197.747L350.684 197.747V177.356L332.457 177.356ZM351.152 177.356V197.747H369.379V177.356H351.152ZM369.846 177.356V197.747H388.073V177.356H369.846ZM388.541 177.356V197.747H406.768V177.356H388.541ZM407.235 177.356V197.747H425.462V177.356H407.235ZM425.929 177.356V197.747H444.157V177.356H425.929ZM444.624 177.356V197.747H462.851V177.356H444.624ZM463.318 177.356V197.747H481.545V177.356H463.318ZM482.013 177.356V197.747H500.24V177.356L482.013 177.356ZM500.707 177.356V197.747L518.934 197.747V177.356H500.707ZM519.402 177.356V197.747H537.629V177.356H519.402ZM538.096 177.356V197.747H556.323V177.356H538.096ZM556.791 177.356V197.747H575.018V177.356L556.791 177.356ZM575.485 177.356V197.747H593.712V177.356H575.485ZM594.18 177.356V197.747H612.407V177.356H594.18ZM612.874 177.356V197.747H631.101V177.356H612.874ZM631.568 177.356V197.747H649.796V177.356L631.568 177.356ZM650.263 177.356V197.747H668.49V177.356H650.263ZM668.957 177.356V197.747L687.184 197.747V177.356H668.957ZM687.184 198.27L668.957 198.27V218.662L687.184 218.662V198.27ZM687.184 219.185L668.957 219.185V239.576L687.184 239.576V219.185ZM687.184 240.099L668.957 240.099V260.491H687.184V240.099ZM687.184 261.013H668.957V281.405H687.184V261.013ZM687.184 281.928H668.957V302.319H687.184V281.928ZM687.184 302.842H668.957V323.234H687.184V302.842ZM687.184 323.756H668.957V344.148H687.184V323.756ZM687.184 344.671H668.957V365.062H687.184V344.671ZM687.184 365.585H668.957V385.977H687.184V365.585ZM687.184 386.5H668.957V406.891H687.184V386.5ZM687.184 407.414H668.957V427.805H687.184V407.414ZM687.184 428.328H668.957V448.72H687.184V428.328ZM687.184 449.243H668.957V469.634H687.184V449.243ZM687.184 470.157H668.957V490.549H687.184V470.157ZM687.184 491.071H668.957V511.463H687.184V491.071ZM687.184 511.986H668.957V532.377H687.184V511.986ZM668.49 532.377V511.986H650.263V532.377H668.49ZM649.796 532.377V511.986H631.568V532.377H649.796ZM631.101 532.377V511.986H612.874V532.377H631.101ZM612.407 532.377V511.986H594.18V532.377H612.407ZM593.712 532.377V511.986H575.485V532.377H593.712ZM575.018 532.377V511.986H556.791V532.377H575.018ZM556.323 532.377V511.986H538.096V532.377H556.323ZM537.629 532.377V511.986H519.402V532.377H537.629ZM518.934 532.377V511.986H500.707V532.377H518.934ZM500.24 532.377V511.986H482.013V532.377H500.24ZM481.545 532.377V511.986H463.318V532.377H481.545ZM462.851 532.377V511.986H444.624V532.377H462.851ZM444.157 532.377V511.986H425.929V532.377H444.157ZM425.462 532.377V511.986L407.235 511.986V532.377L425.462 532.377ZM406.768 532.377V511.986H388.541V532.377H406.768ZM388.073 532.377V511.986H369.846V532.377H388.073ZM369.379 532.377V511.986H351.152V532.377H369.379ZM350.684 532.377V511.986H332.457V532.377H350.684ZM331.99 532.377V511.986H313.763V532.377H331.99ZM313.295 532.377V511.986H295.068V532.377H313.295ZM294.601 532.377V511.986H276.374V532.377H294.601ZM275.907 532.377V511.986H257.679V532.377H275.907ZM257.212 532.377V511.986H238.985V532.377H257.212ZM238.518 532.377V511.986H220.291V532.377H238.518ZM219.823 532.377V511.986H201.596V532.377H219.823ZM201.129 532.377V511.986H182.902V532.377H201.129ZM182.434 532.377V511.986H164.207V532.377H182.434ZM163.74 532.377V511.986H145.513V532.377H163.74ZM145.513 511.463H163.74V491.071H145.513V511.463ZM145.513 490.549H163.74L163.74 470.157H145.513L145.513 490.549ZM145.513 469.634H163.74V449.243H145.513V469.634ZM145.513 448.72H163.74V428.328H145.513V448.72ZM145.513 427.805H163.74V407.414H145.513V427.805ZM145.513 406.891H163.74V386.5H145.513V406.891ZM145.513 385.977H163.74V365.585H145.513V385.977ZM145.513 365.062H163.74V344.671H145.513V365.062ZM145.513 344.148H163.74V323.756H145.513V344.148ZM145.513 323.234H163.74V302.842H145.513V323.234ZM145.513 302.319H163.74V281.928H145.513V302.319ZM145.513 281.405H163.74V261.013H145.513V281.405ZM145.513 260.49H163.74V240.099H145.513V260.49ZM145.513 239.576H163.74L163.74 219.185H145.513L145.513 239.576ZM145.513 218.662H163.74V198.27H145.513V218.662ZM164.207 198.27V218.662L182.434 218.662V198.27L164.207 198.27ZM182.902 198.27V218.662H201.129V198.27H182.902ZM201.596 198.27V218.662H219.823V198.27H201.596ZM220.291 198.27V218.662H238.518V198.27H220.291ZM238.985 198.27V218.662H257.212V198.27H238.985ZM257.68 198.27V218.662H275.907V198.27H257.68ZM276.374 198.27V218.662H294.601V198.27H276.374ZM295.068 198.27V218.662H313.295V198.27H295.068ZM313.763 198.27V218.662H331.99V198.27H313.763ZM332.457 198.27V218.662L350.684 218.662V198.27L332.457 198.27ZM351.152 198.27V218.662H369.379V198.27H351.152ZM369.846 198.27V218.662H388.073V198.27H369.846ZM388.541 198.27V218.662H406.768V198.27H388.541ZM407.235 198.27V218.662H425.462V198.27H407.235ZM425.929 198.27V218.662H444.157V198.27H425.929ZM444.624 198.27V218.662H462.851V198.27H444.624ZM463.318 198.27V218.662H481.545V198.27H463.318ZM482.013 198.27V218.662H500.24V198.27H482.013ZM500.707 198.27V218.662L518.934 218.662V198.27L500.707 198.27ZM519.402 198.27V218.662H537.629V198.27H519.402ZM538.096 198.27V218.662H556.323V198.27H538.096ZM556.791 198.27V218.662H575.018V198.27H556.791ZM575.485 198.27V218.662H593.712V198.27H575.485ZM594.18 198.27V218.662H612.407V198.27H594.18ZM612.874 198.27V218.662H631.101V198.27H612.874ZM631.568 198.27V218.662H649.796V198.27H631.568ZM650.263 198.27V218.662H668.49V198.27H650.263ZM668.49 219.185H650.263V239.576H668.49V219.185ZM668.49 240.099H650.263V260.491H668.49V240.099ZM668.49 261.013H650.263V281.405H668.49V261.013ZM668.49 281.928H650.263V302.319H668.49V281.928ZM668.49 302.842H650.263V323.234H668.49V302.842ZM668.49 323.756H650.263V344.148H668.49V323.756ZM668.49 344.671H650.263V365.062H668.49V344.671ZM668.49 365.585H650.263V385.977H668.49V365.585ZM668.49 386.5H650.263V406.891H668.49V386.5ZM668.49 407.414H650.263V427.805H668.49V407.414ZM668.49 428.328H650.263V448.72H668.49V428.328ZM668.49 449.243H650.263V469.634H668.49V449.243ZM668.49 470.157H650.263V490.549H668.49V470.157ZM668.49 491.071H650.263V511.463H668.49V491.071ZM649.796 511.463V491.071H631.568V511.463H649.796ZM631.101 511.463V491.071H612.874V511.463H631.101ZM612.407 511.463V491.071H594.18V511.463H612.407ZM593.712 511.463V491.071H575.485V511.463H593.712ZM575.018 511.463V491.071H556.791V511.463H575.018ZM556.323 511.463V491.071H538.096V511.463H556.323ZM537.629 511.463V491.071H519.402V511.463H537.629ZM518.934 511.463V491.071H500.707V511.463H518.934ZM500.24 511.463V491.071H482.013V511.463H500.24ZM481.545 511.463V491.071H463.318V511.463H481.545ZM462.851 511.463V491.071H444.624V511.463H462.851ZM444.157 511.463V491.071H425.929V511.463H444.157ZM425.462 511.463V491.071L407.235 491.071V511.463L425.462 511.463ZM406.768 511.463V491.071H388.541V511.463H406.768ZM388.073 511.463V491.071H369.846V511.463H388.073ZM369.379 511.463V491.071H351.152V511.463H369.379ZM350.684 511.463V491.071H332.457V511.463H350.684ZM331.99 511.463V491.071H313.763V511.463H331.99ZM313.295 511.463V491.071H295.068V511.463H313.295ZM294.601 511.463V491.071H276.374V511.463H294.601ZM275.907 511.463V491.071H257.679V511.463H275.907ZM257.212 511.463V491.071H238.985V511.463H257.212ZM238.518 511.463V491.071H220.291V511.463H238.518ZM219.823 511.463V491.071H201.596V511.463H219.823ZM201.129 511.463V491.071H182.902V511.463H201.129ZM182.434 511.463V491.071H164.207V511.463H182.434ZM164.207 490.549H182.434L182.434 470.157H164.207L164.207 490.549ZM164.207 469.634H182.434V449.243H164.207V469.634ZM164.207 448.72H182.434V428.328H164.207V448.72ZM164.207 427.805H182.434V407.414H164.207V427.805ZM164.207 406.891H182.434V386.5H164.207V406.891ZM164.207 385.977H182.434V365.585H164.207V385.977ZM164.207 365.062H182.434V344.671H164.207V365.062ZM164.207 344.148H182.434V323.756H164.207V344.148ZM164.207 323.234H182.434V302.842H164.207V323.234ZM164.207 302.319H182.434V281.928H164.207V302.319ZM164.207 281.405H182.434V261.013H164.207V281.405ZM164.207 260.49H182.434V240.099L164.207 240.099V260.49ZM164.207 239.576L182.434 239.576L182.434 219.185L164.207 219.185L164.207 239.576ZM182.902 219.185V239.576H201.129V219.185H182.902ZM201.596 219.185V239.576H219.823V219.185H201.596ZM220.291 219.185V239.576H238.518V219.185H220.291ZM238.985 219.185V239.576H257.212V219.185H238.985ZM257.68 219.185V239.576H275.907V219.185H257.68ZM276.374 219.185V239.576H294.601V219.185H276.374ZM295.068 219.185V239.576H313.295V219.185H295.068ZM313.763 219.185V239.576H331.99V219.185H313.763ZM332.457 219.185V239.576L350.684 239.576V219.185L332.457 219.185ZM351.152 219.185V239.576H369.379V219.185H351.152ZM369.846 219.185V239.576H388.073V219.185H369.846ZM388.541 219.185V239.576H406.768V219.185H388.541ZM407.235 219.185V239.576H425.462V219.185H407.235ZM425.929 219.185V239.576H444.157V219.185H425.929ZM444.624 219.185V239.576H462.851V219.185H444.624ZM463.318 219.185V239.576H481.545V219.185H463.318ZM482.013 219.185V239.576H500.24V219.185H482.013ZM500.707 219.185V239.576H518.934V219.185L500.707 219.185ZM519.402 219.185V239.576H537.629V219.185H519.402ZM538.096 219.185V239.576H556.323V219.185H538.096ZM556.791 219.185V239.576H575.018V219.185H556.791ZM575.485 219.185V239.576H593.712V219.185H575.485ZM594.18 219.185V239.576H612.407V219.185H594.18ZM612.874 219.185V239.576H631.101V219.185H612.874ZM631.568 219.185V239.576H649.796V219.185H631.568ZM649.796 240.099H631.568V260.491H649.796V240.099ZM649.796 261.013H631.568V281.405H649.796V261.013ZM649.796 281.928H631.568V302.319H649.796V281.928ZM649.796 302.842H631.568V323.234H649.796V302.842ZM649.796 323.756H631.568V344.148H649.796V323.756ZM649.796 344.671H631.568V365.062H649.796V344.671ZM649.796 365.585H631.568V385.977H649.796V365.585ZM649.796 386.5H631.568V406.891H649.796V386.5ZM649.796 407.414H631.568V427.805H649.796V407.414ZM649.796 428.328H631.568V448.72H649.796V428.328ZM649.796 449.243H631.568V469.634H649.796V449.243ZM649.796 470.157H631.568V490.549H649.796V470.157ZM631.101 490.549V470.157H612.874V490.549H631.101ZM612.407 490.549V470.157H594.18V490.549H612.407ZM593.712 490.549V470.157H575.485V490.549H593.712ZM575.018 490.549V470.157H556.791V490.549H575.018ZM556.323 490.549V470.157H538.096V490.549H556.323ZM537.629 490.549V470.157H519.402V490.549H537.629ZM518.934 490.549V470.157H500.707V490.549H518.934ZM500.24 490.549V470.157H482.013V490.549H500.24ZM481.545 490.549V470.157H463.318V490.549H481.545ZM462.851 490.549V470.157H444.624V490.549H462.851ZM444.157 490.549V470.157H425.929V490.549H444.157ZM425.462 490.549V470.157L407.235 470.157V490.549L425.462 490.549ZM406.768 490.549V470.157H388.541V490.549H406.768ZM388.073 490.549V470.157H369.846V490.549H388.073ZM369.379 490.549V470.157H351.152V490.549H369.379ZM350.684 490.549V470.157H332.457V490.549H350.684ZM331.99 490.549V470.157H313.763V490.549H331.99ZM313.295 490.549V470.157H295.068V490.549H313.295ZM294.601 490.549V470.157H276.374V490.549H294.601ZM275.907 490.549V470.157H257.679V490.549H275.907ZM257.212 490.549V470.157H238.985V490.549H257.212ZM238.518 490.549V470.157H220.291V490.549H238.518ZM219.823 490.549V470.157H201.596V490.549H219.823ZM201.129 490.549L201.129 470.157H182.902L182.902 490.549H201.129ZM182.902 469.634H201.129V449.243H182.902V469.634ZM182.902 448.72H201.129V428.328H182.902V448.72ZM182.902 427.805H201.129V407.414H182.902V427.805ZM182.902 406.891H201.129V386.5H182.902V406.891ZM182.902 385.977H201.129V365.585H182.902V385.977ZM182.902 365.062H201.129V344.671H182.902V365.062ZM182.902 344.148H201.129V323.756H182.902V344.148ZM182.902 323.234H201.129V302.842H182.902V323.234ZM182.902 302.319H201.129V281.928H182.902V302.319ZM182.902 281.405H201.129V261.013H182.902V281.405ZM182.902 260.49H201.129V240.099H182.902V260.49ZM201.596 240.099V260.49H219.823V240.099H201.596ZM220.291 240.099V260.49H238.518V240.099H220.291ZM238.985 240.099V260.49L257.212 260.49V240.099H238.985ZM257.68 240.099V260.49H275.907V240.099H257.68ZM276.374 240.099V260.49H294.601V240.099H276.374ZM295.068 240.099V260.49H313.295V240.099H295.068ZM313.763 240.099V260.49H331.99V240.099H313.763ZM332.457 240.099V260.49H350.684V240.099L332.457 240.099ZM351.152 240.099V260.49H369.379V240.099H351.152ZM369.846 240.099V260.49H388.073V240.099H369.846ZM388.541 240.099V260.49H406.768V240.099H388.541ZM407.235 240.099V260.49H425.462V240.099H407.235ZM425.929 240.099V260.49H444.157V240.099H425.929ZM444.624 240.099V260.49H462.851V240.099H444.624ZM463.318 240.099V260.49H481.545V240.099H463.318ZM482.013 240.099V260.49H500.24V240.099H482.013ZM500.707 240.099V260.49H518.934V240.099H500.707ZM519.402 240.099V260.49H537.629V240.099H519.402ZM538.096 240.099V260.49H556.323V240.099H538.096ZM556.791 240.099V260.49H575.018V240.099H556.791ZM575.485 240.099V260.49L593.712 260.491V240.099H575.485ZM594.18 240.099V260.491H612.407V240.099H594.18ZM612.874 240.099V260.491H631.101V240.099H612.874ZM631.101 261.013H612.874V281.405H631.101V261.013ZM631.101 281.928H612.874V302.319H631.101V281.928ZM631.101 302.842H612.874V323.234H631.101V302.842ZM631.101 323.756H612.874V344.148H631.101V323.756ZM631.101 344.671H612.874V365.062H631.101V344.671ZM631.101 365.585H612.874V385.977H631.101V365.585ZM631.101 386.5H612.874V406.891H631.101V386.5ZM631.101 407.414H612.874V427.805H631.101V407.414ZM631.101 428.328H612.874V448.72H631.101V428.328ZM631.101 449.243H612.874V469.634H631.101V449.243ZM612.407 469.634V449.243H594.18V469.634H612.407ZM593.712 469.634V449.243H575.485V469.634H593.712ZM575.018 469.634V449.243H556.791V469.634H575.018ZM556.323 469.634V449.243H538.096V469.634H556.323ZM537.629 469.634V449.243H519.402V469.634H537.629ZM518.934 469.634V449.243H500.707V469.634H518.934ZM500.24 469.634V449.243H482.013V469.634H500.24ZM481.545 469.634V449.243H463.318V469.634H481.545ZM462.851 469.634V449.243H444.624V469.634H462.851ZM444.157 469.634V449.243H425.929V469.634H444.157ZM425.462 469.634V449.243L407.235 449.243V469.634L425.462 469.634ZM406.768 469.634V449.243H388.541V469.634H406.768ZM388.073 469.634V449.243H369.846V469.634H388.073ZM369.379 469.634V449.243H351.152V469.634H369.379ZM350.684 469.634V449.243H332.457V469.634H350.684ZM331.99 469.634V449.243H313.763V469.634H331.99ZM313.295 469.634V449.243H295.068V469.634H313.295ZM294.601 469.634V449.243H276.374V469.634H294.601ZM275.907 469.634V449.243H257.679V469.634H275.907ZM257.212 469.634V449.243H238.985V469.634H257.212ZM238.518 469.634V449.243H220.291V469.634H238.518ZM219.823 469.634V449.243H201.596V469.634H219.823ZM201.596 448.72H219.823V428.328H201.596V448.72ZM201.596 427.805H219.823V407.414H201.596V427.805ZM201.596 406.891H219.823V386.5H201.596V406.891ZM201.596 385.977H219.823V365.585H201.596V385.977ZM201.596 365.062H219.823L219.823 344.671H201.596L201.596 365.062ZM201.596 344.148H219.823V323.756H201.596V344.148ZM201.596 323.234H219.823V302.842H201.596V323.234ZM201.596 302.319H219.823V281.928H201.596V302.319ZM201.596 281.405H219.823V261.013H201.596V281.405ZM220.291 261.013V281.405H238.518V261.013H220.291ZM238.985 261.013V281.405L257.212 281.405V261.013L238.985 261.013ZM257.68 261.013V281.405H275.907V261.013H257.68ZM276.374 261.013V281.405H294.601V261.013H276.374ZM295.068 261.013V281.405H313.295V261.013H295.068ZM313.763 261.013V281.405H331.99V261.013H313.763ZM332.457 261.013V281.405H350.684V261.013H332.457ZM351.152 261.013V281.405H369.379V261.013H351.152ZM369.846 261.013V281.405H388.073V261.013H369.846ZM388.541 261.013V281.405H406.768V261.013H388.541ZM407.235 261.013V281.405H425.462V261.013H407.235ZM425.929 261.013V281.405H444.157V261.013H425.929ZM444.624 261.013V281.405H462.851V261.013H444.624ZM463.318 261.013V281.405H481.545V261.013H463.318ZM482.013 261.013V281.405H500.24V261.013H482.013ZM500.707 261.013V281.405H518.934V261.013H500.707ZM519.402 261.013V281.405H537.629V261.013H519.402ZM538.096 261.013V281.405H556.323V261.013H538.096ZM556.791 261.013V281.405H575.018V261.013H556.791ZM575.485 261.013V281.405L593.712 281.405V261.013L575.485 261.013ZM594.18 261.013V281.405H612.407V261.013H594.18ZM612.407 281.928H594.18V302.319H612.407V281.928ZM612.407 302.842H594.18V323.234H612.407V302.842ZM612.407 323.756H594.18V344.148H612.407V323.756ZM612.407 344.671H594.18V365.062H612.407V344.671ZM612.407 365.585H594.18V385.977H612.407V365.585ZM612.407 386.5H594.18V406.891H612.407V386.5ZM612.407 407.414H594.18V427.805H612.407V407.414ZM612.407 428.328H594.18V448.72H612.407V428.328ZM593.712 448.72V428.328H575.485V448.72H593.712ZM575.018 448.72V428.328H556.791V448.72H575.018ZM556.323 448.72V428.328H538.096V448.72H556.323ZM537.629 448.72V428.328H519.402V448.72H537.629ZM518.934 448.72V428.328H500.707V448.72H518.934ZM500.24 448.72V428.328H482.013V448.72H500.24ZM481.545 448.72V428.328H463.318V448.72H481.545ZM462.851 448.72V428.328H444.624V448.72H462.851ZM444.157 448.72V428.328H425.929V448.72H444.157ZM425.462 448.72V428.328L407.235 428.328V448.72L425.462 448.72ZM406.768 448.72V428.328H388.541V448.72H406.768ZM388.073 448.72V428.328H369.846V448.72H388.073ZM369.379 448.72V428.328H351.152V448.72H369.379ZM350.684 448.72V428.328H332.457V448.72H350.684ZM331.99 448.72V428.328H313.763V448.72H331.99ZM313.295 448.72V428.328H295.068V448.72H313.295ZM294.601 448.72V428.328H276.374V448.72H294.601ZM275.907 448.72V428.328H257.679V448.72H275.907ZM257.212 448.72V428.328H238.985V448.72H257.212ZM238.518 448.72V428.328H220.291V448.72H238.518ZM220.291 427.805H238.518V407.414H220.291V427.805ZM220.291 406.891H238.518V386.5H220.291V406.891ZM220.291 385.977H238.518V365.585H220.291V385.977ZM220.291 365.062H238.518L238.518 344.671H220.291L220.291 365.062ZM220.291 344.148H238.518V323.756H220.291V344.148ZM220.291 323.234H238.518V302.842H220.291V323.234ZM220.291 302.319H238.518V281.928H220.291V302.319ZM238.985 281.928V302.319L257.212 302.319V281.928L238.985 281.928ZM257.68 281.928V302.319H275.907V281.928H257.68ZM276.374 281.928V302.319H294.601V281.928H276.374ZM295.068 281.928V302.319H313.295V281.928H295.068ZM313.763 281.928V302.319H331.99V281.928H313.763ZM332.457 281.928V302.319H350.684V281.928H332.457ZM351.152 281.928V302.319H369.379V281.928H351.152ZM369.846 281.928V302.319H388.073V281.928H369.846ZM388.541 281.928V302.319H406.768V281.928H388.541ZM407.235 281.928V302.319H425.462V281.928H407.235ZM425.929 281.928V302.319H444.157V281.928H425.929ZM444.624 281.928V302.319H462.851V281.928H444.624ZM463.318 281.928V302.319H481.545V281.928H463.318ZM482.013 281.928V302.319H500.24V281.928H482.013ZM500.707 281.928V302.319H518.934V281.928H500.707ZM519.402 281.928V302.319H537.629V281.928H519.402ZM538.096 281.928V302.319H556.323V281.928H538.096ZM556.791 281.928V302.319H575.018V281.928H556.791ZM575.485 281.928V302.319L593.712 302.319V281.928L575.485 281.928ZM593.712 302.842L575.485 302.842V323.234H593.712V302.842ZM593.712 323.756H575.485V344.148L593.712 344.148V323.756ZM593.712 344.671L575.485 344.671V365.062H593.712V344.671ZM593.712 365.585L575.485 365.585V385.977L593.712 385.977V365.585ZM593.712 386.5H575.485V406.891H593.712V386.5ZM593.712 407.414H575.485V427.805H593.712V407.414ZM575.018 427.805V407.414H556.791V427.805H575.018ZM556.323 427.805V407.414H538.096V427.805H556.323ZM537.629 427.805V407.414H519.402V427.805H537.629ZM518.934 427.805V407.414H500.707V427.805H518.934ZM500.24 427.805V407.414H482.013V427.805H500.24ZM481.545 427.805V407.414H463.318V427.805H481.545ZM462.851 427.805V407.414H444.624V427.805H462.851ZM444.157 427.805V407.414H425.929V427.805H444.157ZM425.462 427.805V407.414L407.235 407.414V427.805L425.462 427.805ZM406.768 427.805V407.414H388.541V427.805H406.768ZM388.073 427.805V407.414H369.846V427.805H388.073ZM369.379 427.805V407.414H351.152V427.805H369.379ZM350.684 427.805V407.414H332.457V427.805H350.684ZM331.99 427.805V407.414H313.763V427.805H331.99ZM313.295 427.805V407.414H295.068V427.805H313.295ZM294.601 427.805V407.414H276.374V427.805H294.601ZM275.907 427.805V407.414H257.679V427.805H275.907ZM257.212 427.805V407.414H238.985V427.805H257.212ZM238.985 406.891H257.212V386.5L238.985 386.5V406.891ZM238.985 385.977H257.212V365.585L238.985 365.585V385.977ZM238.985 365.062L257.212 365.062L257.212 344.671L238.985 344.671L238.985 365.062ZM238.985 344.148H257.212V323.756L238.985 323.756V344.148ZM238.985 323.234L257.212 323.234V302.842L238.985 302.842V323.234ZM257.68 302.842V323.234H275.907V302.842H257.68ZM276.374 302.842V323.234H294.601V302.842H276.374ZM295.068 302.842V323.234H313.295V302.842H295.068ZM313.763 302.842V323.234H331.99V302.842H313.763ZM332.457 302.842V323.234H350.684V302.842H332.457ZM351.152 302.842V323.234H369.379V302.842H351.152ZM369.846 302.842V323.234H388.073V302.842H369.846ZM388.541 302.842V323.234H406.768V302.842H388.541ZM407.235 302.842V323.234H425.462V302.842H407.235ZM425.929 302.842V323.234H444.157V302.842H425.929ZM444.624 302.842V323.234H462.851V302.842H444.624ZM463.318 302.842V323.234H481.545V302.842H463.318ZM482.013 302.842V323.234H500.24V302.842H482.013ZM500.707 302.842V323.234H518.934V302.842H500.707ZM519.402 302.842V323.234H537.629V302.842H519.402ZM538.096 302.842V323.234H556.323V302.842H538.096ZM556.791 302.842V323.234H575.018V302.842H556.791ZM575.018 323.756H556.791V344.148H575.018V323.756ZM575.018 344.671H556.791V365.062H575.018V344.671ZM575.018 365.585H556.791V385.977H575.018V365.585ZM575.018 386.5H556.791V406.891H575.018V386.5ZM556.323 406.891V386.5H538.096V406.891H556.323ZM537.629 406.891V386.5H519.402V406.891H537.629ZM518.934 406.891V386.5H500.707V406.891H518.934ZM500.24 406.891V386.5H482.013V406.891H500.24ZM481.545 406.891V386.5H463.318V406.891H481.545ZM462.851 406.891V386.5H444.624V406.891H462.851ZM444.157 406.891V386.5H425.929V406.891H444.157ZM425.462 406.891V386.5H407.235V406.891L425.462 406.891ZM406.768 406.891V386.5H388.541V406.891H406.768ZM388.073 406.891V386.5H369.846V406.891H388.073ZM369.379 406.891V386.5H351.152V406.891H369.379ZM350.684 406.891V386.5H332.457V406.891H350.684ZM331.99 406.891V386.5H313.763V406.891H331.99ZM313.295 406.891V386.5H295.068V406.891H313.295ZM294.601 406.891V386.5H276.374V406.891H294.601ZM275.907 406.891V386.5H257.679V406.891H275.907ZM257.679 385.977H275.907V365.585H257.679V385.977ZM257.679 365.062H275.907L275.907 344.671H257.68L257.679 365.062ZM257.68 344.148H275.907V323.756H257.68V344.148ZM276.374 323.756V344.148H294.601V323.756H276.374ZM295.068 323.756V344.148H313.295V323.756H295.068ZM313.763 323.756V344.148H331.99V323.756H313.763ZM332.457 323.756V344.148H350.684V323.756H332.457ZM351.152 323.756V344.148H369.379V323.756H351.152ZM369.846 323.756V344.148H388.073V323.756H369.846ZM388.541 323.756V344.148H406.768V323.756H388.541ZM407.235 323.756V344.148H425.462V323.756H407.235ZM425.929 323.756V344.148H444.157V323.756H425.929ZM444.624 323.756V344.148H462.851V323.756H444.624ZM463.318 323.756V344.148H481.545V323.756H463.318ZM482.013 323.756V344.148H500.24V323.756H482.013ZM500.707 323.756V344.148H518.934V323.756H500.707ZM519.402 323.756V344.148H537.629V323.756H519.402ZM538.096 323.756V344.148H556.323V323.756H538.096ZM556.323 344.671H538.096V365.062H556.323V344.671ZM556.323 365.585H538.096V385.977H556.323V365.585ZM537.629 385.977V365.585H519.402V385.977H537.629ZM518.934 385.977V365.585H500.707V385.977H518.934ZM500.24 385.977V365.585H482.013V385.977H500.24ZM481.545 385.977V365.585H463.318V385.977H481.545ZM462.851 385.977V365.585H444.624V385.977H462.851ZM444.157 385.977V365.585H425.929V385.977H444.157ZM425.462 385.977V365.585H407.235V385.977H425.462ZM406.768 385.977V365.585H388.541V385.977H406.768ZM388.073 385.977V365.585H369.846V385.977H388.073ZM369.379 385.977V365.585H351.152V385.977H369.379ZM350.684 385.977V365.585H332.457V385.977H350.684ZM331.99 385.977V365.585H313.763V385.977H331.99ZM313.295 385.977V365.585H295.068V385.977H313.295ZM294.601 385.977V365.585H276.374V385.977H294.601ZM276.374 365.062H294.601L294.601 344.671H276.374V365.062ZM295.068 344.671V365.062H313.295V344.671H295.068ZM313.763 344.671L313.763 365.062H331.99V344.671H313.763ZM332.457 344.671V365.062H350.684V344.671H332.457ZM351.152 344.671V365.062H369.379V344.671H351.152ZM369.846 344.671V365.062H388.073V344.671H369.846ZM388.541 344.671V365.062H406.768V344.671H388.541ZM407.235 344.671V365.062H425.462V344.671H407.235ZM425.929 344.671V365.062H444.157V344.671H425.929ZM444.624 344.671V365.062H462.851V344.671H444.624ZM463.318 344.671V365.062H481.545V344.671H463.318ZM482.013 344.671V365.062H500.24V344.671H482.013ZM500.707 344.671V365.062H518.934V344.671H500.707ZM519.402 344.671V365.062H537.629V344.671H519.402Z" fill="url(#paint0_radial_0_7)"/>
<g id="Ellipse 1" opacity="0.2" filter="url(#filter0_f_0_7)">
<ellipse cx="378.374" cy="373.092" rx="189.753" ry="127.131" fill="var(--fill-0, #A90831)"/>
</g>
<g id="Ellipse 2" opacity="0.2" filter="url(#filter1_f_0_7)">
<ellipse cx="550.772" cy="287.836" rx="110.909" ry="99.2147" fill="var(--fill-0, #A5C4D6)"/>
</g>
</g>
<defs>
<filter id="filter0_f_0_7" x="0" y="57.3398" width="756.748" height="631.503" filterUnits="userSpaceOnUse" color-interpolation-filters="sRGB">
<feFlood flood-opacity="0" result="BackgroundImageFix"/>
<feBlend mode="normal" in="SourceGraphic" in2="BackgroundImageFix" result="shape"/>
<feGaussianBlur stdDeviation="94.3105" result="effect1_foregroundBlur_0_7"/>
</filter>
<filter id="filter1_f_0_7" x="251.242" y="0" width="599.061" height="575.672" filterUnits="userSpaceOnUse" color-interpolation-filters="sRGB">
<feFlood flood-opacity="0" result="BackgroundImageFix"/>
<feBlend mode="normal" in="SourceGraphic" in2="BackgroundImageFix" result="shape"/>
<feGaussianBlur stdDeviation="94.3105" result="effect1_foregroundBlur_0_7"/>
</filter>
<radialGradient id="paint0_radial_0_7" cx="0" cy="0" r="1" gradientUnits="userSpaceOnUse" gradientTransform="translate(417.984 354.605) rotate(90) scale(214.274 311.29)">
<stop stop-color="#869CA5"/>
<stop offset="1" stop-color="#869CA5" stop-opacity="0"/>
</radialGradient>
</defs>
</svg>
