<svg preserveAspectRatio="none" width="100%" height="100%" overflow="visible" style="display: block;" viewBox="0 0 68.2634 233.948" fill="none" xmlns="http://www.w3.org/2000/svg">
<g id="Vector" filter="url(#filter0_d_0_12)">
<path d="M57.8142 119.39C57.8142 132.193 56.3837 207.264 56.5182 220.063C56.5451 222.736 55.7379 223.494 53.1145 223.48C36.5084 223.386 19.8978 223.386 3.29173 223.498C0.529279 223.521 -0.00885962 222.489 0.000109368 219.96C0.0897993 194.475 1.43048 54.5328 1.40805 29.0475C1.40805 27.4645 1.78923 26.0743 2.52918 24.711C6.52934 17.3654 10.5654 10.0422 14.4265 2.62937C15.4535 0.656196 16.7047 -0.0344154 18.8841 0.00146053C26.1087 0.122542 33.3377 0.135995 40.5622 0.00146053C42.791 -0.0388999 43.9883 0.754854 44.9929 2.6787C48.863 10.0871 52.8587 17.4327 56.8723 24.7693C57.7109 26.303 57.8051 27.877 57.8051 29.5363C57.7916 42.0884 57.7963 106.838 57.7963 119.39H57.8142ZM33.3197 7.75514C33.1538 5.52635 31.8936 4.10925 29.7411 4.10925C27.7769 4.10925 26.4539 5.39182 26.3957 7.50849C26.3284 9.86734 27.8307 11.123 29.9115 11.1768C31.9071 11.2306 33.0641 9.80007 33.3242 7.75514H33.3197Z" fill="white"/>
<path d="M40.5713 0.500977C41.6252 0.481901 42.3782 0.661482 42.9746 1.0293C43.4985 1.35251 43.9449 1.84784 44.3691 2.58105L44.5498 2.91016C48.4222 10.323 52.4199 17.672 56.4336 25.0088C57.2076 26.4243 57.3047 27.8884 57.3047 29.5361L57.2959 74.4629V119.89H57.3115C57.2772 133.995 55.8858 207.439 56.0186 220.068C56.0318 221.389 55.8278 222.057 55.458 222.424C55.0864 222.792 54.4169 222.987 53.1172 222.98L46.8887 222.949C32.3559 222.888 17.8202 222.9 3.28809 222.998C1.94033 223.009 1.31752 222.755 0.990234 222.365C0.640284 221.948 0.495515 221.232 0.5 219.962C0.589649 194.488 1.93059 54.5333 1.9082 29.0479C1.9082 27.5537 2.26608 26.245 2.96875 24.9502C6.96721 17.6077 11.0062 10.2785 14.8701 2.86035C15.3567 1.92538 15.8696 1.34586 16.4746 0.994141C17.0812 0.641578 17.838 0.483891 18.876 0.500977C25.2016 0.606991 31.5314 0.630893 37.8594 0.544922L40.5713 0.500977ZM29.7412 3.60938C28.6475 3.60938 27.6913 3.96893 27 4.66211C26.31 5.35412 25.9276 6.33395 25.8955 7.49414C25.8586 8.78688 26.2545 9.8338 26.998 10.5635C27.69 11.2424 28.6364 11.6008 29.6875 11.667L29.8984 11.6768C31.0304 11.7072 31.9585 11.3117 32.6328 10.5957C33.2963 9.89116 33.6811 8.91258 33.8203 7.81836L33.8916 7.25488H33.7666C33.6209 6.25517 33.2493 5.39197 32.6367 4.75098C31.9245 4.00577 30.9338 3.6094 29.7412 3.60938Z" stroke="var(--stroke-0, #A90831)"/>
</g>
<defs>
<filter id="filter0_d_0_12" x="0" y="0" width="68.2634" height="233.948" filterUnits="userSpaceOnUse" color-interpolation-filters="sRGB">
<feFlood flood-opacity="0" result="BackgroundImageFix"/>
<feColorMatrix in="SourceAlpha" type="matrix" values="0 0 0 0 0 0 0 0 0 0 0 0 0 0 0 0 0 0 127 0" result="hardAlpha"/>
<feOffset dx="5.22456" dy="5.22456"/>
<feGaussianBlur stdDeviation="2.61228"/>
<feComposite in2="hardAlpha" operator="out"/>
<feColorMatrix type="matrix" values="0 0 0 0 0.623529 0 0 0 0 0.678431 0 0 0 0 0.729412 0 0 0 0.2 0"/>
<feBlend mode="normal" in2="BackgroundImageFix" result="effect1_dropShadow_0_12"/>
<feBlend mode="normal" in="SourceGraphic" in2="effect1_dropShadow_0_12" result="shape"/>
</filter>
</defs>
</svg>
