<svg preserveAspectRatio="none" width="100%" height="100%" overflow="visible" style="display: block;" viewBox="0 0 893.263 664.052" fill="none" xmlns="http://www.w3.org/2000/svg">
<g id="Graphics block" opacity="0.4">
<path id="Vector (Stroke)" opacity="0.4" fill-rule="evenodd" clip-rule="evenodd" d="M132.737 170.047V141.742H133.228V170.047H152.376V141.742H152.867V170.047H172.014V141.742H172.505V170.047L191.653 170.047V141.742H192.144V170.047H211.292V141.742H211.783V170.047H230.931V141.742H231.422V170.047H250.57V141.742H251.061V170.047H270.209V141.742H270.7V170.047H289.848V141.742H290.339V170.047H309.487V141.742H309.978V170.047L329.126 170.047V141.742H329.617V170.047H348.764V141.742H349.255V170.047H368.403V141.742H368.894V170.047H388.042V141.742H388.533V170.047L407.681 170.047V141.742H408.172V170.047H427.32V141.742H427.811V170.047L446.959 170.047V141.742H447.45V170.047H466.598V141.742H467.089V170.047H486.237V141.742H486.728V170.047H505.876V141.742H506.367V170.047L525.514 170.047V141.742H526.005V170.047H545.153V141.742H545.644V170.047L564.792 170.047V141.742H565.283V170.047H584.431V141.742H584.922V170.047H604.07V141.742H604.561V170.047H623.709V141.742H624.2V170.047H643.348V141.742H643.839V170.047L662.987 170.047V141.742H663.478V170.047H682.626V141.742H683.117V170.047L702.264 170.047V141.742H702.755V170.047H721.903V141.742H722.394V170.047L741.542 170.047V141.742H742.033V170.047H792.603V170.496L742.033 170.496V188.018H792.603V188.468H742.033V205.99H792.603V206.439H742.033V223.961H792.603V224.41H742.033V241.932H792.603V242.382H742.033V259.904H792.603V260.353H742.033V277.875H792.603V278.324H742.033V295.846H792.603V296.296H742.033V313.818H792.603V314.267H742.033V331.789H792.603V332.238H742.033V349.76H792.603V350.21H742.033V367.732H792.603V368.181H742.033V385.703H792.603V386.152H742.033V403.674H792.603V404.124H742.033V421.646H792.603V422.095H742.033V439.617H792.603V440.066H742.033V457.588H792.603V458.038H742.033V475.56H792.603V476.009H742.033V493.531H792.603V493.98H742.033V511.502H792.603V511.952H742.033V539.807H741.542V511.952H722.394V539.807H721.903V511.952H702.755V539.807H702.264V511.952H683.117V539.807H682.626V511.952H663.478V539.807H662.987V511.952H643.839V539.807H643.348V511.952H624.2V539.807H623.709V511.952H604.561V539.807H604.07V511.952H584.922V539.807H584.431V511.952H565.283V539.807H564.792V511.952H545.644V539.807H545.153V511.952H526.005V539.807H525.514V511.952H506.367V539.807H505.876V511.952H486.728V539.807H486.237V511.952H467.089V539.807H466.598V511.952H447.45V539.807H446.959V511.952H427.811V539.807H427.32V511.952H408.172V539.807H407.681V511.952H388.533V539.807H388.042V511.952H368.894V539.807H368.403V511.952H349.255V539.807H348.764V511.952H329.617V539.807H329.126V511.952H309.978V539.807H309.487V511.952H290.339V539.807H289.848V511.952H270.7V539.807H270.209V511.952H251.061V539.807H250.57V511.952H231.422V539.807H230.931V511.952H211.783V539.807H211.292V511.952H192.144V539.807H191.653V511.952H172.505V539.807H172.014V511.952H152.867V539.807H152.376V511.952H133.228V539.807H132.737V511.952H85.6033V511.502H132.737V493.98H85.6033V493.531H132.737L132.737 476.009H85.6033V475.56H132.737V458.038H85.6033V457.588H132.737V440.066H85.6033V439.617H132.737V422.095H85.6033V421.646H132.737V404.124H85.6033V403.674H132.737L132.737 386.152H85.6033V385.703H132.737V368.181H85.6033V367.732H132.737V350.21H85.6033V349.76H132.737V332.238H85.6033V331.789H132.737V314.267H85.6033V313.818H132.737V296.296H85.6033V295.846H132.737L132.737 278.324H85.6033V277.875H132.737V260.353H85.6033V259.904H132.737V242.381H85.6033V241.932H132.737V224.41H85.6033V223.961H132.737V206.439H85.6033V205.99H132.737L132.737 188.467L85.6033 188.467V188.018L132.737 188.018V170.496L85.6033 170.496V170.047L132.737 170.047ZM133.228 170.496V188.018H152.376V170.496H133.228ZM152.867 170.496V188.018H172.014V170.496H152.867ZM172.505 170.496V188.018H191.653V170.496L172.505 170.496ZM192.144 170.496V188.018H211.292V170.496H192.144ZM211.783 170.496V188.018H230.931V170.496H211.783ZM231.422 170.496V188.018H250.57V170.496H231.422ZM251.061 170.496V188.018H270.209V170.496H251.061ZM270.7 170.496V188.018L289.848 188.018V170.496H270.7ZM290.339 170.496V188.018H309.487V170.496H290.339ZM309.978 170.496V188.018H329.126V170.496L309.978 170.496ZM329.617 170.496V188.018H348.764V170.496H329.617ZM349.255 170.496V188.018L368.403 188.018V170.496L349.255 170.496ZM368.894 170.496V188.018H388.042V170.496H368.894ZM388.533 170.496V188.018H407.681V170.496L388.533 170.496ZM408.172 170.496V188.018H427.32V170.496H408.172ZM427.811 170.496V188.018H446.959V170.496H427.811ZM447.45 170.496V188.018H466.598V170.496H447.45ZM467.089 170.496V188.018H486.237V170.496L467.089 170.496ZM486.728 170.496V188.018H505.876V170.496H486.728ZM506.367 170.496V188.018L525.514 188.018V170.496L506.367 170.496ZM526.005 170.496V188.018H545.153V170.496H526.005ZM545.644 170.496V188.018H564.792V170.496H545.644ZM565.283 170.496V188.018H584.431V170.496H565.283ZM584.922 170.496V188.018L604.07 188.018V170.496H584.922ZM604.561 170.496V188.018H623.709V170.496L604.561 170.496ZM624.2 170.496V188.018H643.348V170.496H624.2ZM643.839 170.496V188.018H662.987V170.496L643.839 170.496ZM663.478 170.496V188.018L682.626 188.018V170.496H663.478ZM683.117 170.496V188.018H702.264V170.496H683.117ZM702.755 170.496V188.018H721.903V170.496H702.755ZM722.394 170.496V188.018H741.542V170.496L722.394 170.496ZM741.542 188.468H722.394V205.99H741.542V188.468ZM741.542 206.439H722.394V223.961H741.542V206.439ZM741.542 224.41H722.394V241.932H741.542V224.41ZM741.542 242.382H722.394V259.904H741.542V242.382ZM741.542 260.353H722.394V277.875H741.542V260.353ZM741.542 278.324H722.394V295.846H741.542V278.324ZM741.542 296.296H722.394V313.818H741.542V296.296ZM741.542 314.267H722.394V331.789H741.542V314.267ZM741.542 332.238H722.394V349.76H741.542V332.238ZM741.542 350.21H722.394V367.732H741.542V350.21ZM741.542 368.181H722.394V385.703H741.542V368.181ZM741.542 386.152H722.394V403.674H741.542V386.152ZM741.542 404.124H722.394V421.646H741.542V404.124ZM741.542 422.095H722.394V439.617H741.542V422.095ZM741.542 440.066H722.394V457.588H741.542V440.066ZM741.542 458.038H722.394V475.56H741.542V458.038ZM741.542 476.009H722.394V493.531H741.542V476.009ZM741.542 493.98H722.394V511.502H741.542V493.98ZM721.903 511.502V493.98H702.755V511.502H721.903ZM702.264 511.502V493.98H683.117V511.502H702.264ZM682.626 511.502V493.98H663.478V511.502H682.626ZM662.987 511.502V493.98H643.839V511.502H662.987ZM643.348 511.502V493.98H624.2V511.502H643.348ZM623.709 511.502V493.98H604.561V511.502H623.709ZM604.07 511.502V493.98H584.922V511.502H604.07ZM584.431 511.502V493.98H565.283V511.502H584.431ZM564.792 511.502V493.98H545.644V511.502H564.792ZM545.153 511.502V493.98H526.005V511.502H545.153ZM525.514 511.502V493.98H506.367V511.502H525.514ZM505.876 511.502V493.98H486.728V511.502H505.876ZM486.237 511.502V493.98H467.089V511.502H486.237ZM466.598 511.502V493.98H447.45V511.502H466.598ZM446.959 511.502V493.98L427.811 493.98V511.502L446.959 511.502ZM427.32 511.502V493.98H408.172V511.502H427.32ZM407.681 511.502V493.98H388.533V511.502H407.681ZM388.042 511.502V493.98H368.894V511.502H388.042ZM368.403 511.502V493.98H349.255V511.502H368.403ZM348.764 511.502V493.98H329.617V511.502H348.764ZM329.126 511.502V493.98H309.978V511.502H329.126ZM309.487 511.502V493.98H290.339V511.502H309.487ZM289.848 511.502V493.98H270.7V511.502H289.848ZM270.209 511.502V493.98H251.061V511.502H270.209ZM250.57 511.502V493.98H231.422V511.502H250.57ZM230.931 511.502V493.98H211.783V511.502H230.931ZM211.292 511.502V493.98H192.144V511.502H211.292ZM191.653 511.502V493.98H172.505V511.502H191.653ZM172.014 511.502V493.98H152.867V511.502H172.014ZM152.376 511.502V493.98H133.228V511.502H152.376ZM133.228 493.531H152.376V476.009H133.228L133.228 493.531ZM133.228 475.56H152.376V458.038H133.228V475.56ZM133.228 457.588H152.376L152.376 440.066H133.228V457.588ZM133.228 439.617H152.376V422.095H133.228V439.617ZM133.228 421.646H152.376V404.124H133.228V421.646ZM133.228 403.674H152.376V386.152H133.228L133.228 403.674ZM133.228 385.703H152.376V368.181H133.228V385.703ZM133.228 367.732H152.376V350.21H133.228V367.732ZM133.228 349.76H152.376V332.238H133.228V349.76ZM133.228 331.789H152.376V314.267H133.228V331.789ZM133.228 313.818H152.376V296.296H133.228V313.818ZM133.228 295.846H152.376V278.324H133.228L133.228 295.846ZM133.228 277.875H152.376V260.353H133.228V277.875ZM133.228 259.904H152.376V242.381H133.228V259.904ZM133.228 241.932H152.376L152.376 224.41H133.228V241.932ZM133.228 223.961H152.376V206.439H133.228V223.961ZM133.228 205.99H152.376V188.467H133.228L133.228 205.99ZM152.867 188.467V205.99H172.014V188.467H152.867ZM172.505 188.467V205.99L191.653 205.99V188.467H172.505ZM192.144 188.467V205.99H211.292V188.467H192.144ZM211.783 188.467V205.99H230.931V188.467H211.783ZM231.422 188.467V205.99H250.57V188.467H231.422ZM251.061 188.467V205.99H270.209V188.467H251.061ZM270.7 188.467V205.99H289.848V188.467L270.7 188.467ZM290.339 188.467V205.99H309.487V188.467H290.339ZM309.978 188.467V205.99H329.126V188.467H309.978ZM329.617 188.467V205.99H348.764V188.467H329.617ZM349.255 188.467V205.99L368.403 205.99V188.467L349.255 188.467ZM368.894 188.467V205.99H388.042V188.467H368.894ZM388.533 188.467V205.99H407.681V188.467H388.533ZM408.172 188.467V205.99H427.32V188.467H408.172ZM427.811 188.467V205.99H446.959V188.467H427.811ZM447.45 188.467V205.99H466.598V188.467H447.45ZM467.089 188.467V205.99H486.237V188.467H467.089ZM486.728 188.467V205.99H505.876V188.467H486.728ZM506.367 188.467V205.99H525.514V188.467L506.367 188.467ZM526.005 188.467V205.99L545.153 205.99V188.467H526.005ZM545.644 188.467V205.99H564.792V188.467H545.644ZM565.283 188.467V205.99H584.431V188.467H565.283ZM584.922 188.467V205.99H604.07V188.467L584.922 188.467ZM604.561 188.467V205.99H623.709V188.467H604.561ZM624.2 188.467V205.99H643.348V188.467H624.2ZM643.839 188.467V205.99H662.987V188.467H643.839ZM663.478 188.467V205.99H682.626V188.468L663.478 188.467ZM683.117 188.468V205.99H702.264V188.468H683.117ZM702.755 188.468V205.99L721.903 205.99V188.468H702.755ZM721.903 206.439L702.755 206.439V223.961L721.903 223.961V206.439ZM721.903 224.41L702.755 224.41V241.932L721.903 241.932V224.41ZM721.903 242.382L702.755 242.382V259.904H721.903V242.382ZM721.903 260.353H702.755V277.875H721.903V260.353ZM721.903 278.324H702.755V295.846H721.903V278.324ZM721.903 296.296H702.755V313.818H721.903V296.296ZM721.903 314.267H702.755V331.789H721.903V314.267ZM721.903 332.238H702.755V349.76H721.903V332.238ZM721.903 350.21H702.755V367.732H721.903V350.21ZM721.903 368.181H702.755V385.703H721.903V368.181ZM721.903 386.152H702.755V403.674H721.903V386.152ZM721.903 404.124H702.755V421.646H721.903V404.124ZM721.903 422.095H702.755V439.617H721.903V422.095ZM721.903 440.066H702.755V457.588H721.903V440.066ZM721.903 458.038H702.755V475.56H721.903V458.038ZM721.903 476.009H702.755V493.531H721.903V476.009ZM702.264 493.531V476.009H683.117V493.531H702.264ZM682.626 493.531V476.009H663.478V493.531H682.626ZM662.987 493.531V476.009H643.839V493.531H662.987ZM643.348 493.531V476.009H624.2V493.531H643.348ZM623.709 493.531V476.009H604.561V493.531H623.709ZM604.07 493.531V476.009H584.922V493.531H604.07ZM584.431 493.531V476.009H565.283V493.531H584.431ZM564.792 493.531V476.009H545.644V493.531H564.792ZM545.153 493.531V476.009H526.005V493.531H545.153ZM525.514 493.531V476.009H506.367V493.531H525.514ZM505.876 493.531V476.009H486.728V493.531H505.876ZM486.237 493.531V476.009H467.089V493.531H486.237ZM466.598 493.531V476.009H447.45V493.531H466.598ZM446.959 493.531V476.009L427.811 476.009V493.531L446.959 493.531ZM427.32 493.531V476.009H408.172V493.531H427.32ZM407.681 493.531V476.009H388.533V493.531H407.681ZM388.042 493.531V476.009H368.894V493.531H388.042ZM368.403 493.531V476.009H349.255V493.531H368.403ZM348.764 493.531V476.009H329.617V493.531H348.764ZM329.126 493.531V476.009H309.978V493.531H329.126ZM309.487 493.531V476.009H290.339V493.531H309.487ZM289.848 493.531V476.009H270.7V493.531H289.848ZM270.209 493.531V476.009H251.061V493.531H270.209ZM250.57 493.531V476.009H231.422V493.531H250.57ZM230.931 493.531V476.009H211.783V493.531H230.931ZM211.292 493.531V476.009H192.144V493.531H211.292ZM191.653 493.531V476.009H172.505V493.531H191.653ZM172.014 493.531V476.009H152.867V493.531H172.014ZM152.867 475.56H172.014V458.038H152.867V475.56ZM152.867 457.588H172.014L172.014 440.066H152.867L152.867 457.588ZM152.867 439.617H172.014V422.095H152.867V439.617ZM152.867 421.646H172.014V404.124H152.867V421.646ZM152.867 403.674H172.014V386.152H152.867V403.674ZM152.867 385.703H172.014V368.181H152.867V385.703ZM152.867 367.732H172.014V350.21H152.867V367.732ZM152.867 349.76H172.014V332.238H152.867V349.76ZM152.867 331.789H172.014V314.267H152.867V331.789ZM152.867 313.818H172.014V296.296H152.867V313.818ZM152.867 295.846H172.014V278.324H152.867V295.846ZM152.867 277.875H172.014V260.353H152.867V277.875ZM152.867 259.904H172.014V242.381H152.867V259.904ZM152.867 241.932H172.014L172.014 224.41H152.867L152.867 241.932ZM152.867 223.961H172.014V206.439H152.867V223.961ZM172.505 206.439V223.961L191.653 223.961V206.439L172.505 206.439ZM192.144 206.439V223.961H211.292V206.439H192.144ZM211.783 206.439V223.961H230.931V206.439H211.783ZM231.422 206.439V223.961H250.57V206.439H231.422ZM251.061 206.439V223.961H270.209V206.439H251.061ZM270.7 206.439V223.961H289.848V206.439H270.7ZM290.339 206.439V223.961H309.487V206.439H290.339ZM309.978 206.439V223.961H329.126V206.439H309.978ZM329.617 206.439V223.961H348.764V206.439H329.617ZM349.255 206.439V223.961L368.403 223.961V206.439L349.255 206.439ZM368.894 206.439V223.961H388.042V206.439H368.894ZM388.533 206.439V223.961H407.681V206.439H388.533ZM408.172 206.439V223.961H427.32V206.439H408.172ZM427.811 206.439V223.961H446.959V206.439H427.811ZM447.45 206.439V223.961H466.598V206.439H447.45ZM467.089 206.439V223.961H486.237V206.439H467.089ZM486.728 206.439V223.961H505.876V206.439H486.728ZM506.367 206.439V223.961H525.514V206.439H506.367ZM526.005 206.439V223.961L545.153 223.961V206.439L526.005 206.439ZM545.644 206.439V223.961H564.792V206.439H545.644ZM565.283 206.439V223.961H584.431V206.439H565.283ZM584.922 206.439V223.961H604.07V206.439H584.922ZM604.561 206.439V223.961H623.709V206.439H604.561ZM624.2 206.439V223.961H643.348V206.439H624.2ZM643.839 206.439V223.961H662.987V206.439H643.839ZM663.478 206.439V223.961H682.626V206.439H663.478ZM683.117 206.439V223.961H702.264V206.439H683.117ZM702.264 224.41H683.117V241.932H702.264V224.41ZM702.264 242.382H683.117V259.904H702.264V242.382ZM702.264 260.353H683.117V277.875H702.264V260.353ZM702.264 278.324H683.117V295.846H702.264V278.324ZM702.264 296.296H683.117V313.818H702.264V296.296ZM702.264 314.267H683.117V331.789H702.264V314.267ZM702.264 332.238H683.117V349.76H702.264V332.238ZM702.264 350.21H683.117V367.732H702.264V350.21ZM702.264 368.181H683.117V385.703H702.264V368.181ZM702.264 386.152H683.117V403.674H702.264V386.152ZM702.264 404.124H683.117V421.646H702.264V404.124ZM702.264 422.095H683.117V439.617H702.264V422.095ZM702.264 440.066H683.117V457.588H702.264V440.066ZM702.264 458.038H683.117V475.56H702.264V458.038ZM682.626 475.56V458.038H663.478V475.56H682.626ZM662.987 475.56V458.038H643.839V475.56H662.987ZM643.348 475.56V458.038H624.2V475.56H643.348ZM623.709 475.56V458.038H604.561V475.56H623.709ZM604.07 475.56V458.038H584.922V475.56H604.07ZM584.431 475.56V458.038H565.283V475.56H584.431ZM564.792 475.56V458.038H545.644V475.56H564.792ZM545.153 475.56V458.038H526.005V475.56H545.153ZM525.514 475.56V458.038H506.367V475.56H525.514ZM505.876 475.56V458.038H486.728V475.56H505.876ZM486.237 475.56V458.038H467.089V475.56H486.237ZM466.598 475.56V458.038H447.45V475.56H466.598ZM446.959 475.56V458.038L427.811 458.038V475.56L446.959 475.56ZM427.32 475.56V458.038H408.172V475.56H427.32ZM407.681 475.56V458.038H388.533V475.56H407.681ZM388.042 475.56V458.038H368.894V475.56H388.042ZM368.403 475.56V458.038H349.255V475.56H368.403ZM348.764 475.56V458.038H329.617V475.56H348.764ZM329.126 475.56V458.038H309.978V475.56H329.126ZM309.487 475.56V458.038H290.339V475.56H309.487ZM289.848 475.56V458.038H270.7V475.56H289.848ZM270.209 475.56V458.038H251.061V475.56H270.209ZM250.57 475.56V458.038H231.422V475.56H250.57ZM230.931 475.56V458.038H211.783V475.56H230.931ZM211.292 475.56V458.038H192.144V475.56H211.292ZM191.653 475.56V458.038H172.505V475.56H191.653ZM172.505 457.588H191.653L191.653 440.066H172.505L172.505 457.588ZM172.505 439.617H191.653V422.095H172.505V439.617ZM172.505 421.646H191.653V404.124H172.505V421.646ZM172.505 403.674H191.653V386.152H172.505V403.674ZM172.505 385.703H191.653V368.181H172.505V385.703ZM172.505 367.732H191.653V350.21H172.505V367.732ZM172.505 349.76H191.653V332.238H172.505V349.76ZM172.505 331.789H191.653V314.267H172.505V331.789ZM172.505 313.818H191.653V296.296H172.505V313.818ZM172.505 295.846H191.653V278.324H172.505V295.846ZM172.505 277.875H191.653V260.353H172.505V277.875ZM172.505 259.904H191.653V242.382L172.505 242.381V259.904ZM172.505 241.932L191.653 241.932L191.653 224.41L172.505 224.41L172.505 241.932ZM192.144 224.41V241.932H211.292V224.41H192.144ZM211.783 224.41V241.932H230.931V224.41H211.783ZM231.422 224.41V241.932H250.57V224.41H231.422ZM251.061 224.41V241.932H270.209V224.41H251.061ZM270.7 224.41V241.932H289.848V224.41H270.7ZM290.339 224.41V241.932H309.487V224.41H290.339ZM309.978 224.41V241.932H329.126V224.41H309.978ZM329.617 224.41V241.932H348.764V224.41H329.617ZM349.255 224.41V241.932L368.403 241.932V224.41L349.255 224.41ZM368.894 224.41V241.932H388.042V224.41H368.894ZM388.533 224.41V241.932H407.681V224.41H388.533ZM408.172 224.41V241.932H427.32V224.41H408.172ZM427.811 224.41V241.932H446.959V224.41H427.811ZM447.45 224.41V241.932H466.598V224.41H447.45ZM467.089 224.41V241.932H486.237V224.41H467.089ZM486.728 224.41V241.932H505.876V224.41H486.728ZM506.367 224.41V241.932H525.514V224.41H506.367ZM526.005 224.41V241.932H545.153V224.41L526.005 224.41ZM545.644 224.41V241.932H564.792V224.41H545.644ZM565.283 224.41V241.932H584.431V224.41H565.283ZM584.922 224.41V241.932H604.07V224.41H584.922ZM604.561 224.41V241.932H623.709V224.41H604.561ZM624.2 224.41V241.932H643.348V224.41H624.2ZM643.839 224.41V241.932H662.987V224.41H643.839ZM663.478 224.41V241.932H682.626V224.41H663.478ZM682.626 242.382H663.478V259.904H682.626V242.382ZM682.626 260.353H663.478V277.875H682.626V260.353ZM682.626 278.324H663.478V295.846H682.626V278.324ZM682.626 296.296H663.478V313.818H682.626V296.296ZM682.626 314.267H663.478V331.789H682.626V314.267ZM682.626 332.238H663.478V349.76H682.626V332.238ZM682.626 350.21H663.478V367.732H682.626V350.21ZM682.626 368.181H663.478V385.703H682.626V368.181ZM682.626 386.152H663.478V403.674H682.626V386.152ZM682.626 404.124H663.478V421.646H682.626V404.124ZM682.626 422.095H663.478V439.617H682.626V422.095ZM682.626 440.066H663.478V457.588H682.626V440.066ZM662.987 457.588V440.066H643.839V457.588H662.987ZM643.348 457.588V440.066H624.2V457.588H643.348ZM623.709 457.588V440.066H604.561V457.588H623.709ZM604.07 457.588V440.066H584.922V457.588H604.07ZM584.431 457.588V440.066H565.283V457.588H584.431ZM564.792 457.588V440.066H545.644V457.588H564.792ZM545.153 457.588V440.066H526.005V457.588H545.153ZM525.514 457.588V440.066H506.367V457.588H525.514ZM505.876 457.588V440.066H486.728V457.588H505.876ZM486.237 457.588V440.066H467.089V457.588H486.237ZM466.598 457.588V440.066H447.45V457.588H466.598ZM446.959 457.588V440.066L427.811 440.066V457.588L446.959 457.588ZM427.32 457.588V440.066H408.172V457.588H427.32ZM407.681 457.588V440.066H388.533V457.588H407.681ZM388.042 457.588V440.066H368.894V457.588H388.042ZM368.403 457.588V440.066H349.255V457.588H368.403ZM348.764 457.588V440.066H329.617V457.588H348.764ZM329.126 457.588V440.066H309.978V457.588H329.126ZM309.487 457.588V440.066H290.339V457.588H309.487ZM289.848 457.588V440.066H270.7V457.588H289.848ZM270.209 457.588V440.066H251.061V457.588H270.209ZM250.57 457.588V440.066H231.422V457.588H250.57ZM230.931 457.588V440.066H211.783V457.588H230.931ZM211.292 457.588L211.292 440.066H192.144L192.144 457.588H211.292ZM192.144 439.617H211.292V422.095H192.144V439.617ZM192.144 421.646H211.292V404.124H192.144V421.646ZM192.144 403.674H211.292V386.152H192.144V403.674ZM192.144 385.703H211.292V368.181H192.144V385.703ZM192.144 367.732H211.292V350.21H192.144V367.732ZM192.144 349.76H211.292V332.238H192.144V349.76ZM192.144 331.789H211.292V314.267H192.144V331.789ZM192.144 313.818H211.292V296.296H192.144V313.818ZM192.144 295.846H211.292V278.324H192.144V295.846ZM192.144 277.875H211.292V260.353H192.144V277.875ZM192.144 259.904H211.292V242.382H192.144V259.904ZM211.783 242.382V259.904H230.931V242.382H211.783ZM231.422 242.382V259.904H250.57V242.382H231.422ZM251.061 242.382V259.904L270.209 259.904V242.382H251.061ZM270.7 242.382V259.904H289.848V242.382H270.7ZM290.339 242.382V259.904H309.487V242.382H290.339ZM309.978 242.382V259.904H329.126V242.382H309.978ZM329.617 242.382V259.904H348.764V242.382H329.617ZM349.255 242.382V259.904H368.403V242.382L349.255 242.382ZM368.894 242.382V259.904H388.042V242.382H368.894ZM388.533 242.382V259.904H407.681V242.382H388.533ZM408.172 242.382V259.904H427.32V242.382H408.172ZM427.811 242.382V259.904H446.959V242.382H427.811ZM447.45 242.382V259.904H466.598V242.382H447.45ZM467.089 242.382V259.904H486.237V242.382H467.089ZM486.728 242.382V259.904H505.876V242.382H486.728ZM506.367 242.382V259.904H525.514V242.382H506.367ZM526.005 242.382V259.904H545.153V242.382H526.005ZM545.644 242.382V259.904H564.792V242.382H545.644ZM565.283 242.382V259.904H584.431V242.382H565.283ZM584.922 242.382V259.904H604.07V242.382H584.922ZM604.561 242.382V259.904L623.709 259.904V242.382H604.561ZM624.2 242.382V259.904H643.348V242.382H624.2ZM643.839 242.382V259.904H662.987V242.382H643.839ZM662.987 260.353H643.839V277.875H662.987V260.353ZM662.987 278.324H643.839V295.846H662.987V278.324ZM662.987 296.296H643.839V313.818H662.987V296.296ZM662.987 314.267H643.839V331.789H662.987V314.267ZM662.987 332.238H643.839V349.76H662.987V332.238ZM662.987 350.21H643.839V367.732H662.987V350.21ZM662.987 368.181H643.839V385.703H662.987V368.181ZM662.987 386.152H643.839V403.674H662.987V386.152ZM662.987 404.124H643.839V421.646H662.987V404.124ZM662.987 422.095H643.839V439.617H662.987V422.095ZM643.348 439.617V422.095H624.2V439.617H643.348ZM623.709 439.617V422.095H604.561V439.617H623.709ZM604.07 439.617V422.095H584.922V439.617H604.07ZM584.431 439.617V422.095H565.283V439.617H584.431ZM564.792 439.617V422.095H545.644V439.617H564.792ZM545.153 439.617V422.095H526.005V439.617H545.153ZM525.514 439.617V422.095H506.367V439.617H525.514ZM505.876 439.617V422.095H486.728V439.617H505.876ZM486.237 439.617V422.095H467.089V439.617H486.237ZM466.598 439.617V422.095H447.45V439.617H466.598ZM446.959 439.617V422.095L427.811 422.095V439.617L446.959 439.617ZM427.32 439.617V422.095H408.172V439.617H427.32ZM407.681 439.617V422.095H388.533V439.617H407.681ZM388.042 439.617V422.095H368.894V439.617H388.042ZM368.403 439.617V422.095H349.255V439.617H368.403ZM348.764 439.617V422.095H329.617V439.617H348.764ZM329.126 439.617V422.095H309.978V439.617H329.126ZM309.487 439.617V422.095H290.339V439.617H309.487ZM289.848 439.617V422.095H270.7V439.617H289.848ZM270.209 439.617V422.095H251.061V439.617H270.209ZM250.57 439.617V422.095H231.422V439.617H250.57ZM230.931 439.617V422.095H211.783V439.617H230.931ZM211.783 421.646H230.931V404.124H211.783V421.646ZM211.783 403.674H230.931V386.152H211.783V403.674ZM211.783 385.703H230.931V368.181H211.783V385.703ZM211.783 367.732H230.931V350.21H211.783V367.732ZM211.783 349.76H230.931L230.931 332.238H211.783L211.783 349.76ZM211.783 331.789H230.931V314.267H211.783V331.789ZM211.783 313.818H230.931V296.296H211.783V313.818ZM211.783 295.846H230.931V278.324H211.783V295.846ZM211.783 277.875H230.931V260.353H211.783V277.875ZM231.422 260.353V277.875H250.57V260.353H231.422ZM251.061 260.353V277.875L270.209 277.875V260.353L251.061 260.353ZM270.7 260.353V277.875H289.848V260.353H270.7ZM290.339 260.353V277.875H309.487V260.353H290.339ZM309.978 260.353V277.875H329.126V260.353H309.978ZM329.617 260.353V277.875H348.764V260.353H329.617ZM349.255 260.353V277.875H368.403V260.353H349.255ZM368.894 260.353V277.875H388.042V260.353H368.894ZM388.533 260.353V277.875H407.681V260.353H388.533ZM408.172 260.353V277.875H427.32V260.353H408.172ZM427.811 260.353V277.875H446.959V260.353H427.811ZM447.45 260.353V277.875H466.598V260.353H447.45ZM467.089 260.353V277.875H486.237V260.353H467.089ZM486.728 260.353V277.875H505.876V260.353H486.728ZM506.367 260.353V277.875H525.514V260.353H506.367ZM526.005 260.353V277.875H545.153V260.353H526.005ZM545.644 260.353V277.875H564.792V260.353H545.644ZM565.283 260.353V277.875H584.431V260.353H565.283ZM584.922 260.353V277.875H604.07V260.353H584.922ZM604.561 260.353V277.875L623.709 277.875V260.353L604.561 260.353ZM624.2 260.353V277.875H643.348V260.353H624.2ZM643.348 278.324H624.2V295.846H643.348V278.324ZM643.348 296.296H624.2V313.818H643.348V296.296ZM643.348 314.267H624.2V331.789H643.348V314.267ZM643.348 332.238H624.2V349.76H643.348V332.238ZM643.348 350.21H624.2V367.732H643.348V350.21ZM643.348 368.181H624.2V385.703H643.348V368.181ZM643.348 386.152H624.2V403.674H643.348V386.152ZM643.348 404.124H624.2V421.646H643.348V404.124ZM623.709 421.646V404.124H604.561V421.646H623.709ZM604.07 421.646V404.124H584.922V421.646H604.07ZM584.431 421.646V404.124H565.283V421.646H584.431ZM564.792 421.646V404.124H545.644V421.646H564.792ZM545.153 421.646V404.124H526.005V421.646H545.153ZM525.514 421.646V404.124H506.367V421.646H525.514ZM505.876 421.646V404.124H486.728V421.646H505.876ZM486.237 421.646V404.124H467.089V421.646H486.237ZM466.598 421.646V404.124H447.45V421.646H466.598ZM446.959 421.646V404.124L427.811 404.124V421.646L446.959 421.646ZM427.32 421.646V404.124H408.172V421.646H427.32ZM407.681 421.646V404.124H388.533V421.646H407.681ZM388.042 421.646V404.124H368.894V421.646H388.042ZM368.403 421.646V404.124H349.255V421.646H368.403ZM348.764 421.646V404.124H329.617V421.646H348.764ZM329.126 421.646V404.124H309.978V421.646H329.126ZM309.487 421.646V404.124H290.339V421.646H309.487ZM289.848 421.646V404.124H270.7V421.646H289.848ZM270.209 421.646V404.124H251.061V421.646H270.209ZM250.57 421.646V404.124H231.422V421.646H250.57ZM231.422 403.674H250.57V386.152H231.422V403.674ZM231.422 385.703H250.57V368.181H231.422V385.703ZM231.422 367.732H250.57V350.21H231.422V367.732ZM231.422 349.76H250.57L250.57 332.238H231.422L231.422 349.76ZM231.422 331.789H250.57V314.267H231.422V331.789ZM231.422 313.818H250.57V296.296H231.422V313.818ZM231.422 295.846H250.57V278.324H231.422V295.846ZM251.061 278.324V295.846L270.209 295.846V278.324L251.061 278.324ZM270.7 278.324V295.846H289.848V278.324H270.7ZM290.339 278.324V295.846H309.487V278.324H290.339ZM309.978 278.324V295.846H329.126V278.324H309.978ZM329.617 278.324V295.846H348.764V278.324H329.617ZM349.255 278.324V295.846H368.403V278.324H349.255ZM368.894 278.324V295.846H388.042V278.324H368.894ZM388.533 278.324V295.846H407.681V278.324H388.533ZM408.172 278.324V295.846H427.32V278.324H408.172ZM427.811 278.324V295.846H446.959V278.324H427.811ZM447.45 278.324V295.846H466.598V278.324H447.45ZM467.089 278.324V295.846H486.237V278.324H467.089ZM486.728 278.324V295.846H505.876V278.324H486.728ZM506.367 278.324V295.846H525.514V278.324H506.367ZM526.005 278.324V295.846H545.153V278.324H526.005ZM545.644 278.324V295.846H564.792V278.324H545.644ZM565.283 278.324V295.846H584.431V278.324H565.283ZM584.922 278.324V295.846H604.07V278.324H584.922ZM604.561 278.324V295.846L623.709 295.846V278.324L604.561 278.324ZM623.709 296.296L604.561 296.296V313.818H623.709V296.296ZM623.709 314.267H604.561V331.789L623.709 331.789V314.267ZM623.709 332.238L604.561 332.238V349.76H623.709V332.238ZM623.709 350.21L604.561 350.21V367.732L623.709 367.732V350.21ZM623.709 368.181H604.561V385.703H623.709V368.181ZM623.709 386.152H604.561V403.674H623.709V386.152ZM604.07 403.674V386.152H584.922V403.674H604.07ZM584.431 403.674V386.152H565.283V403.674H584.431ZM564.792 403.674V386.152H545.644V403.674H564.792ZM545.153 403.674V386.152H526.005V403.674H545.153ZM525.514 403.674V386.152H506.367V403.674H525.514ZM505.876 403.674V386.152H486.728V403.674H505.876ZM486.237 403.674V386.152H467.089V403.674H486.237ZM466.598 403.674V386.152H447.45V403.674H466.598ZM446.959 403.674V386.152L427.811 386.152V403.674L446.959 403.674ZM427.32 403.674V386.152H408.172V403.674H427.32ZM407.681 403.674V386.152H388.533V403.674H407.681ZM388.042 403.674V386.152H368.894V403.674H388.042ZM368.403 403.674V386.152H349.255V403.674H368.403ZM348.764 403.674V386.152H329.617V403.674H348.764ZM329.126 403.674V386.152H309.978V403.674H329.126ZM309.487 403.674V386.152H290.339V403.674H309.487ZM289.848 403.674V386.152H270.7V403.674H289.848ZM270.209 403.674V386.152H251.061V403.674H270.209ZM251.061 385.703H270.209V368.181L251.061 368.181V385.703ZM251.061 367.732H270.209V350.21L251.061 350.21V367.732ZM251.061 349.76L270.209 349.76L270.209 332.238L251.061 332.238L251.061 349.76ZM251.061 331.789H270.209V314.267L251.061 314.267V331.789ZM251.061 313.818L270.209 313.818V296.296L251.061 296.296V313.818ZM270.7 296.296V313.818H289.848V296.296H270.7ZM290.339 296.296V313.818H309.487V296.296H290.339ZM309.978 296.296V313.818H329.126V296.296H309.978ZM329.617 296.296V313.818H348.764V296.296H329.617ZM349.255 296.296V313.818H368.403V296.296H349.255ZM368.894 296.296V313.818H388.042V296.296H368.894ZM388.533 296.296V313.818H407.681V296.296H388.533ZM408.172 296.296V313.818H427.32V296.296H408.172ZM427.811 296.296V313.818H446.959V296.296H427.811ZM447.45 296.296V313.818H466.598V296.296H447.45ZM467.089 296.296V313.818H486.237V296.296H467.089ZM486.728 296.296V313.818H505.876V296.296H486.728ZM506.367 296.296V313.818H525.514V296.296H506.367ZM526.005 296.296V313.818H545.153V296.296H526.005ZM545.644 296.296V313.818H564.792V296.296H545.644ZM565.283 296.296V313.818H584.431V296.296H565.283ZM584.922 296.296V313.818H604.07V296.296H584.922ZM604.07 314.267H584.922V331.789H604.07V314.267ZM604.07 332.238H584.922V349.76H604.07V332.238ZM604.07 350.21H584.922V367.732H604.07V350.21ZM604.07 368.181H584.922V385.703H604.07V368.181ZM584.431 385.703V368.181H565.283V385.703H584.431ZM564.792 385.703V368.181H545.644V385.703H564.792ZM545.153 385.703V368.181H526.005V385.703H545.153ZM525.514 385.703V368.181H506.367V385.703H525.514ZM505.876 385.703V368.181H486.728V385.703H505.876ZM486.237 385.703V368.181H467.089V385.703H486.237ZM466.598 385.703V368.181H447.45V385.703H466.598ZM446.959 385.703V368.181H427.811V385.703L446.959 385.703ZM427.32 385.703V368.181H408.172V385.703H427.32ZM407.681 385.703V368.181H388.533V385.703H407.681ZM388.042 385.703V368.181H368.894V385.703H388.042ZM368.403 385.703V368.181H349.255V385.703H368.403ZM348.764 385.703V368.181H329.617V385.703H348.764ZM329.126 385.703V368.181H309.978V385.703H329.126ZM309.487 385.703V368.181H290.339V385.703H309.487ZM289.848 385.703V368.181H270.7V385.703H289.848ZM270.7 367.732H289.848V350.21H270.7V367.732ZM270.7 349.76H289.848L289.848 332.238H270.7L270.7 349.76ZM270.7 331.789H289.848V314.267H270.7V331.789ZM290.339 314.267V331.789H309.487V314.267H290.339ZM309.978 314.267V331.789H329.126V314.267H309.978ZM329.617 314.267V331.789H348.764V314.267H329.617ZM349.255 314.267V331.789H368.403V314.267H349.255ZM368.894 314.267V331.789H388.042V314.267H368.894ZM388.533 314.267V331.789H407.681V314.267H388.533ZM408.172 314.267V331.789H427.32V314.267H408.172ZM427.811 314.267V331.789H446.959V314.267H427.811ZM447.45 314.267V331.789H466.598V314.267H447.45ZM467.089 314.267V331.789H486.237V314.267H467.089ZM486.728 314.267V331.789H505.876V314.267H486.728ZM506.367 314.267V331.789H525.514V314.267H506.367ZM526.005 314.267V331.789H545.153V314.267H526.005ZM545.644 314.267V331.789H564.792V314.267H545.644ZM565.283 314.267V331.789H584.431V314.267H565.283ZM584.431 332.238H565.283V349.76H584.431V332.238ZM584.431 350.21H565.283V367.732H584.431V350.21ZM564.792 367.732V350.21H545.644V367.732H564.792ZM545.153 367.732V350.21H526.005V367.732H545.153ZM525.514 367.732V350.21H506.367V367.732H525.514ZM505.876 367.732V350.21H486.728V367.732H505.876ZM486.237 367.732V350.21H467.089V367.732H486.237ZM466.598 367.732V350.21H447.45V367.732H466.598ZM446.959 367.732V350.21H427.811V367.732H446.959ZM427.32 367.732V350.21H408.172V367.732H427.32ZM407.681 367.732V350.21H388.533V367.732H407.681ZM388.042 367.732V350.21H368.894V367.732H388.042ZM368.403 367.732V350.21H349.255V367.732H368.403ZM348.764 367.732V350.21H329.617V367.732H348.764ZM329.126 367.732V350.21H309.978V367.732H329.126ZM309.487 367.732V350.21H290.339V367.732H309.487ZM290.339 349.76H309.487L309.487 332.238H290.339V349.76ZM309.978 332.238V349.76H329.126V332.238H309.978ZM329.617 332.238L329.617 349.76H348.764V332.238H329.617ZM349.255 332.238V349.76H368.403V332.238H349.255ZM368.894 332.238V349.76H388.042V332.238H368.894ZM388.533 332.238V349.76H407.681V332.238H388.533ZM408.172 332.238V349.76H427.32V332.238H408.172ZM427.811 332.238V349.76H446.959V332.238H427.811ZM447.45 332.238V349.76H466.598V332.238H447.45ZM467.089 332.238V349.76H486.237V332.238H467.089ZM486.728 332.238V349.76H505.876V332.238H486.728ZM506.367 332.238V349.76H525.514V332.238H506.367ZM526.005 332.238V349.76H545.153V332.238H526.005ZM545.644 332.238V349.76H564.792V332.238H545.644Z" fill="url(#paint0_radial_0_15)"/>
<g id="Ellipse 1" opacity="0.5" filter="url(#filter0_f_0_15)">
<ellipse cx="397.489" cy="356.661" rx="199.339" ry="109.241" fill="var(--fill-0, #A90831)"/>
</g>
<g id="Ellipse 2" opacity="0.5" filter="url(#filter1_f_0_15)">
<ellipse cx="578.6" cy="283.404" rx="116.512" ry="85.2534" fill="var(--fill-0, #A5C4D6)"/>
</g>
</g>
<defs>
<filter id="filter0_f_0_15" x="0" y="49.2695" width="794.979" height="614.783" filterUnits="userSpaceOnUse" color-interpolation-filters="sRGB">
<feFlood flood-opacity="0" result="BackgroundImageFix"/>
<feBlend mode="normal" in="SourceGraphic" in2="BackgroundImageFix" result="shape"/>
<feGaussianBlur stdDeviation="99.0751" result="effect1_foregroundBlur_0_15"/>
</filter>
<filter id="filter1_f_0_15" x="263.938" y="0" width="629.325" height="566.807" filterUnits="userSpaceOnUse" color-interpolation-filters="sRGB">
<feFlood flood-opacity="0" result="BackgroundImageFix"/>
<feBlend mode="normal" in="SourceGraphic" in2="BackgroundImageFix" result="shape"/>
<feGaussianBlur stdDeviation="99.0751" result="effect1_foregroundBlur_0_15"/>
</filter>
<radialGradient id="paint0_radial_0_15" cx="0" cy="0" r="1" gradientUnits="userSpaceOnUse" gradientTransform="translate(439.103 340.775) rotate(90) scale(184.121 327.016)">
<stop stop-color="#869CA5"/>
<stop offset="1" stop-color="#869CA5" stop-opacity="0"/>
</radialGradient>
</defs>
</svg>
