<svg preserveAspectRatio="none" width="100%" height="100%" overflow="visible" style="display: block;" viewBox="0 0 921 555" fill="none" xmlns="http://www.w3.org/2000/svg">
<path id="Vector (Stroke)" opacity="0.4" fill-rule="evenodd" clip-rule="evenodd" d="M61.4 39.4638V0H62.0396V39.4638H86.9833V0H87.6229V39.4638H112.567V0H113.206V39.4638L138.15 39.4639V0H138.79V39.4639H163.733V0H164.373V39.4639H189.317V0H189.956V39.4639H214.9V0H215.54V39.4639H240.483V0H241.123V39.4639H266.067V0H266.706V39.4639H291.65V0H292.29V39.4639L317.233 39.4639V0H317.873V39.4639H342.817V0H343.456V39.4639H368.4V0H369.04V39.4639H393.983V0H394.623V39.4639L419.567 39.4639V0H420.206V39.4639H445.15V0H445.79V39.4639L470.733 39.4639V0H471.373V39.4639H496.317V0H496.956V39.4639H521.9V0H522.54V39.4639H547.483V0H548.123V39.4639L573.067 39.4639V0H573.706V39.4639H598.65V0H599.29V39.4639L624.233 39.4639V0H624.873V39.4639H649.817V0H650.456V39.4639H675.4V0H676.04V39.4639H700.983V0H701.623V39.4639H726.567V0H727.206V39.4639L752.15 39.4639V0H752.79V39.4639H777.733V0H778.373V39.4639L803.317 39.4639V0H803.956V39.4639H828.9V0H829.54V39.4639L854.483 39.4639V0H855.123V39.4639H921V40.0903L855.123 40.0903V64.5203H921V65.1467H855.123V89.5768H921V90.2032H855.123V114.633H921V115.26H855.123V139.69H921V140.316H855.123V164.746H921V165.372H855.123V189.802H921V190.429H855.123V214.859H921V215.485H855.123V239.915H921V240.542H855.123V264.972H921V265.598H855.123V290.028H921V290.655H855.123V315.085H921V315.711H855.123V340.141H921V340.768H855.123V365.198H921V365.824H855.123V390.254H921V390.88H855.123V415.31H921V415.937H855.123V440.367H921V440.993H855.123V465.423H921V466.05H855.123V490.48H921V491.106H855.123V515.536H921V516.163H855.123V555H854.483V516.163H829.54V555H828.9V516.163H803.956V555H803.317V516.163H778.373V555H777.733V516.163H752.79V555H752.15V516.163H727.206V555H726.567V516.163H701.623V555H700.983V516.163H676.04V555H675.4V516.163H650.456V555H649.817V516.163H624.873V555H624.233V516.163H599.29V555H598.65V516.163H573.706V555H573.067V516.163H548.123V555H547.483V516.163H522.54V555H521.9V516.163H496.956V555H496.317V516.163H471.373V555H470.733V516.163H445.79V555H445.15V516.163H420.206V555H419.567V516.163H394.623V555H393.983V516.163H369.04V555H368.4V516.163H343.456V555H342.817V516.163H317.873V555H317.233V516.163H292.29V555H291.65V516.163H266.706V555H266.067V516.163H241.123V555H240.483V516.163H215.54V555H214.9V516.163H189.956V555H189.317V516.163H164.373V555H163.733V516.163H138.79V555H138.15V516.163H113.206V555H112.567V516.163H87.6229V555H86.9833V516.163H62.0396V555H61.4V516.163H0V515.536H61.4V491.106H0V490.48H61.4L61.4 466.05H0V465.423H61.4V440.993H0V440.367H61.4V415.937H0V415.31H61.4V390.88H0V390.254H61.4V365.824H0V365.197H61.4L61.4 340.767H0V340.141H61.4V315.711H0V315.085H61.4V290.655H0V290.028H61.4V265.598H0V264.972H61.4V240.542H0V239.915H61.4V215.485H0V214.859H61.4L61.4 190.429H0V189.802H61.4V165.372H0V164.746H61.4V140.316H0V139.69H61.4V115.26H0V114.633H61.4V90.2031H0V89.5767H61.4L61.4 65.1467L0 65.1467V64.5203L61.4 64.5203V40.0903L0 40.0903V39.4638L61.4 39.4638ZM62.0396 40.0903V64.5203H86.9833V40.0903H62.0396ZM87.6229 40.0903V64.5203H112.567V40.0903H87.6229ZM113.206 40.0903V64.5203H138.15V40.0903L113.206 40.0903ZM138.79 40.0903V64.5203H163.733V40.0903H138.79ZM164.373 40.0903V64.5203H189.317V40.0903H164.373ZM189.956 40.0903V64.5203H214.9V40.0903H189.956ZM215.54 40.0903V64.5203H240.483V40.0903H215.54ZM241.123 40.0903V64.5203L266.067 64.5203V40.0903H241.123ZM266.706 40.0903V64.5203H291.65V40.0903H266.706ZM292.29 40.0903V64.5203H317.233V40.0903L292.29 40.0903ZM317.873 40.0903V64.5203H342.817V40.0903H317.873ZM343.456 40.0903V64.5203L368.4 64.5203V40.0903L343.456 40.0903ZM369.04 40.0903V64.5203H393.983V40.0903H369.04ZM394.623 40.0903V64.5203H419.567V40.0903L394.623 40.0903ZM420.206 40.0903V64.5203H445.15V40.0903H420.206ZM445.79 40.0903V64.5203H470.733V40.0903H445.79ZM471.373 40.0903V64.5203H496.317V40.0903H471.373ZM496.956 40.0903V64.5203H521.9V40.0903L496.956 40.0903ZM522.54 40.0903V64.5203H547.483V40.0903H522.54ZM548.123 40.0903V64.5203L573.067 64.5203V40.0903L548.123 40.0903ZM573.706 40.0903V64.5203H598.65V40.0903H573.706ZM599.29 40.0903V64.5203H624.233V40.0903H599.29ZM624.873 40.0903V64.5203H649.817V40.0903H624.873ZM650.456 40.0903V64.5203L675.4 64.5203V40.0903H650.456ZM676.04 40.0903V64.5203H700.983V40.0903L676.04 40.0903ZM701.623 40.0903V64.5203H726.567V40.0903H701.623ZM727.206 40.0903V64.5203H752.15V40.0903L727.206 40.0903ZM752.79 40.0903V64.5203L777.733 64.5203V40.0903H752.79ZM778.373 40.0903V64.5203H803.317V40.0903H778.373ZM803.956 40.0903V64.5203H828.9V40.0903H803.956ZM829.54 40.0903V64.5203H854.483V40.0903L829.54 40.0903ZM854.483 65.1467H829.54V89.5768H854.483V65.1467ZM854.483 90.2032H829.54V114.633H854.483V90.2032ZM854.483 115.26H829.54V139.69H854.483V115.26ZM854.483 140.316H829.54V164.746H854.483V140.316ZM854.483 165.372H829.54V189.802H854.483V165.372ZM854.483 190.429H829.54V214.859H854.483V190.429ZM854.483 215.485H829.54V239.915H854.483V215.485ZM854.483 240.542H829.54V264.972H854.483V240.542ZM854.483 265.598H829.54V290.028H854.483V265.598ZM854.483 290.655H829.54V315.085H854.483V290.655ZM854.483 315.711H829.54V340.141H854.483V315.711ZM854.483 340.768H829.54V365.198H854.483V340.768ZM854.483 365.824H829.54V390.254H854.483V365.824ZM854.483 390.88H829.54V415.31H854.483V390.88ZM854.483 415.937H829.54V440.367H854.483V415.937ZM854.483 440.993H829.54V465.423H854.483V440.993ZM854.483 466.05H829.54V490.48H854.483V466.05ZM854.483 491.106H829.54V515.536H854.483V491.106ZM828.9 515.536V491.106H803.956V515.536H828.9ZM803.317 515.536V491.106H778.373V515.536H803.317ZM777.733 515.536V491.106H752.79V515.536H777.733ZM752.15 515.536V491.106H727.206V515.536H752.15ZM726.567 515.536V491.106H701.623V515.536H726.567ZM700.983 515.536V491.106H676.04V515.536H700.983ZM675.4 515.536V491.106H650.456V515.536H675.4ZM649.817 515.536V491.106H624.873V515.536H649.817ZM624.233 515.536V491.106H599.29V515.536H624.233ZM598.65 515.536V491.106H573.706V515.536H598.65ZM573.067 515.536V491.106H548.123V515.536H573.067ZM547.483 515.536V491.106H522.54V515.536H547.483ZM521.9 515.536V491.106H496.956V515.536H521.9ZM496.317 515.536V491.106H471.373V515.536H496.317ZM470.733 515.536V491.106L445.79 491.106V515.536L470.733 515.536ZM445.15 515.536V491.106H420.206V515.536H445.15ZM419.567 515.536V491.106H394.623V515.536H419.567ZM393.983 515.536V491.106H369.04V515.536H393.983ZM368.4 515.536V491.106H343.456V515.536H368.4ZM342.817 515.536V491.106H317.873V515.536H342.817ZM317.233 515.536V491.106H292.29V515.536H317.233ZM291.65 515.536V491.106H266.706V515.536H291.65ZM266.067 515.536V491.106H241.123V515.536H266.067ZM240.483 515.536V491.106H215.54V515.536H240.483ZM214.9 515.536V491.106H189.956V515.536H214.9ZM189.317 515.536V491.106H164.373V515.536H189.317ZM163.733 515.536V491.106H138.79V515.536H163.733ZM138.15 515.536V491.106H113.206V515.536H138.15ZM112.567 515.536V491.106H87.6229V515.536H112.567ZM86.9833 515.536V491.106H62.0396V515.536H86.9833ZM62.0396 490.48H86.9833V466.05H62.0396L62.0396 490.48ZM62.0396 465.423H86.9833V440.993H62.0396V465.423ZM62.0396 440.367H86.9833L86.9833 415.937H62.0396V440.367ZM62.0396 415.31H86.9833V390.88H62.0396V415.31ZM62.0396 390.254H86.9833V365.824H62.0396V390.254ZM62.0396 365.197H86.9833V340.767H62.0396L62.0396 365.197ZM62.0396 340.141H86.9833V315.711H62.0396V340.141ZM62.0396 315.085H86.9833V290.655H62.0396V315.085ZM62.0396 290.028H86.9833V265.598H62.0396V290.028ZM62.0396 264.972H86.9833V240.542H62.0396V264.972ZM62.0396 239.915H86.9833V215.485H62.0396V239.915ZM62.0396 214.859H86.9833V190.429H62.0396L62.0396 214.859ZM62.0396 189.802H86.9833V165.372H62.0396V189.802ZM62.0396 164.746H86.9833V140.316H62.0396V164.746ZM62.0396 139.69H86.9833L86.9833 115.26H62.0396V139.69ZM62.0396 114.633H86.9833V90.2031H62.0396V114.633ZM62.0396 89.5767H86.9833V65.1467H62.0396L62.0396 89.5767ZM87.6229 65.1467V89.5767H112.567V65.1467H87.6229ZM113.206 65.1467V89.5767L138.15 89.5767V65.1467H113.206ZM138.79 65.1467V89.5767H163.733V65.1467H138.79ZM164.373 65.1467V89.5767H189.317V65.1467H164.373ZM189.956 65.1467V89.5767H214.9V65.1467H189.956ZM215.54 65.1467V89.5767H240.483V65.1467H215.54ZM241.123 65.1467V89.5767H266.067V65.1467L241.123 65.1467ZM266.706 65.1467V89.5767H291.65V65.1467H266.706ZM292.29 65.1467V89.5767H317.233V65.1467H292.29ZM317.873 65.1467V89.5767H342.817V65.1467H317.873ZM343.456 65.1467V89.5767L368.4 89.5767V65.1467L343.456 65.1467ZM369.04 65.1467V89.5767H393.983V65.1467H369.04ZM394.623 65.1467V89.5767H419.567V65.1467H394.623ZM420.206 65.1467V89.5767H445.15V65.1467H420.206ZM445.79 65.1467V89.5767H470.733V65.1467H445.79ZM471.373 65.1467V89.5767H496.317V65.1467H471.373ZM496.956 65.1467V89.5767H521.9V65.1467H496.956ZM522.54 65.1467V89.5767H547.483V65.1467H522.54ZM548.123 65.1467V89.5767H573.067V65.1467L548.123 65.1467ZM573.706 65.1467V89.5767L598.65 89.5767V65.1467H573.706ZM599.29 65.1467V89.5767H624.233V65.1467H599.29ZM624.873 65.1467V89.5767H649.817V65.1467H624.873ZM650.456 65.1467V89.5767H675.4V65.1467L650.456 65.1467ZM676.04 65.1467V89.5767H700.983V65.1467H676.04ZM701.623 65.1467V89.5767H726.567V65.1467H701.623ZM727.206 65.1467V89.5767H752.15V65.1467H727.206ZM752.79 65.1467V89.5767H777.733V65.1467L752.79 65.1467ZM778.373 65.1467V89.5767H803.317V65.1467H778.373ZM803.956 65.1467V89.5767L828.9 89.5768V65.1467H803.956ZM828.9 90.2032L803.956 90.2031V114.633L828.9 114.633V90.2032ZM828.9 115.26L803.956 115.26V139.69L828.9 139.69V115.26ZM828.9 140.316L803.956 140.316V164.746H828.9V140.316ZM828.9 165.372H803.956V189.802H828.9V165.372ZM828.9 190.429H803.956V214.859H828.9V190.429ZM828.9 215.485H803.956V239.915H828.9V215.485ZM828.9 240.542H803.956V264.972H828.9V240.542ZM828.9 265.598H803.956V290.028H828.9V265.598ZM828.9 290.655H803.956V315.085H828.9V290.655ZM828.9 315.711H803.956V340.141H828.9V315.711ZM828.9 340.768H803.956V365.198H828.9V340.768ZM828.9 365.824H803.956V390.254H828.9V365.824ZM828.9 390.88H803.956V415.31H828.9V390.88ZM828.9 415.937H803.956V440.367H828.9V415.937ZM828.9 440.993H803.956V465.423H828.9V440.993ZM828.9 466.05H803.956V490.48H828.9V466.05ZM803.317 490.48V466.05H778.373V490.48H803.317ZM777.733 490.48V466.05H752.79V490.48H777.733ZM752.15 490.48V466.05H727.206V490.48H752.15ZM726.567 490.48V466.05H701.623V490.48H726.567ZM700.983 490.48V466.05H676.04V490.48H700.983ZM675.4 490.48V466.05H650.456V490.48H675.4ZM649.817 490.48V466.05H624.873V490.48H649.817ZM624.233 490.48V466.05H599.29V490.48H624.233ZM598.65 490.48V466.05H573.706V490.48H598.65ZM573.067 490.48V466.05H548.123V490.48H573.067ZM547.483 490.48V466.05H522.54V490.48H547.483ZM521.9 490.48V466.05H496.956V490.48H521.9ZM496.317 490.48V466.05H471.373V490.48H496.317ZM470.733 490.48V466.05L445.79 466.05V490.48L470.733 490.48ZM445.15 490.48V466.05H420.206V490.48H445.15ZM419.567 490.48V466.05H394.623V490.48H419.567ZM393.983 490.48V466.05H369.04V490.48H393.983ZM368.4 490.48V466.05H343.456V490.48H368.4ZM342.817 490.48V466.05H317.873V490.48H342.817ZM317.233 490.48V466.05H292.29V490.48H317.233ZM291.65 490.48V466.05H266.706V490.48H291.65ZM266.067 490.48V466.05H241.123V490.48H266.067ZM240.483 490.48V466.05H215.54V490.48H240.483ZM214.9 490.48V466.05H189.956V490.48H214.9ZM189.317 490.48V466.05H164.373V490.48H189.317ZM163.733 490.48V466.05H138.79V490.48H163.733ZM138.15 490.48V466.05H113.206V490.48H138.15ZM112.567 490.48V466.05H87.6229V490.48H112.567ZM87.6229 465.423H112.567V440.993H87.6229V465.423ZM87.6229 440.367H112.567L112.567 415.937H87.6229L87.6229 440.367ZM87.6229 415.31H112.567V390.88H87.6229V415.31ZM87.6229 390.254H112.567V365.824H87.6229V390.254ZM87.6229 365.197H112.567V340.767H87.6229V365.197ZM87.6229 340.141H112.567V315.711H87.6229V340.141ZM87.6229 315.085H112.567V290.655H87.6229V315.085ZM87.6229 290.028H112.567V265.598H87.6229V290.028ZM87.6229 264.972H112.567V240.542H87.6229V264.972ZM87.6229 239.915H112.567V215.485H87.6229V239.915ZM87.6229 214.859H112.567V190.429H87.6229V214.859ZM87.6229 189.802H112.567V165.372H87.6229V189.802ZM87.6229 164.746H112.567V140.316H87.6229V164.746ZM87.6229 139.69H112.567L112.567 115.26H87.6229L87.6229 139.69ZM87.6229 114.633H112.567V90.2031H87.6229V114.633ZM113.206 90.2031V114.633L138.15 114.633V90.2031L113.206 90.2031ZM138.79 90.2031V114.633H163.733V90.2031H138.79ZM164.373 90.2031V114.633H189.317V90.2031H164.373ZM189.956 90.2031V114.633H214.9V90.2031H189.956ZM215.54 90.2031V114.633H240.483V90.2031H215.54ZM241.123 90.2031V114.633H266.067V90.2031H241.123ZM266.706 90.2031V114.633H291.65V90.2031H266.706ZM292.29 90.2031V114.633H317.233V90.2031H292.29ZM317.873 90.2031V114.633H342.817V90.2031H317.873ZM343.456 90.2031V114.633L368.4 114.633V90.2031L343.456 90.2031ZM369.04 90.2031V114.633H393.983V90.2031H369.04ZM394.623 90.2031V114.633H419.567V90.2031H394.623ZM420.206 90.2031V114.633H445.15V90.2031H420.206ZM445.79 90.2031V114.633H470.733V90.2031H445.79ZM471.373 90.2031V114.633H496.317V90.2031H471.373ZM496.956 90.2031V114.633H521.9V90.2031H496.956ZM522.54 90.2031V114.633H547.483V90.2031H522.54ZM548.123 90.2031V114.633H573.067V90.2031H548.123ZM573.706 90.2031V114.633L598.65 114.633V90.2031L573.706 90.2031ZM599.29 90.2031V114.633H624.233V90.2031H599.29ZM624.873 90.2031V114.633H649.817V90.2031H624.873ZM650.456 90.2031V114.633H675.4V90.2031H650.456ZM676.04 90.2031V114.633H700.983V90.2031H676.04ZM701.623 90.2031V114.633H726.567V90.2031H701.623ZM727.206 90.2031V114.633H752.15V90.2031H727.206ZM752.79 90.2031V114.633H777.733V90.2031H752.79ZM778.373 90.2031V114.633H803.317V90.2031H778.373ZM803.317 115.26H778.373V139.69H803.317V115.26ZM803.317 140.316H778.373V164.746H803.317V140.316ZM803.317 165.372H778.373V189.802H803.317V165.372ZM803.317 190.429H778.373V214.859H803.317V190.429ZM803.317 215.485H778.373V239.915H803.317V215.485ZM803.317 240.542H778.373V264.972H803.317V240.542ZM803.317 265.598H778.373V290.028H803.317V265.598ZM803.317 290.655H778.373V315.085H803.317V290.655ZM803.317 315.711H778.373V340.141H803.317V315.711ZM803.317 340.768H778.373V365.198H803.317V340.768ZM803.317 365.824H778.373V390.254H803.317V365.824ZM803.317 390.88H778.373V415.31H803.317V390.88ZM803.317 415.937H778.373V440.367H803.317V415.937ZM803.317 440.993H778.373V465.423H803.317V440.993ZM777.733 465.423V440.993H752.79V465.423H777.733ZM752.15 465.423V440.993H727.206V465.423H752.15ZM726.567 465.423V440.993H701.623V465.423H726.567ZM700.983 465.423V440.993H676.04V465.423H700.983ZM675.4 465.423V440.993H650.456V465.423H675.4ZM649.817 465.423V440.993H624.873V465.423H649.817ZM624.233 465.423V440.993H599.29V465.423H624.233ZM598.65 465.423V440.993H573.706V465.423H598.65ZM573.067 465.423V440.993H548.123V465.423H573.067ZM547.483 465.423V440.993H522.54V465.423H547.483ZM521.9 465.423V440.993H496.956V465.423H521.9ZM496.317 465.423V440.993H471.373V465.423H496.317ZM470.733 465.423V440.993L445.79 440.993V465.423L470.733 465.423ZM445.15 465.423V440.993H420.206V465.423H445.15ZM419.567 465.423V440.993H394.623V465.423H419.567ZM393.983 465.423V440.993H369.04V465.423H393.983ZM368.4 465.423V440.993H343.456V465.423H368.4ZM342.817 465.423V440.993H317.873V465.423H342.817ZM317.233 465.423V440.993H292.29V465.423H317.233ZM291.65 465.423V440.993H266.706V465.423H291.65ZM266.067 465.423V440.993H241.123V465.423H266.067ZM240.483 465.423V440.993H215.54V465.423H240.483ZM214.9 465.423V440.993H189.956V465.423H214.9ZM189.317 465.423V440.993H164.373V465.423H189.317ZM163.733 465.423V440.993H138.79V465.423H163.733ZM138.15 465.423V440.993H113.206V465.423H138.15ZM113.206 440.367H138.15L138.15 415.937H113.206L113.206 440.367ZM113.206 415.31H138.15V390.88H113.206V415.31ZM113.206 390.254H138.15V365.824H113.206V390.254ZM113.206 365.197H138.15V340.767H113.206V365.197ZM113.206 340.141H138.15V315.711H113.206V340.141ZM113.206 315.085H138.15V290.655H113.206V315.085ZM113.206 290.028H138.15V265.598H113.206V290.028ZM113.206 264.972H138.15V240.542H113.206V264.972ZM113.206 239.915H138.15V215.485H113.206V239.915ZM113.206 214.859H138.15V190.429H113.206V214.859ZM113.206 189.802H138.15V165.372H113.206V189.802ZM113.206 164.746H138.15V140.316L113.206 140.316V164.746ZM113.206 139.69L138.15 139.69L138.15 115.26L113.206 115.26L113.206 139.69ZM138.79 115.26V139.69H163.733V115.26H138.79ZM164.373 115.26V139.69H189.317V115.26H164.373ZM189.956 115.26V139.69H214.9V115.26H189.956ZM215.54 115.26V139.69H240.483V115.26H215.54ZM241.123 115.26V139.69H266.067V115.26H241.123ZM266.706 115.26V139.69H291.65V115.26H266.706ZM292.29 115.26V139.69H317.233V115.26H292.29ZM317.873 115.26V139.69H342.817V115.26H317.873ZM343.456 115.26V139.69L368.4 139.69V115.26L343.456 115.26ZM369.04 115.26V139.69H393.983V115.26H369.04ZM394.623 115.26V139.69H419.567V115.26H394.623ZM420.206 115.26V139.69H445.15V115.26H420.206ZM445.79 115.26V139.69H470.733V115.26H445.79ZM471.373 115.26V139.69H496.317V115.26H471.373ZM496.956 115.26V139.69H521.9V115.26H496.956ZM522.54 115.26V139.69H547.483V115.26H522.54ZM548.123 115.26V139.69H573.067V115.26H548.123ZM573.706 115.26V139.69H598.65V115.26L573.706 115.26ZM599.29 115.26V139.69H624.233V115.26H599.29ZM624.873 115.26V139.69H649.817V115.26H624.873ZM650.456 115.26V139.69H675.4V115.26H650.456ZM676.04 115.26V139.69H700.983V115.26H676.04ZM701.623 115.26V139.69H726.567V115.26H701.623ZM727.206 115.26V139.69H752.15V115.26H727.206ZM752.79 115.26V139.69H777.733V115.26H752.79ZM777.733 140.316H752.79V164.746H777.733V140.316ZM777.733 165.372H752.79V189.802H777.733V165.372ZM777.733 190.429H752.79V214.859H777.733V190.429ZM777.733 215.485H752.79V239.915H777.733V215.485ZM777.733 240.542H752.79V264.972H777.733V240.542ZM777.733 265.598H752.79V290.028H777.733V265.598ZM777.733 290.655H752.79V315.085H777.733V290.655ZM777.733 315.711H752.79V340.141H777.733V315.711ZM777.733 340.768H752.79V365.198H777.733V340.768ZM777.733 365.824H752.79V390.254H777.733V365.824ZM777.733 390.88H752.79V415.31H777.733V390.88ZM777.733 415.937H752.79V440.367H777.733V415.937ZM752.15 440.367V415.937H727.206V440.367H752.15ZM726.567 440.367V415.937H701.623V440.367H726.567ZM700.983 440.367V415.937H676.04V440.367H700.983ZM675.4 440.367V415.937H650.456V440.367H675.4ZM649.817 440.367V415.937H624.873V440.367H649.817ZM624.233 440.367V415.937H599.29V440.367H624.233ZM598.65 440.367V415.937H573.706V440.367H598.65ZM573.067 440.367V415.937H548.123V440.367H573.067ZM547.483 440.367V415.937H522.54V440.367H547.483ZM521.9 440.367V415.937H496.956V440.367H521.9ZM496.317 440.367V415.937H471.373V440.367H496.317ZM470.733 440.367V415.937L445.79 415.937V440.367L470.733 440.367ZM445.15 440.367V415.937H420.206V440.367H445.15ZM419.567 440.367V415.937H394.623V440.367H419.567ZM393.983 440.367V415.937H369.04V440.367H393.983ZM368.4 440.367V415.937H343.456V440.367H368.4ZM342.817 440.367V415.937H317.873V440.367H342.817ZM317.233 440.367V415.937H292.29V440.367H317.233ZM291.65 440.367V415.937H266.706V440.367H291.65ZM266.067 440.367V415.937H241.123V440.367H266.067ZM240.483 440.367V415.937H215.54V440.367H240.483ZM214.9 440.367V415.937H189.956V440.367H214.9ZM189.317 440.367V415.937H164.373V440.367H189.317ZM163.733 440.367L163.733 415.937H138.79L138.79 440.367H163.733ZM138.79 415.31H163.733V390.88H138.79V415.31ZM138.79 390.254H163.733V365.824H138.79V390.254ZM138.79 365.197H163.733V340.767H138.79V365.197ZM138.79 340.141H163.733V315.711H138.79V340.141ZM138.79 315.085H163.733V290.655H138.79V315.085ZM138.79 290.028H163.733V265.598H138.79V290.028ZM138.79 264.972H163.733V240.542H138.79V264.972ZM138.79 239.915H163.733V215.485H138.79V239.915ZM138.79 214.859H163.733V190.429H138.79V214.859ZM138.79 189.802H163.733V165.372H138.79V189.802ZM138.79 164.746H163.733V140.316H138.79V164.746ZM164.373 140.316V164.746H189.317V140.316H164.373ZM189.956 140.316V164.746H214.9V140.316H189.956ZM215.54 140.316V164.746L240.483 164.746V140.316H215.54ZM241.123 140.316V164.746H266.067V140.316H241.123ZM266.706 140.316V164.746H291.65V140.316H266.706ZM292.29 140.316V164.746H317.233V140.316H292.29ZM317.873 140.316V164.746H342.817V140.316H317.873ZM343.456 140.316V164.746H368.4V140.316L343.456 140.316ZM369.04 140.316V164.746H393.983V140.316H369.04ZM394.623 140.316V164.746H419.567V140.316H394.623ZM420.206 140.316V164.746H445.15V140.316H420.206ZM445.79 140.316V164.746H470.733V140.316H445.79ZM471.373 140.316V164.746H496.317V140.316H471.373ZM496.956 140.316V164.746H521.9V140.316H496.956ZM522.54 140.316V164.746H547.483V140.316H522.54ZM548.123 140.316V164.746H573.067V140.316H548.123ZM573.706 140.316V164.746H598.65V140.316H573.706ZM599.29 140.316V164.746H624.233V140.316H599.29ZM624.873 140.316V164.746H649.817V140.316H624.873ZM650.456 140.316V164.746H675.4V140.316H650.456ZM676.04 140.316V164.746L700.983 164.746V140.316H676.04ZM701.623 140.316V164.746H726.567V140.316H701.623ZM727.206 140.316V164.746H752.15V140.316H727.206ZM752.15 165.372H727.206V189.802H752.15V165.372ZM752.15 190.429H727.206V214.859H752.15V190.429ZM752.15 215.485H727.206V239.915H752.15V215.485ZM752.15 240.542H727.206V264.972H752.15V240.542ZM752.15 265.598H727.206V290.028H752.15V265.598ZM752.15 290.655H727.206V315.085H752.15V290.655ZM752.15 315.711H727.206V340.141H752.15V315.711ZM752.15 340.768H727.206V365.198H752.15V340.768ZM752.15 365.824H727.206V390.254H752.15V365.824ZM752.15 390.88H727.206V415.31H752.15V390.88ZM726.567 415.31V390.88H701.623V415.31H726.567ZM700.983 415.31V390.88H676.04V415.31H700.983ZM675.4 415.31V390.88H650.456V415.31H675.4ZM649.817 415.31V390.88H624.873V415.31H649.817ZM624.233 415.31V390.88H599.29V415.31H624.233ZM598.65 415.31V390.88H573.706V415.31H598.65ZM573.067 415.31V390.88H548.123V415.31H573.067ZM547.483 415.31V390.88H522.54V415.31H547.483ZM521.9 415.31V390.88H496.956V415.31H521.9ZM496.317 415.31V390.88H471.373V415.31H496.317ZM470.733 415.31V390.88L445.79 390.88V415.31L470.733 415.31ZM445.15 415.31V390.88H420.206V415.31H445.15ZM419.567 415.31V390.88H394.623V415.31H419.567ZM393.983 415.31V390.88H369.04V415.31H393.983ZM368.4 415.31V390.88H343.456V415.31H368.4ZM342.817 415.31V390.88H317.873V415.31H342.817ZM317.233 415.31V390.88H292.29V415.31H317.233ZM291.65 415.31V390.88H266.706V415.31H291.65ZM266.067 415.31V390.88H241.123V415.31H266.067ZM240.483 415.31V390.88H215.54V415.31H240.483ZM214.9 415.31V390.88H189.956V415.31H214.9ZM189.317 415.31V390.88H164.373V415.31H189.317ZM164.373 390.254H189.317V365.824H164.373V390.254ZM164.373 365.197H189.317V340.767H164.373V365.197ZM164.373 340.141H189.317V315.711H164.373V340.141ZM164.373 315.085H189.317V290.655H164.373V315.085ZM164.373 290.028H189.317L189.317 265.598H164.373L164.373 290.028ZM164.373 264.972H189.317V240.542H164.373V264.972ZM164.373 239.915H189.317V215.485H164.373V239.915ZM164.373 214.859H189.317V190.429H164.373V214.859ZM164.373 189.802H189.317V165.372H164.373V189.802ZM189.956 165.372V189.802H214.9V165.372H189.956ZM215.54 165.372V189.802L240.483 189.802V165.372L215.54 165.372ZM241.123 165.372V189.802H266.067V165.372H241.123ZM266.706 165.372V189.802H291.65V165.372H266.706ZM292.29 165.372V189.802H317.233V165.372H292.29ZM317.873 165.372V189.802H342.817V165.372H317.873ZM343.456 165.372V189.802H368.4V165.372H343.456ZM369.04 165.372V189.802H393.983V165.372H369.04ZM394.623 165.372V189.802H419.567V165.372H394.623ZM420.206 165.372V189.802H445.15V165.372H420.206ZM445.79 165.372V189.802H470.733V165.372H445.79ZM471.373 165.372V189.802H496.317V165.372H471.373ZM496.956 165.372V189.802H521.9V165.372H496.956ZM522.54 165.372V189.802H547.483V165.372H522.54ZM548.123 165.372V189.802H573.067V165.372H548.123ZM573.706 165.372V189.802H598.65V165.372H573.706ZM599.29 165.372V189.802H624.233V165.372H599.29ZM624.873 165.372V189.802H649.817V165.372H624.873ZM650.456 165.372V189.802H675.4V165.372H650.456ZM676.04 165.372V189.802L700.983 189.802V165.372L676.04 165.372ZM701.623 165.372V189.802H726.567V165.372H701.623ZM726.567 190.429H701.623V214.859H726.567V190.429ZM726.567 215.485H701.623V239.915H726.567V215.485ZM726.567 240.542H701.623V264.972H726.567V240.542ZM726.567 265.598H701.623V290.028H726.567V265.598ZM726.567 290.655H701.623V315.085H726.567V290.655ZM726.567 315.711H701.623V340.141H726.567V315.711ZM726.567 340.768H701.623V365.198H726.567V340.768ZM726.567 365.824H701.623V390.254H726.567V365.824ZM700.983 390.254V365.824H676.04V390.254H700.983ZM675.4 390.254V365.824H650.456V390.254H675.4ZM649.817 390.254V365.824H624.873V390.254H649.817ZM624.233 390.254V365.824H599.29V390.254H624.233ZM598.65 390.254V365.824H573.706V390.254H598.65ZM573.067 390.254V365.824H548.123V390.254H573.067ZM547.483 390.254V365.824H522.54V390.254H547.483ZM521.9 390.254V365.824H496.956V390.254H521.9ZM496.317 390.254V365.824H471.373V390.254H496.317ZM470.733 390.254V365.824L445.79 365.824V390.254L470.733 390.254ZM445.15 390.254V365.824H420.206V390.254H445.15ZM419.567 390.254V365.824H394.623V390.254H419.567ZM393.983 390.254V365.824H369.04V390.254H393.983ZM368.4 390.254V365.824H343.456V390.254H368.4ZM342.817 390.254V365.824H317.873V390.254H342.817ZM317.233 390.254V365.824H292.29V390.254H317.233ZM291.65 390.254V365.824H266.706V390.254H291.65ZM266.067 390.254V365.824H241.123V390.254H266.067ZM240.483 390.254V365.824H215.54V390.254H240.483ZM214.9 390.254V365.824H189.956V390.254H214.9ZM189.956 365.197H214.9V340.767H189.956V365.197ZM189.956 340.141H214.9V315.711H189.956V340.141ZM189.956 315.085H214.9V290.655H189.956V315.085ZM189.956 290.028H214.9L214.9 265.598H189.956L189.956 290.028ZM189.956 264.972H214.9V240.542H189.956V264.972ZM189.956 239.915H214.9V215.485H189.956V239.915ZM189.956 214.859H214.9V190.429H189.956V214.859ZM215.54 190.429V214.859L240.483 214.859V190.429L215.54 190.429ZM241.123 190.429V214.859H266.067V190.429H241.123ZM266.706 190.429V214.859H291.65V190.429H266.706ZM292.29 190.429V214.859H317.233V190.429H292.29ZM317.873 190.429V214.859H342.817V190.429H317.873ZM343.456 190.429V214.859H368.4V190.429H343.456ZM369.04 190.429V214.859H393.983V190.429H369.04ZM394.623 190.429V214.859H419.567V190.429H394.623ZM420.206 190.429V214.859H445.15V190.429H420.206ZM445.79 190.429V214.859H470.733V190.429H445.79ZM471.373 190.429V214.859H496.317V190.429H471.373ZM496.956 190.429V214.859H521.9V190.429H496.956ZM522.54 190.429V214.859H547.483V190.429H522.54ZM548.123 190.429V214.859H573.067V190.429H548.123ZM573.706 190.429V214.859H598.65V190.429H573.706ZM599.29 190.429V214.859H624.233V190.429H599.29ZM624.873 190.429V214.859H649.817V190.429H624.873ZM650.456 190.429V214.859H675.4V190.429H650.456ZM676.04 190.429V214.859L700.983 214.859V190.429L676.04 190.429ZM700.983 215.485L676.04 215.485V239.915H700.983V215.485ZM700.983 240.542H676.04V264.972L700.983 264.972V240.542ZM700.983 265.598L676.04 265.598V290.028H700.983V265.598ZM700.983 290.655L676.04 290.655V315.085L700.983 315.085V290.655ZM700.983 315.711H676.04V340.141H700.983V315.711ZM700.983 340.768H676.04V365.198H700.983V340.768ZM675.4 365.198V340.768H650.456V365.198H675.4ZM649.817 365.198V340.768H624.873V365.198H649.817ZM624.233 365.198V340.768H599.29V365.198H624.233ZM598.65 365.198V340.768H573.706V365.198H598.65ZM573.067 365.198V340.768H548.123V365.198H573.067ZM547.483 365.198V340.768H522.54V365.198H547.483ZM521.9 365.198V340.768H496.956V365.198H521.9ZM496.317 365.198V340.768H471.373V365.198H496.317ZM470.733 365.198V340.768L445.79 340.767V365.197L470.733 365.198ZM445.15 365.197V340.767H420.206V365.197H445.15ZM419.567 365.197V340.767H394.623V365.197H419.567ZM393.983 365.197V340.767H369.04V365.197H393.983ZM368.4 365.197V340.767H343.456V365.197H368.4ZM342.817 365.197V340.767H317.873V365.197H342.817ZM317.233 365.197V340.767H292.29V365.197H317.233ZM291.65 365.197V340.767H266.706V365.197H291.65ZM266.067 365.197V340.767H241.123V365.197H266.067ZM240.483 365.197V340.767H215.54V365.197H240.483ZM215.54 340.141H240.483V315.711L215.54 315.711V340.141ZM215.54 315.085H240.483V290.655L215.54 290.655V315.085ZM215.54 290.028L240.483 290.028L240.483 265.598L215.54 265.598L215.54 290.028ZM215.54 264.972H240.483V240.542L215.54 240.542V264.972ZM215.54 239.915L240.483 239.915V215.485L215.54 215.485V239.915ZM241.123 215.485V239.915H266.067V215.485H241.123ZM266.706 215.485V239.915H291.65V215.485H266.706ZM292.29 215.485V239.915H317.233V215.485H292.29ZM317.873 215.485V239.915H342.817V215.485H317.873ZM343.456 215.485V239.915H368.4V215.485H343.456ZM369.04 215.485V239.915H393.983V215.485H369.04ZM394.623 215.485V239.915H419.567V215.485H394.623ZM420.206 215.485V239.915H445.15V215.485H420.206ZM445.79 215.485V239.915H470.733V215.485H445.79ZM471.373 215.485V239.915H496.317V215.485H471.373ZM496.956 215.485V239.915H521.9V215.485H496.956ZM522.54 215.485V239.915H547.483V215.485H522.54ZM548.123 215.485V239.915H573.067V215.485H548.123ZM573.706 215.485V239.915H598.65V215.485H573.706ZM599.29 215.485V239.915H624.233V215.485H599.29ZM624.873 215.485V239.915H649.817V215.485H624.873ZM650.456 215.485V239.915H675.4V215.485H650.456ZM675.4 240.542H650.456V264.972H675.4V240.542ZM675.4 265.598H650.456V290.028H675.4V265.598ZM675.4 290.655H650.456V315.085H675.4V290.655ZM675.4 315.711H650.456V340.141H675.4V315.711ZM649.817 340.141V315.711H624.873V340.141H649.817ZM624.233 340.141V315.711H599.29V340.141H624.233ZM598.65 340.141V315.711H573.706V340.141H598.65ZM573.067 340.141V315.711H548.123V340.141H573.067ZM547.483 340.141V315.711H522.54V340.141H547.483ZM521.9 340.141V315.711H496.956V340.141H521.9ZM496.317 340.141V315.711H471.373V340.141H496.317ZM470.733 340.141V315.711H445.79V340.141L470.733 340.141ZM445.15 340.141V315.711H420.206V340.141H445.15ZM419.567 340.141V315.711H394.623V340.141H419.567ZM393.983 340.141V315.711H369.04V340.141H393.983ZM368.4 340.141V315.711H343.456V340.141H368.4ZM342.817 340.141V315.711H317.873V340.141H342.817ZM317.233 340.141V315.711H292.29V340.141H317.233ZM291.65 340.141V315.711H266.706V340.141H291.65ZM266.067 340.141V315.711H241.123V340.141H266.067ZM241.123 315.085H266.067V290.655H241.123V315.085ZM241.123 290.028H266.067L266.067 265.598H241.123L241.123 290.028ZM241.123 264.972H266.067V240.542H241.123V264.972ZM266.706 240.542V264.972H291.65V240.542H266.706ZM292.29 240.542V264.972H317.233V240.542H292.29ZM317.873 240.542V264.972H342.817V240.542H317.873ZM343.456 240.542V264.972H368.4V240.542H343.456ZM369.04 240.542V264.972H393.983V240.542H369.04ZM394.623 240.542V264.972H419.567V240.542H394.623ZM420.206 240.542V264.972H445.15V240.542H420.206ZM445.79 240.542V264.972H470.733V240.542H445.79ZM471.373 240.542V264.972H496.317V240.542H471.373ZM496.956 240.542V264.972H521.9V240.542H496.956ZM522.54 240.542V264.972H547.483V240.542H522.54ZM548.123 240.542V264.972H573.067V240.542H548.123ZM573.706 240.542V264.972H598.65V240.542H573.706ZM599.29 240.542V264.972H624.233V240.542H599.29ZM624.873 240.542V264.972H649.817V240.542H624.873ZM649.817 265.598H624.873V290.028H649.817V265.598ZM649.817 290.655H624.873V315.085H649.817V290.655ZM624.233 315.085V290.655H599.29V315.085H624.233ZM598.65 315.085V290.655H573.706V315.085H598.65ZM573.067 315.085V290.655H548.123V315.085H573.067ZM547.483 315.085V290.655H522.54V315.085H547.483ZM521.9 315.085V290.655H496.956V315.085H521.9ZM496.317 315.085V290.655H471.373V315.085H496.317ZM470.733 315.085V290.655H445.79V315.085H470.733ZM445.15 315.085V290.655H420.206V315.085H445.15ZM419.567 315.085V290.655H394.623V315.085H419.567ZM393.983 315.085V290.655H369.04V315.085H393.983ZM368.4 315.085V290.655H343.456V315.085H368.4ZM342.817 315.085V290.655H317.873V315.085H342.817ZM317.233 315.085V290.655H292.29V315.085H317.233ZM291.65 315.085V290.655H266.706V315.085H291.65ZM266.706 290.028H291.65L291.65 265.598H266.706V290.028ZM292.29 265.598V290.028H317.233V265.598H292.29ZM317.873 265.598L317.873 290.028H342.817V265.598H317.873ZM343.456 265.598V290.028H368.4V265.598H343.456ZM369.04 265.598V290.028H393.983V265.598H369.04ZM394.623 265.598V290.028H419.567V265.598H394.623ZM420.206 265.598V290.028H445.15V265.598H420.206ZM445.79 265.598V290.028H470.733V265.598H445.79ZM471.373 265.598V290.028H496.317V265.598H471.373ZM496.956 265.598V290.028H521.9V265.598H496.956ZM522.54 265.598V290.028H547.483V265.598H522.54ZM548.123 265.598V290.028H573.067V265.598H548.123ZM573.706 265.598V290.028H598.65V265.598H573.706ZM599.29 265.598V290.028H624.233V265.598H599.29Z" fill="url(#paint0_radial_0_4)"/>
<defs>
<radialGradient id="paint0_radial_0_4" cx="0" cy="0" r="1" gradientUnits="userSpaceOnUse" gradientTransform="translate(460.5 277.5) rotate(90) scale(256.71 426)">
<stop stop-color="#869CA5"/>
<stop offset="1" stop-color="#869CA5" stop-opacity="0"/>
</radialGradient>
</defs>
</svg>
