<svg preserveAspectRatio="none" width="100%" height="100%" overflow="visible" style="display: block;" viewBox="0 0 1127 913" fill="none" xmlns="http://www.w3.org/2000/svg">
<g id="bg-blur" opacity="0.8">
<path id="Vector (Stroke)" opacity="0.4" fill-rule="evenodd" clip-rule="evenodd" d="M167.467 206.659V163H168.086V206.659H192.244V163H192.864V206.659H217.022V163H217.642V206.659L241.8 206.659V163H242.419V206.659H266.578V163H267.197V206.659H291.356V163H291.975V206.659H316.133V163H316.753V206.659H340.911V163H341.531V206.659H365.689V163H366.308V206.659H390.467V163H391.086V206.659L415.244 206.659V163H415.864V206.659H440.022V163H440.642V206.659H464.8V163H465.419V206.659H489.578V163H490.197V206.659L514.356 206.659V163H514.975V206.659H539.133V163H539.753V206.659L563.911 206.659V163H564.531V206.659H588.689V163H589.308V206.659H613.467V163H614.086V206.659H638.244V163H638.864V206.659L663.022 206.659V163H663.642V206.659H687.8V163H688.419V206.659L712.578 206.659V163H713.197V206.659H737.356V163H737.975V206.659H762.133V163H762.753V206.659H786.911V163H787.531V206.659H811.689V163H812.308V206.659L836.467 206.659V163H837.086V206.659H861.245V163H861.864V206.659L886.022 206.659V163H886.642V206.659H910.8V163H911.419V206.659L935.578 206.659V163H936.197V206.659H1000V207.352L936.197 207.352V234.379H1000V235.072H936.197V262.099H1000V262.792H936.197V289.819H1000V290.512H936.197V317.54H1000V318.233H936.197V345.26H1000V345.953H936.197V372.98H1000V373.673H936.197V400.7H1000V401.393H936.197V428.42H1000V429.113H936.197V456.14H1000V456.833H936.197V483.86H1000V484.553H936.197V511.58H1000V512.273H936.197V539.3H1000V539.993H936.197V567.02H1000V567.713H936.197V594.74H1000V595.433H936.197V622.461H1000V623.154H936.197V650.181H1000V650.874H936.197V677.901H1000V678.594H936.197V705.621H1000V706.314H936.197V733.341H1000V734.034H936.197V777H935.578V734.034H911.419V777H910.8V734.034H886.642V777H886.022V734.034H861.864V777H861.245V734.034H837.086V777H836.467V734.034H812.308V777H811.689V734.034H787.531V777H786.911V734.034H762.753V777H762.133V734.034H737.975V777H737.356V734.034H713.197V777H712.578V734.034H688.419V777H687.8V734.034H663.642V777H663.022V734.034H638.864V777H638.244V734.034H614.086V777H613.467V734.034H589.308V777H588.689V734.034H564.531V777H563.911V734.034H539.753V777H539.133V734.034H514.975V777H514.356V734.034H490.197V777H489.578V734.034H465.419V777H464.8V734.034H440.642V777H440.022V734.034H415.864V777H415.244V734.034H391.086V777H390.467V734.034H366.308V777H365.689V734.034H341.531V777H340.911V734.034H316.753V777H316.133V734.034H291.975V777H291.356V734.034H267.197V777H266.578V734.034H242.419V777H241.8V734.034H217.642V777H217.022V734.034H192.864V777H192.244V734.034H168.086V777H167.467V734.034H108V733.341H167.467V706.314H108V705.621H167.467L167.467 678.594H108V677.901H167.467V650.874H108V650.181H167.467V623.153H108V622.46H167.467V595.433H108V594.74H167.467V567.713H108V567.02H167.467L167.467 539.993H108V539.3H167.467V512.273H108V511.58H167.467V484.553H108V483.86H167.467V456.833H108V456.14H167.467V429.113H108V428.42H167.467V401.393H108V400.7H167.467L167.467 373.673H108V372.98H167.467V345.953H108V345.26H167.467V318.232H108V317.539H167.467V290.512H108V289.819H167.467V262.792H108V262.099H167.467L167.467 235.072L108 235.072V234.379L167.467 234.379V207.352L108 207.352V206.659L167.467 206.659ZM168.086 207.352V234.379H192.244V207.352H168.086ZM192.864 207.352V234.379H217.022V207.352H192.864ZM217.642 207.352V234.379H241.8V207.352L217.642 207.352ZM242.419 207.352V234.379H266.578V207.352H242.419ZM267.197 207.352V234.379H291.356V207.352H267.197ZM291.975 207.352V234.379H316.133V207.352H291.975ZM316.753 207.352V234.379H340.911V207.352H316.753ZM341.531 207.352V234.379L365.689 234.379V207.352H341.531ZM366.308 207.352V234.379H390.467V207.352H366.308ZM391.086 207.352V234.379H415.244V207.352L391.086 207.352ZM415.864 207.352V234.379H440.022V207.352H415.864ZM440.642 207.352V234.379L464.8 234.379V207.352L440.642 207.352ZM465.419 207.352V234.379H489.578V207.352H465.419ZM490.197 207.352V234.379H514.356V207.352L490.197 207.352ZM514.975 207.352V234.379H539.133V207.352H514.975ZM539.753 207.352V234.379H563.911V207.352H539.753ZM564.531 207.352V234.379H588.689V207.352H564.531ZM589.308 207.352V234.379H613.467V207.352L589.308 207.352ZM614.086 207.352V234.379H638.244V207.352H614.086ZM638.864 207.352V234.379L663.022 234.379V207.352L638.864 207.352ZM663.642 207.352V234.379H687.8V207.352H663.642ZM688.419 207.352V234.379H712.578V207.352H688.419ZM713.197 207.352V234.379H737.356V207.352H713.197ZM737.975 207.352V234.379L762.133 234.379V207.352H737.975ZM762.753 207.352V234.379H786.911V207.352L762.753 207.352ZM787.531 207.352V234.379H811.689V207.352H787.531ZM812.308 207.352V234.379H836.467V207.352L812.308 207.352ZM837.086 207.352V234.379L861.245 234.379V207.352H837.086ZM861.864 207.352V234.379H886.022V207.352H861.864ZM886.642 207.352V234.379H910.8V207.352H886.642ZM911.419 207.352V234.379H935.578V207.352L911.419 207.352ZM935.578 235.072H911.419V262.099H935.578V235.072ZM935.578 262.792H911.419V289.819H935.578V262.792ZM935.578 290.512H911.419V317.54H935.578V290.512ZM935.578 318.233H911.419V345.26H935.578V318.233ZM935.578 345.953H911.419V372.98H935.578V345.953ZM935.578 373.673H911.419V400.7H935.578V373.673ZM935.578 401.393H911.419V428.42H935.578V401.393ZM935.578 429.113H911.419V456.14H935.578V429.113ZM935.578 456.833H911.419V483.86H935.578V456.833ZM935.578 484.553H911.419V511.58H935.578V484.553ZM935.578 512.273H911.419V539.3H935.578V512.273ZM935.578 539.993H911.419V567.02H935.578V539.993ZM935.578 567.713H911.419V594.74H935.578V567.713ZM935.578 595.433H911.419V622.461H935.578V595.433ZM935.578 623.154H911.419V650.181H935.578V623.154ZM935.578 650.874H911.419V677.901H935.578V650.874ZM935.578 678.594H911.419V705.621H935.578V678.594ZM935.578 706.314H911.419V733.341H935.578V706.314ZM910.8 733.341V706.314H886.642V733.341H910.8ZM886.022 733.341V706.314H861.864V733.341H886.022ZM861.245 733.341V706.314H837.086V733.341H861.245ZM836.467 733.341V706.314H812.308V733.341H836.467ZM811.689 733.341V706.314H787.531V733.341H811.689ZM786.911 733.341V706.314H762.753V733.341H786.911ZM762.133 733.341V706.314H737.975V733.341H762.133ZM737.356 733.341V706.314H713.197V733.341H737.356ZM712.578 733.341V706.314H688.419V733.341H712.578ZM687.8 733.341V706.314H663.642V733.341H687.8ZM663.022 733.341V706.314H638.864V733.341H663.022ZM638.244 733.341V706.314H614.086V733.341H638.244ZM613.467 733.341V706.314H589.308V733.341H613.467ZM588.689 733.341V706.314H564.531V733.341H588.689ZM563.911 733.341V706.314L539.753 706.314V733.341L563.911 733.341ZM539.133 733.341V706.314H514.975V733.341H539.133ZM514.356 733.341V706.314H490.197V733.341H514.356ZM489.578 733.341V706.314H465.419V733.341H489.578ZM464.8 733.341V706.314H440.642V733.341H464.8ZM440.022 733.341V706.314H415.864V733.341H440.022ZM415.244 733.341V706.314H391.086V733.341H415.244ZM390.467 733.341V706.314H366.308V733.341H390.467ZM365.689 733.341V706.314H341.531V733.341H365.689ZM340.911 733.341V706.314H316.753V733.341H340.911ZM316.133 733.341V706.314H291.975V733.341H316.133ZM291.356 733.341V706.314H267.197V733.341H291.356ZM266.578 733.341V706.314H242.419V733.341H266.578ZM241.8 733.341V706.314H217.642V733.341H241.8ZM217.022 733.341V706.314H192.864V733.341H217.022ZM192.244 733.341V706.314H168.086V733.341H192.244ZM168.086 705.621H192.244V678.594H168.086L168.086 705.621ZM168.086 677.901H192.244V650.874H168.086V677.901ZM168.086 650.181H192.244L192.244 623.153H168.086V650.181ZM168.086 622.46H192.244V595.433H168.086V622.46ZM168.086 594.74H192.244V567.713H168.086V594.74ZM168.086 567.02H192.244V539.993H168.086L168.086 567.02ZM168.086 539.3H192.244V512.273H168.086V539.3ZM168.086 511.58H192.244V484.553H168.086V511.58ZM168.086 483.86H192.244V456.833H168.086V483.86ZM168.086 456.14H192.244V429.113H168.086V456.14ZM168.086 428.42H192.244V401.393H168.086V428.42ZM168.086 400.7H192.244V373.673H168.086L168.086 400.7ZM168.086 372.98H192.244V345.953H168.086V372.98ZM168.086 345.26H192.244V318.232H168.086V345.26ZM168.086 317.539H192.244L192.244 290.512H168.086V317.539ZM168.086 289.819H192.244V262.792H168.086V289.819ZM168.086 262.099H192.244V235.072H168.086L168.086 262.099ZM192.864 235.072V262.099H217.022V235.072H192.864ZM217.642 235.072V262.099L241.8 262.099V235.072H217.642ZM242.419 235.072V262.099H266.578V235.072H242.419ZM267.197 235.072V262.099H291.356V235.072H267.197ZM291.975 235.072V262.099H316.133V235.072H291.975ZM316.753 235.072V262.099H340.911V235.072H316.753ZM341.531 235.072V262.099H365.689V235.072L341.531 235.072ZM366.308 235.072V262.099H390.467V235.072H366.308ZM391.086 235.072V262.099H415.244V235.072H391.086ZM415.864 235.072V262.099H440.022V235.072H415.864ZM440.642 235.072V262.099L464.8 262.099V235.072L440.642 235.072ZM465.419 235.072V262.099H489.578V235.072H465.419ZM490.197 235.072V262.099H514.356V235.072H490.197ZM514.975 235.072V262.099H539.133V235.072H514.975ZM539.753 235.072V262.099H563.911V235.072H539.753ZM564.531 235.072V262.099H588.689V235.072H564.531ZM589.308 235.072V262.099H613.467V235.072H589.308ZM614.086 235.072V262.099H638.244V235.072H614.086ZM638.864 235.072V262.099H663.022V235.072L638.864 235.072ZM663.642 235.072V262.099L687.8 262.099V235.072H663.642ZM688.419 235.072V262.099H712.578V235.072H688.419ZM713.197 235.072V262.099H737.356V235.072H713.197ZM737.975 235.072V262.099H762.133V235.072L737.975 235.072ZM762.753 235.072V262.099H786.911V235.072H762.753ZM787.531 235.072V262.099H811.689V235.072H787.531ZM812.308 235.072V262.099H836.467V235.072H812.308ZM837.086 235.072V262.099H861.245V235.072L837.086 235.072ZM861.864 235.072V262.099H886.022V235.072H861.864ZM886.642 235.072V262.099L910.8 262.099V235.072H886.642ZM910.8 262.792L886.642 262.792V289.819L910.8 289.819V262.792ZM910.8 290.512L886.642 290.512V317.539L910.8 317.54V290.512ZM910.8 318.233L886.642 318.232V345.26H910.8V318.233ZM910.8 345.953H886.642V372.98H910.8V345.953ZM910.8 373.673H886.642V400.7H910.8V373.673ZM910.8 401.393H886.642V428.42H910.8V401.393ZM910.8 429.113H886.642V456.14H910.8V429.113ZM910.8 456.833H886.642V483.86H910.8V456.833ZM910.8 484.553H886.642V511.58H910.8V484.553ZM910.8 512.273H886.642V539.3H910.8V512.273ZM910.8 539.993H886.642V567.02H910.8V539.993ZM910.8 567.713H886.642V594.74H910.8V567.713ZM910.8 595.433H886.642V622.461H910.8V595.433ZM910.8 623.154H886.642V650.181H910.8V623.154ZM910.8 650.874H886.642V677.901H910.8V650.874ZM910.8 678.594H886.642V705.621H910.8V678.594ZM886.022 705.621V678.594H861.864V705.621H886.022ZM861.245 705.621V678.594H837.086V705.621H861.245ZM836.467 705.621V678.594H812.308V705.621H836.467ZM811.689 705.621V678.594H787.531V705.621H811.689ZM786.911 705.621V678.594H762.753V705.621H786.911ZM762.133 705.621V678.594H737.975V705.621H762.133ZM737.356 705.621V678.594H713.197V705.621H737.356ZM712.578 705.621V678.594H688.419V705.621H712.578ZM687.8 705.621V678.594H663.642V705.621H687.8ZM663.022 705.621V678.594H638.864V705.621H663.022ZM638.244 705.621V678.594H614.086V705.621H638.244ZM613.467 705.621V678.594H589.308V705.621H613.467ZM588.689 705.621V678.594H564.531V705.621H588.689ZM563.911 705.621V678.594L539.753 678.594V705.621L563.911 705.621ZM539.133 705.621V678.594H514.975V705.621H539.133ZM514.356 705.621V678.594H490.197V705.621H514.356ZM489.578 705.621V678.594H465.419V705.621H489.578ZM464.8 705.621V678.594H440.642V705.621H464.8ZM440.022 705.621V678.594H415.864V705.621H440.022ZM415.244 705.621V678.594H391.086V705.621H415.244ZM390.467 705.621V678.594H366.308V705.621H390.467ZM365.689 705.621V678.594H341.531V705.621H365.689ZM340.911 705.621V678.594H316.753V705.621H340.911ZM316.133 705.621V678.594H291.975V705.621H316.133ZM291.356 705.621V678.594H267.197V705.621H291.356ZM266.578 705.621V678.594H242.419V705.621H266.578ZM241.8 705.621V678.594H217.642V705.621H241.8ZM217.022 705.621V678.594H192.864V705.621H217.022ZM192.864 677.901H217.022V650.874H192.864V677.901ZM192.864 650.181H217.022L217.022 623.153H192.864L192.864 650.181ZM192.864 622.46H217.022V595.433H192.864V622.46ZM192.864 594.74H217.022V567.713H192.864V594.74ZM192.864 567.02H217.022V539.993H192.864V567.02ZM192.864 539.3H217.022V512.273H192.864V539.3ZM192.864 511.58H217.022V484.553H192.864V511.58ZM192.864 483.86H217.022V456.833H192.864V483.86ZM192.864 456.14H217.022V429.113H192.864V456.14ZM192.864 428.42H217.022V401.393H192.864V428.42ZM192.864 400.7H217.022V373.673H192.864V400.7ZM192.864 372.98H217.022V345.953H192.864V372.98ZM192.864 345.26H217.022V318.232H192.864V345.26ZM192.864 317.539H217.022L217.022 290.512H192.864L192.864 317.539ZM192.864 289.819H217.022V262.792H192.864V289.819ZM217.642 262.792V289.819L241.8 289.819V262.792L217.642 262.792ZM242.419 262.792V289.819H266.578V262.792H242.419ZM267.197 262.792V289.819H291.356V262.792H267.197ZM291.975 262.792V289.819H316.133V262.792H291.975ZM316.753 262.792V289.819H340.911V262.792H316.753ZM341.531 262.792V289.819H365.689V262.792H341.531ZM366.308 262.792V289.819H390.467V262.792H366.308ZM391.086 262.792V289.819H415.244V262.792H391.086ZM415.864 262.792V289.819H440.022V262.792H415.864ZM440.642 262.792V289.819L464.8 289.819V262.792L440.642 262.792ZM465.419 262.792V289.819H489.578V262.792H465.419ZM490.197 262.792V289.819H514.356V262.792H490.197ZM514.975 262.792V289.819H539.133V262.792H514.975ZM539.753 262.792V289.819H563.911V262.792H539.753ZM564.531 262.792V289.819H588.689V262.792H564.531ZM589.308 262.792V289.819H613.467V262.792H589.308ZM614.086 262.792V289.819H638.244V262.792H614.086ZM638.864 262.792V289.819H663.022V262.792H638.864ZM663.642 262.792V289.819L687.8 289.819V262.792L663.642 262.792ZM688.419 262.792V289.819H712.578V262.792H688.419ZM713.197 262.792V289.819H737.356V262.792H713.197ZM737.975 262.792V289.819H762.133V262.792H737.975ZM762.753 262.792V289.819H786.911V262.792H762.753ZM787.531 262.792V289.819H811.689V262.792H787.531ZM812.308 262.792V289.819H836.467V262.792H812.308ZM837.086 262.792V289.819H861.245V262.792H837.086ZM861.864 262.792V289.819H886.022V262.792H861.864ZM886.022 290.512H861.864V317.539H886.022V290.512ZM886.022 318.232H861.864V345.26H886.022V318.232ZM886.022 345.953H861.864V372.98H886.022V345.953ZM886.022 373.673H861.864V400.7H886.022V373.673ZM886.022 401.393H861.864V428.42H886.022V401.393ZM886.022 429.113H861.864V456.14H886.022V429.113ZM886.022 456.833H861.864V483.86H886.022V456.833ZM886.022 484.553H861.864V511.58H886.022V484.553ZM886.022 512.273H861.864V539.3H886.022V512.273ZM886.022 539.993H861.864V567.02H886.022V539.993ZM886.022 567.713H861.864V594.74H886.022V567.713ZM886.022 595.433H861.864V622.461H886.022V595.433ZM886.022 623.154H861.864V650.181H886.022V623.154ZM886.022 650.874H861.864V677.901H886.022V650.874ZM861.245 677.901V650.874H837.086V677.901H861.245ZM836.467 677.901V650.874H812.308V677.901H836.467ZM811.689 677.901V650.874H787.531V677.901H811.689ZM786.911 677.901V650.874H762.753V677.901H786.911ZM762.133 677.901V650.874H737.975V677.901H762.133ZM737.356 677.901V650.874H713.197V677.901H737.356ZM712.578 677.901V650.874H688.419V677.901H712.578ZM687.8 677.901V650.874H663.642V677.901H687.8ZM663.022 677.901V650.874H638.864V677.901H663.022ZM638.244 677.901V650.874H614.086V677.901H638.244ZM613.467 677.901V650.874H589.308V677.901H613.467ZM588.689 677.901V650.874H564.531V677.901H588.689ZM563.911 677.901V650.874L539.753 650.874V677.901L563.911 677.901ZM539.133 677.901V650.874H514.975V677.901H539.133ZM514.356 677.901V650.874H490.197V677.901H514.356ZM489.578 677.901V650.874H465.419V677.901H489.578ZM464.8 677.901V650.874H440.642V677.901H464.8ZM440.022 677.901V650.874H415.864V677.901H440.022ZM415.244 677.901V650.874H391.086V677.901H415.244ZM390.467 677.901V650.874H366.308V677.901H390.467ZM365.689 677.901V650.874H341.531V677.901H365.689ZM340.911 677.901V650.874H316.753V677.901H340.911ZM316.133 677.901V650.874H291.975V677.901H316.133ZM291.356 677.901V650.874H267.197V677.901H291.356ZM266.578 677.901V650.874H242.419V677.901H266.578ZM241.8 677.901V650.874H217.642V677.901H241.8ZM217.642 650.181H241.8L241.8 623.153H217.642L217.642 650.181ZM217.642 622.46H241.8V595.433H217.642V622.46ZM217.642 594.74H241.8V567.713H217.642V594.74ZM217.642 567.02H241.8V539.993H217.642V567.02ZM217.642 539.3H241.8V512.273H217.642V539.3ZM217.642 511.58H241.8V484.553H217.642V511.58ZM217.642 483.86H241.8V456.833H217.642V483.86ZM217.642 456.14H241.8V429.113H217.642V456.14ZM217.642 428.42H241.8V401.393H217.642V428.42ZM217.642 400.7H241.8V373.673H217.642V400.7ZM217.642 372.98H241.8V345.953H217.642V372.98ZM217.642 345.26H241.8V318.232L217.642 318.232V345.26ZM217.642 317.539L241.8 317.539L241.8 290.512L217.642 290.512L217.642 317.539ZM242.419 290.512V317.539H266.578V290.512H242.419ZM267.197 290.512V317.539H291.356V290.512H267.197ZM291.975 290.512V317.539H316.133V290.512H291.975ZM316.753 290.512V317.539H340.911V290.512H316.753ZM341.531 290.512V317.539H365.689V290.512H341.531ZM366.308 290.512V317.539H390.467V290.512H366.308ZM391.086 290.512V317.539H415.244V290.512H391.086ZM415.864 290.512V317.539H440.022V290.512H415.864ZM440.642 290.512V317.539L464.8 317.539V290.512L440.642 290.512ZM465.419 290.512V317.539H489.578V290.512H465.419ZM490.197 290.512V317.539H514.356V290.512H490.197ZM514.975 290.512V317.539H539.133V290.512H514.975ZM539.753 290.512V317.539H563.911V290.512H539.753ZM564.531 290.512V317.539H588.689V290.512H564.531ZM589.308 290.512V317.539H613.467V290.512H589.308ZM614.086 290.512V317.539H638.244V290.512H614.086ZM638.864 290.512V317.539H663.022V290.512H638.864ZM663.642 290.512V317.539H687.8V290.512L663.642 290.512ZM688.419 290.512V317.539H712.578V290.512H688.419ZM713.197 290.512V317.539H737.356V290.512H713.197ZM737.975 290.512V317.539H762.133V290.512H737.975ZM762.753 290.512V317.539H786.911V290.512H762.753ZM787.531 290.512V317.539H811.689V290.512H787.531ZM812.308 290.512V317.539H836.467V290.512H812.308ZM837.086 290.512V317.539H861.245V290.512H837.086ZM861.245 318.232H837.086V345.26H861.245V318.232ZM861.245 345.953H837.086V372.98H861.245V345.953ZM861.245 373.673H837.086V400.7H861.245V373.673ZM861.245 401.393H837.086V428.42H861.245V401.393ZM861.245 429.113H837.086V456.14H861.245V429.113ZM861.245 456.833H837.086V483.86H861.245V456.833ZM861.245 484.553H837.086V511.58H861.245V484.553ZM861.245 512.273H837.086V539.3H861.245V512.273ZM861.245 539.993H837.086V567.02H861.245V539.993ZM861.245 567.713H837.086V594.74H861.245V567.713ZM861.245 595.433H837.086V622.461H861.245V595.433ZM861.245 623.154H837.086V650.181H861.245V623.154ZM836.467 650.181V623.154H812.308V650.181H836.467ZM811.689 650.181V623.154H787.531V650.181H811.689ZM786.911 650.181V623.154H762.753V650.181H786.911ZM762.133 650.181V623.154H737.975V650.181H762.133ZM737.356 650.181V623.154H713.197V650.181H737.356ZM712.578 650.181V623.154H688.419V650.181H712.578ZM687.8 650.181V623.154H663.642V650.181H687.8ZM663.022 650.181V623.154H638.864V650.181H663.022ZM638.244 650.181V623.154H614.086V650.181H638.244ZM613.467 650.181V623.154H589.308V650.181H613.467ZM588.689 650.181V623.154H564.531V650.181H588.689ZM563.911 650.181V623.154L539.753 623.153V650.181L563.911 650.181ZM539.133 650.181V623.153H514.975V650.181H539.133ZM514.356 650.181V623.153H490.197V650.181H514.356ZM489.578 650.181V623.153H465.419V650.181H489.578ZM464.8 650.181V623.153H440.642V650.181H464.8ZM440.022 650.181V623.153H415.864V650.181H440.022ZM415.244 650.181V623.153H391.086V650.181H415.244ZM390.467 650.181V623.153H366.308V650.181H390.467ZM365.689 650.181V623.153H341.531V650.181H365.689ZM340.911 650.181V623.153H316.753V650.181H340.911ZM316.133 650.181V623.153H291.975V650.181H316.133ZM291.356 650.181V623.153H267.197V650.181H291.356ZM266.578 650.181L266.578 623.153H242.419L242.419 650.181H266.578ZM242.419 622.46H266.578V595.433H242.419V622.46ZM242.419 594.74H266.578V567.713H242.419V594.74ZM242.419 567.02H266.578V539.993H242.419V567.02ZM242.419 539.3H266.578V512.273H242.419V539.3ZM242.419 511.58H266.578V484.553H242.419V511.58ZM242.419 483.86H266.578V456.833H242.419V483.86ZM242.419 456.14H266.578V429.113H242.419V456.14ZM242.419 428.42H266.578V401.393H242.419V428.42ZM242.419 400.7H266.578V373.673H242.419V400.7ZM242.419 372.98H266.578V345.953H242.419V372.98ZM242.419 345.26H266.578V318.232H242.419V345.26ZM267.197 318.232V345.26H291.356V318.232H267.197ZM291.975 318.232V345.26H316.133V318.232H291.975ZM316.753 318.232V345.26L340.911 345.26V318.232H316.753ZM341.531 318.232V345.26H365.689V318.232H341.531ZM366.308 318.232V345.26H390.467V318.232H366.308ZM391.086 318.232V345.26H415.244V318.232H391.086ZM415.864 318.232V345.26H440.022V318.232H415.864ZM440.642 318.232V345.26H464.8V318.232L440.642 318.232ZM465.419 318.232V345.26H489.578V318.232H465.419ZM490.197 318.232V345.26H514.356V318.232H490.197ZM514.975 318.232V345.26H539.133V318.232H514.975ZM539.753 318.232V345.26H563.911V318.232H539.753ZM564.531 318.232V345.26H588.689V318.232H564.531ZM589.308 318.232V345.26H613.467V318.232H589.308ZM614.086 318.232V345.26H638.244V318.232H614.086ZM638.864 318.232V345.26H663.022V318.232H638.864ZM663.642 318.232V345.26H687.8V318.232H663.642ZM688.419 318.232V345.26H712.578V318.232H688.419ZM713.197 318.232V345.26H737.356V318.232H713.197ZM737.975 318.232V345.26H762.133V318.232H737.975ZM762.753 318.232V345.26L786.911 345.26V318.232H762.753ZM787.531 318.232V345.26H811.689V318.232H787.531ZM812.308 318.232V345.26H836.467V318.232H812.308ZM836.467 345.953H812.308V372.98H836.467V345.953ZM836.467 373.673H812.308V400.7H836.467V373.673ZM836.467 401.393H812.308V428.42H836.467V401.393ZM836.467 429.113H812.308V456.14H836.467V429.113ZM836.467 456.833H812.308V483.86H836.467V456.833ZM836.467 484.553H812.308V511.58H836.467V484.553ZM836.467 512.273H812.308V539.3H836.467V512.273ZM836.467 539.993H812.308V567.02H836.467V539.993ZM836.467 567.713H812.308V594.74H836.467V567.713ZM836.467 595.433H812.308V622.461H836.467V595.433ZM811.689 622.461V595.433H787.531V622.461H811.689ZM786.911 622.461V595.433H762.753V622.461H786.911ZM762.133 622.461V595.433H737.975V622.461H762.133ZM737.356 622.461V595.433H713.197V622.461H737.356ZM712.578 622.461V595.433H688.419V622.461H712.578ZM687.8 622.461V595.433H663.642V622.461H687.8ZM663.022 622.461V595.433H638.864V622.461H663.022ZM638.244 622.461V595.433H614.086V622.461H638.244ZM613.467 622.461V595.433H589.308V622.461H613.467ZM588.689 622.461V595.433H564.531V622.461H588.689ZM563.911 622.461V595.433L539.753 595.433V622.46L563.911 622.461ZM539.133 622.46V595.433H514.975V622.46H539.133ZM514.356 622.46V595.433H490.197V622.46H514.356ZM489.578 622.46V595.433H465.419V622.46H489.578ZM464.8 622.46V595.433H440.642V622.46H464.8ZM440.022 622.46V595.433H415.864V622.46H440.022ZM415.244 622.46V595.433H391.086V622.46H415.244ZM390.467 622.46V595.433H366.308V622.46H390.467ZM365.689 622.46V595.433H341.531V622.46H365.689ZM340.911 622.46V595.433H316.753V622.46H340.911ZM316.133 622.46V595.433H291.975V622.46H316.133ZM291.356 622.46V595.433H267.197V622.46H291.356ZM267.197 594.74H291.356V567.713H267.197V594.74ZM267.197 567.02H291.356V539.993H267.197V567.02ZM267.197 539.3H291.356V512.273H267.197V539.3ZM267.197 511.58H291.356V484.553H267.197V511.58ZM267.197 483.86H291.356L291.356 456.833H267.197L267.197 483.86ZM267.197 456.14H291.356V429.113H267.197V456.14ZM267.197 428.42H291.356V401.393H267.197V428.42ZM267.197 400.7H291.356V373.673H267.197V400.7ZM267.197 372.98H291.356V345.953H267.197V372.98ZM291.975 345.953V372.98H316.133V345.953H291.975ZM316.753 345.953V372.98L340.911 372.98V345.953L316.753 345.953ZM341.531 345.953V372.98H365.689V345.953H341.531ZM366.308 345.953V372.98H390.467V345.953H366.308ZM391.086 345.953V372.98H415.244V345.953H391.086ZM415.864 345.953V372.98H440.022V345.953H415.864ZM440.642 345.953V372.98H464.8V345.953H440.642ZM465.419 345.953V372.98H489.578V345.953H465.419ZM490.197 345.953V372.98H514.356V345.953H490.197ZM514.975 345.953V372.98H539.133V345.953H514.975ZM539.753 345.953V372.98H563.911V345.953H539.753ZM564.531 345.953V372.98H588.689V345.953H564.531ZM589.308 345.953V372.98H613.467V345.953H589.308ZM614.086 345.953V372.98H638.244V345.953H614.086ZM638.864 345.953V372.98H663.022V345.953H638.864ZM663.642 345.953V372.98H687.8V345.953H663.642ZM688.419 345.953V372.98H712.578V345.953H688.419ZM713.197 345.953V372.98H737.356V345.953H713.197ZM737.975 345.953V372.98H762.133V345.953H737.975ZM762.753 345.953V372.98L786.911 372.98V345.953L762.753 345.953ZM787.531 345.953V372.98H811.689V345.953H787.531ZM811.689 373.673H787.531V400.7H811.689V373.673ZM811.689 401.393H787.531V428.42H811.689V401.393ZM811.689 429.113H787.531V456.14H811.689V429.113ZM811.689 456.833H787.531V483.86H811.689V456.833ZM811.689 484.553H787.531V511.58H811.689V484.553ZM811.689 512.273H787.531V539.3H811.689V512.273ZM811.689 539.993H787.531V567.02H811.689V539.993ZM811.689 567.713H787.531V594.74H811.689V567.713ZM786.911 594.74V567.713H762.753V594.74H786.911ZM762.133 594.74V567.713H737.975V594.74H762.133ZM737.356 594.74V567.713H713.197V594.74H737.356ZM712.578 594.74V567.713H688.419V594.74H712.578ZM687.8 594.74V567.713H663.642V594.74H687.8ZM663.022 594.74V567.713H638.864V594.74H663.022ZM638.244 594.74V567.713H614.086V594.74H638.244ZM613.467 594.74V567.713H589.308V594.74H613.467ZM588.689 594.74V567.713H564.531V594.74H588.689ZM563.911 594.74V567.713L539.753 567.713V594.74L563.911 594.74ZM539.133 594.74V567.713H514.975V594.74H539.133ZM514.356 594.74V567.713H490.197V594.74H514.356ZM489.578 594.74V567.713H465.419V594.74H489.578ZM464.8 594.74V567.713H440.642V594.74H464.8ZM440.022 594.74V567.713H415.864V594.74H440.022ZM415.244 594.74V567.713H391.086V594.74H415.244ZM390.467 594.74V567.713H366.308V594.74H390.467ZM365.689 594.74V567.713H341.531V594.74H365.689ZM340.911 594.74V567.713H316.753V594.74H340.911ZM316.133 594.74V567.713H291.975V594.74H316.133ZM291.975 567.02H316.133V539.993H291.975V567.02ZM291.975 539.3H316.133V512.273H291.975V539.3ZM291.975 511.58H316.133V484.553H291.975V511.58ZM291.975 483.86H316.133L316.133 456.833H291.975L291.975 483.86ZM291.975 456.14H316.133V429.113H291.975V456.14ZM291.975 428.42H316.133V401.393H291.975V428.42ZM291.975 400.7H316.133V373.673H291.975V400.7ZM316.753 373.673V400.7L340.911 400.7V373.673L316.753 373.673ZM341.531 373.673V400.7H365.689V373.673H341.531ZM366.308 373.673V400.7H390.467V373.673H366.308ZM391.086 373.673V400.7H415.244V373.673H391.086ZM415.864 373.673V400.7H440.022V373.673H415.864ZM440.642 373.673V400.7H464.8V373.673H440.642ZM465.419 373.673V400.7H489.578V373.673H465.419ZM490.197 373.673V400.7H514.356V373.673H490.197ZM514.975 373.673V400.7H539.133V373.673H514.975ZM539.753 373.673V400.7H563.911V373.673H539.753ZM564.531 373.673V400.7H588.689V373.673H564.531ZM589.308 373.673V400.7H613.467V373.673H589.308ZM614.086 373.673V400.7H638.244V373.673H614.086ZM638.864 373.673V400.7H663.022V373.673H638.864ZM663.642 373.673V400.7H687.8V373.673H663.642ZM688.419 373.673V400.7H712.578V373.673H688.419ZM713.197 373.673V400.7H737.356V373.673H713.197ZM737.975 373.673V400.7H762.133V373.673H737.975ZM762.753 373.673V400.7L786.911 400.7V373.673L762.753 373.673ZM786.911 401.393L762.753 401.393V428.42H786.911V401.393ZM786.911 429.113H762.753V456.14L786.911 456.14V429.113ZM786.911 456.833L762.753 456.833V483.86H786.911V456.833ZM786.911 484.553L762.753 484.553V511.58L786.911 511.58V484.553ZM786.911 512.273H762.753V539.3H786.911V512.273ZM786.911 539.993H762.753V567.02H786.911V539.993ZM762.133 567.02V539.993H737.975V567.02H762.133ZM737.356 567.02V539.993H713.197V567.02H737.356ZM712.578 567.02V539.993H688.419V567.02H712.578ZM687.8 567.02V539.993H663.642V567.02H687.8ZM663.022 567.02V539.993H638.864V567.02H663.022ZM638.244 567.02V539.993H614.086V567.02H638.244ZM613.467 567.02V539.993H589.308V567.02H613.467ZM588.689 567.02V539.993H564.531V567.02H588.689ZM563.911 567.02V539.993L539.753 539.993V567.02L563.911 567.02ZM539.133 567.02V539.993H514.975V567.02H539.133ZM514.356 567.02V539.993H490.197V567.02H514.356ZM489.578 567.02V539.993H465.419V567.02H489.578ZM464.8 567.02V539.993H440.642V567.02H464.8ZM440.022 567.02V539.993H415.864V567.02H440.022ZM415.244 567.02V539.993H391.086V567.02H415.244ZM390.467 567.02V539.993H366.308V567.02H390.467ZM365.689 567.02V539.993H341.531V567.02H365.689ZM340.911 567.02V539.993H316.753V567.02H340.911ZM316.753 539.3H340.911V512.273L316.753 512.273V539.3ZM316.753 511.58H340.911V484.553L316.753 484.553V511.58ZM316.753 483.86L340.911 483.86L340.911 456.833L316.753 456.833L316.753 483.86ZM316.753 456.14H340.911V429.113L316.753 429.113V456.14ZM316.753 428.42L340.911 428.42V401.393L316.753 401.393V428.42ZM341.531 401.393V428.42H365.689V401.393H341.531ZM366.308 401.393V428.42H390.467V401.393H366.308ZM391.086 401.393V428.42H415.244V401.393H391.086ZM415.864 401.393V428.42H440.022V401.393H415.864ZM440.642 401.393V428.42H464.8V401.393H440.642ZM465.419 401.393V428.42H489.578V401.393H465.419ZM490.197 401.393V428.42H514.356V401.393H490.197ZM514.975 401.393V428.42H539.133V401.393H514.975ZM539.753 401.393V428.42H563.911V401.393H539.753ZM564.531 401.393V428.42H588.689V401.393H564.531ZM589.308 401.393V428.42H613.467V401.393H589.308ZM614.086 401.393V428.42H638.244V401.393H614.086ZM638.864 401.393V428.42H663.022V401.393H638.864ZM663.642 401.393V428.42H687.8V401.393H663.642ZM688.419 401.393V428.42H712.578V401.393H688.419ZM713.197 401.393V428.42H737.356V401.393H713.197ZM737.975 401.393V428.42H762.133V401.393H737.975ZM762.133 429.113H737.975V456.14H762.133V429.113ZM762.133 456.833H737.975V483.86H762.133V456.833ZM762.133 484.553H737.975V511.58H762.133V484.553ZM762.133 512.273H737.975V539.3H762.133V512.273ZM737.356 539.3V512.273H713.197V539.3H737.356ZM712.578 539.3V512.273H688.419V539.3H712.578ZM687.8 539.3V512.273H663.642V539.3H687.8ZM663.022 539.3V512.273H638.864V539.3H663.022ZM638.244 539.3V512.273H614.086V539.3H638.244ZM613.467 539.3V512.273H589.308V539.3H613.467ZM588.689 539.3V512.273H564.531V539.3H588.689ZM563.911 539.3V512.273H539.753V539.3L563.911 539.3ZM539.133 539.3V512.273H514.975V539.3H539.133ZM514.356 539.3V512.273H490.197V539.3H514.356ZM489.578 539.3V512.273H465.419V539.3H489.578ZM464.8 539.3V512.273H440.642V539.3H464.8ZM440.022 539.3V512.273H415.864V539.3H440.022ZM415.244 539.3V512.273H391.086V539.3H415.244ZM390.467 539.3V512.273H366.308V539.3H390.467ZM365.689 539.3V512.273H341.531V539.3H365.689ZM341.531 511.58H365.689V484.553H341.531V511.58ZM341.531 483.86H365.689L365.689 456.833H341.531L341.531 483.86ZM341.531 456.14H365.689V429.113H341.531V456.14ZM366.308 429.113V456.14H390.467V429.113H366.308ZM391.086 429.113V456.14H415.244V429.113H391.086ZM415.864 429.113V456.14H440.022V429.113H415.864ZM440.642 429.113V456.14H464.8V429.113H440.642ZM465.419 429.113V456.14H489.578V429.113H465.419ZM490.197 429.113V456.14H514.356V429.113H490.197ZM514.975 429.113V456.14H539.133V429.113H514.975ZM539.753 429.113V456.14H563.911V429.113H539.753ZM564.531 429.113V456.14H588.689V429.113H564.531ZM589.308 429.113V456.14H613.467V429.113H589.308ZM614.086 429.113V456.14H638.244V429.113H614.086ZM638.864 429.113V456.14H663.022V429.113H638.864ZM663.642 429.113V456.14H687.8V429.113H663.642ZM688.419 429.113V456.14H712.578V429.113H688.419ZM713.197 429.113V456.14H737.356V429.113H713.197ZM737.356 456.833H713.197V483.86H737.356V456.833ZM737.356 484.553H713.197V511.58H737.356V484.553ZM712.578 511.58V484.553H688.419V511.58H712.578ZM687.8 511.58V484.553H663.642V511.58H687.8ZM663.022 511.58V484.553H638.864V511.58H663.022ZM638.244 511.58V484.553H614.086V511.58H638.244ZM613.467 511.58V484.553H589.308V511.58H613.467ZM588.689 511.58V484.553H564.531V511.58H588.689ZM563.911 511.58V484.553H539.753V511.58H563.911ZM539.133 511.58V484.553H514.975V511.58H539.133ZM514.356 511.58V484.553H490.197V511.58H514.356ZM489.578 511.58V484.553H465.419V511.58H489.578ZM464.8 511.58V484.553H440.642V511.58H464.8ZM440.022 511.58V484.553H415.864V511.58H440.022ZM415.244 511.58V484.553H391.086V511.58H415.244ZM390.467 511.58V484.553H366.308V511.58H390.467ZM366.308 483.86H390.467L390.467 456.833H366.308V483.86ZM391.086 456.833V483.86H415.244V456.833H391.086ZM415.864 456.833L415.864 483.86H440.022V456.833H415.864ZM440.642 456.833V483.86H464.8V456.833H440.642ZM465.419 456.833V483.86H489.578V456.833H465.419ZM490.197 456.833V483.86H514.356V456.833H490.197ZM514.975 456.833V483.86H539.133V456.833H514.975ZM539.753 456.833V483.86H563.911V456.833H539.753ZM564.531 456.833V483.86H588.689V456.833H564.531ZM589.308 456.833V483.86H613.467V456.833H589.308ZM614.086 456.833V483.86H638.244V456.833H614.086ZM638.864 456.833V483.86H663.022V456.833H638.864ZM663.642 456.833V483.86H687.8V456.833H663.642ZM688.419 456.833V483.86H712.578V456.833H688.419Z" fill="url(#paint0_radial_0_12)"/>
<g id="Ellipse 1" opacity="0.2" filter="url(#filter0_f_0_12)">
<ellipse cx="501.5" cy="494.5" rx="251.5" ry="168.5" fill="var(--fill-0, #A90831)"/>
</g>
<g id="Ellipse 2" opacity="0.2" filter="url(#filter1_f_0_12)">
<ellipse cx="730" cy="381.5" rx="147" ry="131.5" fill="var(--fill-0, #A5C4D6)"/>
</g>
</g>
<defs>
<filter id="filter0_f_0_12" x="0" y="76" width="1003" height="837" filterUnits="userSpaceOnUse" color-interpolation-filters="sRGB">
<feFlood flood-opacity="0" result="BackgroundImageFix"/>
<feBlend mode="normal" in="SourceGraphic" in2="BackgroundImageFix" result="shape"/>
<feGaussianBlur stdDeviation="125" result="effect1_foregroundBlur_0_12"/>
</filter>
<filter id="filter1_f_0_12" x="333" y="0" width="794" height="763" filterUnits="userSpaceOnUse" color-interpolation-filters="sRGB">
<feFlood flood-opacity="0" result="BackgroundImageFix"/>
<feBlend mode="normal" in="SourceGraphic" in2="BackgroundImageFix" result="shape"/>
<feGaussianBlur stdDeviation="125" result="effect1_foregroundBlur_0_12"/>
</filter>
<radialGradient id="paint0_radial_0_12" cx="0" cy="0" r="1" gradientUnits="userSpaceOnUse" gradientTransform="translate(554 470) rotate(90) scale(284 412.586)">
<stop stop-color="#869CA5"/>
<stop offset="1" stop-color="#869CA5" stop-opacity="0"/>
</radialGradient>
</defs>
</svg>
