<svg preserveAspectRatio="none" width="100%" height="100%" overflow="visible" style="display: block;" viewBox="0 0 965.536 782.205" fill="none" xmlns="http://www.w3.org/2000/svg">
<g id="Shapes container">
<path id="Vector (Stroke)" opacity="0.4" fill-rule="evenodd" clip-rule="evenodd" d="M143.473 177.043V139.639H144.004V177.043L164.701 177.043V139.639H165.232V177.043H185.929V139.639H186.459V177.043L207.157 177.043V139.639H207.687V177.043H228.385V139.639H228.915V177.043H249.613V139.639H250.143V177.043H270.84V139.639H271.371V177.043H292.068V139.639H292.599V177.043L313.296 177.043V139.639H313.827V177.043H334.524V139.639H335.055V177.043L355.752 177.043V139.639H356.283V177.043H376.98V139.639H377.511V177.043H398.208V139.639H398.739V177.043H419.436V139.639H419.967V177.043L440.664 177.043V139.639H441.194V177.043H461.892V139.639H462.422V177.043L483.12 177.043V139.639H483.65V177.043H504.348V139.639H504.878V177.043L525.575 177.043V139.639H526.106V177.043H546.803V139.639H547.334V177.043L568.031 177.043V139.639H568.562V177.043H589.259V139.639H589.79V177.043L610.487 177.043V139.639H611.018V177.043H631.715V139.639H632.246V177.043H652.943V139.639H653.474V177.043L674.171 177.043V139.639H674.702V177.043H695.399V139.639H695.929V177.043L716.627 177.043V139.639H717.157V177.043H737.855V139.639H738.385V177.043L759.082 177.043V139.639H759.613V177.043H780.31V139.639H780.841V177.043L801.538 177.043V139.639H802.069V177.043L856.731 177.043V177.637L802.069 177.637V200.792L856.731 200.792V201.385L802.069 201.385V224.54H856.731V225.134H802.069V248.289H856.731V248.883H802.069V272.038H856.731V272.631H802.069V295.786H856.731V296.38H802.069V319.535H856.731V320.129H802.069V343.284H856.731V343.877H802.069V367.032H856.731V367.626H802.069V390.781H856.731V391.375H802.069V414.53H856.731V415.124H802.069V438.279H856.731V438.872H802.069V462.027H856.731V462.621H802.069V485.776H856.731V486.37H802.069V509.525H856.731V510.118H802.069V533.273H856.731V533.867H802.069V557.022H856.731V557.616H802.069V580.771H856.731V581.364H802.069V604.519H856.731V605.113H802.069V628.268H856.731V628.862H802.069V665.672H801.538V628.862H780.841V665.672H780.31V628.862H759.613V665.672H759.082V628.862H738.385V665.672H737.855V628.862H717.157V665.672H716.627V628.862H695.929V665.672H695.399V628.862H674.702V665.672H674.171V628.862H653.474V665.672H652.943V628.862H632.246V665.672H631.715V628.862H611.018V665.672H610.487V628.862H589.79V665.672H589.259V628.862H568.562V665.672H568.031V628.862H547.334V665.672H546.803V628.862H526.106V665.672H525.575V628.862H504.878V665.672H504.348V628.862H483.65V665.672H483.12V628.862L462.422 628.862V665.672H461.892V628.862H441.194V665.672H440.664V628.862H419.967V665.672H419.436V628.862H398.739V665.672H398.208V628.862H377.511V665.672H376.98V628.862H356.283V665.672H355.752V628.862H335.055V665.672H334.524V628.862H313.827V665.672H313.296V628.862H292.599V665.672H292.068V628.862H271.371V665.672H270.84V628.862H250.143V665.672H249.612V628.862H228.915V665.672H228.385V628.862H207.687V665.672H207.157V628.862H186.459V665.672H185.929V628.862H165.232V665.672H164.701V628.862H144.004V665.672H143.473V628.862H92.5259V628.268H143.473V605.113H92.5259V604.519H143.473L143.473 581.364H92.5259V580.771H143.473V557.616H92.5259V557.022H143.473V533.867H92.5259V533.273H143.473V510.118H92.5259V509.525H143.473V486.37H92.5259V485.776H143.473L143.473 462.621H92.5259V462.027H143.473V438.872H92.5259V438.278H143.473V415.124H92.5259V414.53H143.473V391.375H92.5259V390.781H143.473V367.626H92.5259V367.032H143.473V343.877H92.5259V343.284H143.473L143.473 320.129H92.5259V319.535H143.473V296.38H92.5259V295.786H143.473V272.631H92.5259V272.038H143.473V248.883H92.5259V248.289H143.473V225.134H92.5259V224.54H143.473L143.473 201.385L92.5259 201.385V200.792L143.473 200.792V177.637L92.5259 177.637V177.043L143.473 177.043ZM144.004 177.637V200.792H164.701V177.637L144.004 177.637ZM165.232 177.637V200.792H185.929V177.637H165.232ZM186.459 177.637V200.792H207.157V177.637L186.459 177.637ZM207.687 177.637V200.792L228.385 200.792V177.637H207.687ZM228.915 177.637V200.792H249.613V177.637H228.915ZM250.143 177.637V200.792H270.84V177.637H250.143ZM271.371 177.637V200.792H292.068V177.637H271.371ZM292.599 177.637V200.792L313.296 200.792V177.637L292.599 177.637ZM313.827 177.637V200.792H334.524V177.637H313.827ZM335.055 177.637V200.792H355.752V177.637L335.055 177.637ZM356.283 177.637V200.792H376.98V177.637H356.283ZM377.511 177.637V200.792L398.208 200.792V177.637L377.511 177.637ZM398.739 177.637V200.792H419.436V177.637H398.739ZM419.967 177.637V200.792H440.664V177.637L419.967 177.637ZM441.194 177.637V200.792H461.892V177.637H441.194ZM462.422 177.637V200.792L483.12 200.792V177.637L462.422 177.637ZM483.65 177.637V200.792H504.348V177.637H483.65ZM504.878 177.637V200.792H525.575V177.637L504.878 177.637ZM526.106 177.637V200.792H546.803V177.637H526.106ZM547.334 177.637V200.792L568.031 200.792V177.637L547.334 177.637ZM568.562 177.637V200.792H589.259V177.637H568.562ZM589.79 177.637V200.792H610.487V177.637L589.79 177.637ZM611.018 177.637V200.792H631.715V177.637H611.018ZM632.246 177.637V200.792L652.943 200.792V177.637H632.246ZM653.474 177.637V200.792H674.171V177.637L653.474 177.637ZM674.702 177.637V200.792H695.399V177.637H674.702ZM695.929 177.637V200.792H716.627V177.637L695.929 177.637ZM717.157 177.637V200.792L737.855 200.792V177.637H717.157ZM738.385 177.637V200.792H759.082V177.637L738.385 177.637ZM759.613 177.637V200.792H780.31V177.637H759.613ZM780.841 177.637V200.792H801.538V177.637L780.841 177.637ZM801.538 201.385H780.841V224.54H801.538V201.385ZM801.538 225.134H780.841V248.289H801.538V225.134ZM801.538 248.883H780.841V272.038H801.538V248.883ZM801.538 272.631H780.841V295.786H801.538V272.631ZM801.538 296.38H780.841V319.535H801.538V296.38ZM801.538 320.129H780.841V343.284H801.538V320.129ZM801.538 343.877H780.841V367.032H801.538V343.877ZM801.538 367.626H780.841V390.781H801.538V367.626ZM801.538 391.375H780.841V414.53H801.538V391.375ZM801.538 415.124H780.841V438.279H801.538V415.124ZM801.538 438.872H780.841V462.027H801.538V438.872ZM801.538 462.621H780.841V485.776H801.538V462.621ZM801.538 486.37H780.841V509.525H801.538V486.37ZM801.538 510.118H780.841V533.273H801.538V510.118ZM801.538 533.867H780.841V557.022H801.538V533.867ZM801.538 557.616H780.841V580.771H801.538V557.616ZM801.538 581.364H780.841V604.519H801.538V581.364ZM801.538 605.113H780.841V628.268H801.538V605.113ZM780.31 628.268V605.113H759.613V628.268H780.31ZM759.082 628.268V605.113H738.385V628.268H759.082ZM737.855 628.268V605.113H717.157V628.268H737.855ZM716.627 628.268V605.113H695.929V628.268H716.627ZM695.399 628.268V605.113H674.702V628.268H695.399ZM674.171 628.268V605.113H653.474V628.268H674.171ZM652.943 628.268V605.113H632.246V628.268H652.943ZM631.715 628.268V605.113H611.018V628.268H631.715ZM610.487 628.268V605.113H589.79V628.268H610.487ZM589.259 628.268V605.113H568.562V628.268H589.259ZM568.031 628.268V605.113H547.334V628.268H568.031ZM546.803 628.268V605.113H526.106V628.268H546.803ZM525.575 628.268V605.113H504.878V628.268H525.575ZM504.348 628.268V605.113H483.65V628.268H504.348ZM483.12 628.268V605.113L462.422 605.113V628.268L483.12 628.268ZM461.892 628.268V605.113H441.194V628.268H461.892ZM440.664 628.268V605.113H419.967V628.268H440.664ZM419.436 628.268V605.113H398.739V628.268H419.436ZM398.208 628.268V605.113H377.511V628.268H398.208ZM376.98 628.268V605.113H356.283V628.268H376.98ZM355.752 628.268V605.113H335.055V628.268H355.752ZM334.524 628.268V605.113H313.827V628.268H334.524ZM313.296 628.268V605.113H292.599V628.268H313.296ZM292.068 628.268V605.113H271.371V628.268H292.068ZM270.84 628.268V605.113H250.143V628.268H270.84ZM249.612 628.268V605.113H228.915V628.268H249.612ZM228.385 628.268V605.113H207.687V628.268H228.385ZM207.157 628.268V605.113H186.459V628.268H207.157ZM185.929 628.268V605.113H165.232V628.268H185.929ZM164.701 628.268V605.113H144.004V628.268H164.701ZM144.004 604.519H164.701V581.364H144.004L144.004 604.519ZM144.004 580.771H164.701V557.616H144.004V580.771ZM144.004 557.022H164.701L164.701 533.867H144.004V557.022ZM144.004 533.273H164.701V510.118H144.004V533.273ZM144.004 509.525H164.701V486.37H144.004V509.525ZM144.004 485.776H164.701V462.621H144.004L144.004 485.776ZM144.004 462.027H164.701V438.872H144.004V462.027ZM144.004 438.278H164.701V415.124H144.004V438.278ZM144.004 414.53H164.701V391.375H144.004V414.53ZM144.004 390.781H164.701V367.626H144.004V390.781ZM144.004 367.032H164.701V343.877H144.004V367.032ZM144.004 343.284H164.701V320.129H144.004L144.004 343.284ZM144.004 319.535H164.701V296.38H144.004V319.535ZM144.004 295.786H164.701V272.631H144.004V295.786ZM144.004 272.038H164.701L164.701 248.883H144.004V272.038ZM144.004 248.289H164.701V225.134H144.004V248.289ZM144.004 224.54H164.701V201.385H144.004L144.004 224.54ZM165.232 201.385V224.54H185.929V201.385H165.232ZM186.459 201.385V224.54L207.157 224.54V201.385H186.459ZM207.687 201.385V224.54H228.385V201.385L207.687 201.385ZM228.915 201.385V224.54H249.613V201.385H228.915ZM250.143 201.385V224.54H270.84V201.385H250.143ZM271.371 201.385V224.54H292.068V201.385H271.371ZM292.599 201.385V224.54H313.296V201.385L292.599 201.385ZM313.827 201.385V224.54H334.524V201.385H313.827ZM335.055 201.385V224.54H355.752V201.385H335.055ZM356.283 201.385V224.54H376.98V201.385H356.283ZM377.511 201.385V224.54L398.208 224.54V201.385L377.511 201.385ZM398.739 201.385V224.54H419.436V201.385H398.739ZM419.967 201.385V224.54H440.664V201.385H419.967ZM441.194 201.385V224.54H461.892V201.385H441.194ZM462.422 201.385V224.54H483.12V201.385L462.422 201.385ZM483.65 201.385V224.54H504.348V201.385H483.65ZM504.878 201.385V224.54H525.575V201.385H504.878ZM526.106 201.385V224.54H546.803V201.385H526.106ZM547.334 201.385V224.54H568.031V201.385L547.334 201.385ZM568.562 201.385V224.54L589.259 224.54V201.385H568.562ZM589.79 201.385V224.54H610.487V201.385H589.79ZM611.018 201.385V224.54H631.715V201.385H611.018ZM632.246 201.385V224.54H652.943V201.385L632.246 201.385ZM653.474 201.385V224.54H674.171V201.385H653.474ZM674.702 201.385V224.54H695.399V201.385H674.702ZM695.929 201.385V224.54H716.627V201.385H695.929ZM717.157 201.385V224.54H737.855V201.385L717.157 201.385ZM738.385 201.385V224.54H759.082V201.385H738.385ZM759.613 201.385V224.54L780.31 224.54V201.385H759.613ZM780.31 225.134L759.613 225.134V248.289L780.31 248.289V225.134ZM780.31 248.883L759.613 248.883V272.038L780.31 272.038V248.883ZM780.31 272.631L759.613 272.631V295.786H780.31V272.631ZM780.31 296.38H759.613V319.535H780.31V296.38ZM780.31 320.129H759.613V343.284H780.31V320.129ZM780.31 343.877H759.613V367.032H780.31V343.877ZM780.31 367.626H759.613V390.781H780.31V367.626ZM780.31 391.375H759.613V414.53H780.31V391.375ZM780.31 415.124H759.613V438.279H780.31V415.124ZM780.31 438.872H759.613V462.027H780.31V438.872ZM780.31 462.621H759.613V485.776H780.31V462.621ZM780.31 486.37H759.613V509.525H780.31V486.37ZM780.31 510.118H759.613V533.273H780.31V510.118ZM780.31 533.867H759.613V557.022H780.31V533.867ZM780.31 557.616H759.613V580.771H780.31V557.616ZM780.31 581.364H759.613V604.519H780.31V581.364ZM759.082 604.519V581.364H738.385V604.519H759.082ZM737.855 604.519V581.364H717.157V604.519H737.855ZM716.627 604.519V581.364H695.929V604.519H716.627ZM695.399 604.519V581.364H674.702V604.519H695.399ZM674.171 604.519V581.364H653.474V604.519H674.171ZM652.943 604.519V581.364H632.246V604.519H652.943ZM631.715 604.519V581.364H611.018V604.519H631.715ZM610.487 604.519V581.364H589.79V604.519H610.487ZM589.259 604.519V581.364H568.562V604.519H589.259ZM568.031 604.519V581.364H547.334V604.519H568.031ZM546.803 604.519V581.364H526.106V604.519H546.803ZM525.575 604.519V581.364H504.878V604.519H525.575ZM504.348 604.519V581.364H483.65V604.519H504.348ZM483.12 604.519V581.364L462.422 581.364V604.519L483.12 604.519ZM461.892 604.519V581.364H441.194V604.519H461.892ZM440.664 604.519V581.364H419.967V604.519H440.664ZM419.436 604.519V581.364H398.739V604.519H419.436ZM398.208 604.519V581.364H377.511V604.519H398.208ZM376.98 604.519V581.364H356.283V604.519H376.98ZM355.752 604.519V581.364H335.055V604.519H355.752ZM334.524 604.519V581.364H313.827V604.519H334.524ZM313.296 604.519V581.364H292.599V604.519H313.296ZM292.068 604.519V581.364H271.371V604.519H292.068ZM270.84 604.519V581.364H250.143V604.519H270.84ZM249.612 604.519V581.364H228.915V604.519H249.612ZM228.385 604.519V581.364H207.687V604.519H228.385ZM207.157 604.519V581.364H186.459V604.519H207.157ZM185.929 604.519V581.364H165.232V604.519H185.929ZM165.232 580.771H185.929V557.616H165.232V580.771ZM165.232 557.022H185.929L185.929 533.867H165.232L165.232 557.022ZM165.232 533.273H185.929V510.118H165.232V533.273ZM165.232 509.525H185.929V486.37H165.232V509.525ZM165.232 485.776H185.929V462.621H165.232V485.776ZM165.232 462.027H185.929V438.872H165.232V462.027ZM165.232 438.278H185.929V415.124H165.232V438.278ZM165.232 414.53H185.929V391.375H165.232V414.53ZM165.232 390.781H185.929V367.626H165.232V390.781ZM165.232 367.032H185.929V343.877H165.232V367.032ZM165.232 343.284H185.929V320.129H165.232V343.284ZM165.232 319.535H185.929V296.38H165.232V319.535ZM165.232 295.786H185.929V272.631H165.232V295.786ZM165.232 272.038H185.929L185.929 248.883H165.232L165.232 272.038ZM165.232 248.289H185.929V225.134H165.232V248.289ZM186.459 225.134V248.289L207.157 248.289V225.134L186.459 225.134ZM207.687 225.134V248.289H228.385V225.134H207.687ZM228.915 225.134V248.289H249.613V225.134H228.915ZM250.143 225.134V248.289H270.84V225.134H250.143ZM271.371 225.134V248.289H292.068V225.134H271.371ZM292.599 225.134V248.289H313.296V225.134H292.599ZM313.827 225.134V248.289H334.524V225.134H313.827ZM335.055 225.134V248.289H355.752V225.134H335.055ZM356.283 225.134V248.289H376.98V225.134H356.283ZM377.511 225.134V248.289L398.208 248.289V225.134L377.511 225.134ZM398.739 225.134V248.289H419.436V225.134H398.739ZM419.967 225.134V248.289H440.664V225.134H419.967ZM441.194 225.134V248.289H461.892V225.134H441.194ZM462.422 225.134V248.289H483.12V225.134H462.422ZM483.65 225.134V248.289H504.348V225.134H483.65ZM504.878 225.134V248.289H525.575V225.134H504.878ZM526.106 225.134V248.289H546.803V225.134H526.106ZM547.334 225.134V248.289H568.031V225.134H547.334ZM568.562 225.134V248.289L589.259 248.289V225.134L568.562 225.134ZM589.79 225.134V248.289H610.487V225.134H589.79ZM611.018 225.134V248.289H631.715V225.134H611.018ZM632.246 225.134V248.289H652.943V225.134H632.246ZM653.474 225.134V248.289H674.171V225.134H653.474ZM674.702 225.134V248.289H695.399V225.134H674.702ZM695.929 225.134V248.289H716.627V225.134H695.929ZM717.157 225.134V248.289H737.855V225.134H717.157ZM738.385 225.134V248.289H759.082V225.134H738.385ZM759.082 248.883H738.385V272.038H759.082V248.883ZM759.082 272.631H738.385V295.786H759.082V272.631ZM759.082 296.38H738.385V319.535H759.082V296.38ZM759.082 320.129H738.385V343.284H759.082V320.129ZM759.082 343.877H738.385V367.032H759.082V343.877ZM759.082 367.626H738.385V390.781H759.082V367.626ZM759.082 391.375H738.385V414.53H759.082V391.375ZM759.082 415.124H738.385V438.279H759.082V415.124ZM759.082 438.872H738.385V462.027H759.082V438.872ZM759.082 462.621H738.385V485.776H759.082V462.621ZM759.082 486.37H738.385V509.525H759.082V486.37ZM759.082 510.118H738.385V533.273H759.082V510.118ZM759.082 533.867H738.385V557.022H759.082V533.867ZM759.082 557.616H738.385V580.771H759.082V557.616ZM737.855 580.771V557.616H717.157V580.771H737.855ZM716.627 580.771V557.616H695.929V580.771H716.627ZM695.399 580.771V557.616H674.702V580.771H695.399ZM674.171 580.771V557.616H653.474V580.771H674.171ZM652.943 580.771V557.616H632.246V580.771H652.943ZM631.715 580.771V557.616H611.018V580.771H631.715ZM610.487 580.771V557.616H589.79V580.771H610.487ZM589.259 580.771V557.616H568.562V580.771H589.259ZM568.031 580.771V557.616H547.334V580.771H568.031ZM546.803 580.771V557.616H526.106V580.771H546.803ZM525.575 580.771V557.616H504.878V580.771H525.575ZM504.348 580.771V557.616H483.65V580.771H504.348ZM483.12 580.771V557.616L462.422 557.616V580.771L483.12 580.771ZM461.892 580.771V557.616H441.194V580.771H461.892ZM440.664 580.771V557.616H419.967V580.771H440.664ZM419.436 580.771V557.616H398.739V580.771H419.436ZM398.208 580.771V557.616H377.511V580.771H398.208ZM376.98 580.771V557.616H356.283V580.771H376.98ZM355.752 580.771V557.616H335.055V580.771H355.752ZM334.524 580.771V557.616H313.827V580.771H334.524ZM313.296 580.771V557.616H292.599V580.771H313.296ZM292.068 580.771V557.616H271.371V580.771H292.068ZM270.84 580.771V557.616H250.143V580.771H270.84ZM249.612 580.771V557.616H228.915V580.771H249.612ZM228.385 580.771V557.616H207.687V580.771H228.385ZM207.157 580.771V557.616H186.459V580.771H207.157ZM186.459 557.022H207.157L207.157 533.867H186.459L186.459 557.022ZM186.459 533.273H207.157V510.118H186.459V533.273ZM186.459 509.525H207.157V486.37H186.459V509.525ZM186.459 485.776H207.157V462.621H186.459V485.776ZM186.459 462.027H207.157V438.872H186.459V462.027ZM186.459 438.278H207.157V415.124H186.459V438.278ZM186.459 414.53H207.157V391.375H186.459V414.53ZM186.459 390.781H207.157V367.626H186.459V390.781ZM186.459 367.032H207.157V343.877H186.459V367.032ZM186.459 343.284H207.157V320.129H186.459V343.284ZM186.459 319.535H207.157V296.38H186.459V319.535ZM186.459 295.786H207.157V272.631L186.459 272.631V295.786ZM186.459 272.038L207.157 272.038L207.157 248.883L186.459 248.883L186.459 272.038ZM207.687 248.883L207.687 272.038H228.385L228.385 248.883H207.687ZM228.915 248.883V272.038H249.613V248.883H228.915ZM250.143 248.883V272.038H270.84V248.883H250.143ZM271.371 248.883V272.038H292.068V248.883H271.371ZM292.599 248.883V272.038H313.296V248.883H292.599ZM313.827 248.883V272.038H334.524V248.883H313.827ZM335.055 248.883V272.038H355.752V248.883H335.055ZM356.283 248.883V272.038H376.98V248.883H356.283ZM377.511 248.883V272.038L398.208 272.038V248.883L377.511 248.883ZM398.739 248.883V272.038H419.436V248.883H398.739ZM419.967 248.883V272.038H440.664V248.883H419.967ZM441.194 248.883V272.038H461.892V248.883H441.194ZM462.422 248.883V272.038H483.12V248.883H462.422ZM483.65 248.883V272.038H504.348V248.883H483.65ZM504.878 248.883V272.038H525.575V248.883H504.878ZM526.106 248.883V272.038H546.803V248.883H526.106ZM547.334 248.883V272.038H568.031V248.883H547.334ZM568.562 248.883V272.038L589.259 272.038V248.883L568.562 248.883ZM589.79 248.883V272.038H610.487V248.883H589.79ZM611.018 248.883V272.038H631.715V248.883H611.018ZM632.246 248.883V272.038H652.943V248.883H632.246ZM653.474 248.883V272.038H674.171V248.883H653.474ZM674.702 248.883V272.038H695.399V248.883H674.702ZM695.929 248.883V272.038H716.627V248.883H695.929ZM717.157 248.883V272.038H737.855V248.883H717.157ZM737.855 272.631H717.157V295.786H737.855V272.631ZM737.855 296.38H717.157V319.535H737.855V296.38ZM737.855 320.129H717.157V343.284H737.855V320.129ZM737.855 343.877H717.157V367.032H737.855V343.877ZM737.855 367.626H717.157V390.781H737.855V367.626ZM737.855 391.375H717.157V414.53H737.855V391.375ZM737.855 415.124H717.157V438.279H737.855V415.124ZM737.855 438.872H717.157V462.027H737.855V438.872ZM737.855 462.621H717.157V485.776H737.855V462.621ZM737.855 486.37H717.157V509.525H737.855V486.37ZM737.855 510.118H717.157V533.273H737.855V510.118ZM737.855 533.867H717.157V557.022H737.855V533.867ZM716.627 557.022V533.867H695.929V557.022H716.627ZM695.399 557.022V533.867H674.702V557.022H695.399ZM674.171 557.022V533.867H653.474V557.022H674.171ZM652.943 557.022V533.867H632.246V557.022H652.943ZM631.715 557.022V533.867H611.018V557.022H631.715ZM610.487 557.022V533.867H589.79V557.022H610.487ZM589.259 557.022V533.867H568.562V557.022H589.259ZM568.031 557.022V533.867H547.334V557.022H568.031ZM546.803 557.022V533.867H526.106V557.022H546.803ZM525.575 557.022V533.867H504.878V557.022H525.575ZM504.348 557.022V533.867H483.65V557.022H504.348ZM483.12 557.022V533.867L462.422 533.867V557.022L483.12 557.022ZM461.892 557.022V533.867H441.194V557.022H461.892ZM440.664 557.022V533.867H419.967V557.022H440.664ZM419.436 557.022V533.867H398.739V557.022H419.436ZM398.208 557.022V533.867H377.511V557.022H398.208ZM376.98 557.022V533.867H356.283V557.022H376.98ZM355.752 557.022V533.867H335.055V557.022H355.752ZM334.524 557.022V533.867H313.827V557.022H334.524ZM313.296 557.022V533.867H292.599V557.022H313.296ZM292.068 557.022V533.867H271.371V557.022H292.068ZM270.84 557.022V533.867H250.143V557.022H270.84ZM249.612 557.022V533.867H228.915V557.022H249.612ZM228.385 557.022L228.385 533.867H207.687L207.687 557.022H228.385ZM207.687 533.273H228.385V510.118H207.687V533.273ZM207.687 509.525H228.385V486.37H207.687V509.525ZM207.687 485.776H228.385V462.621H207.687V485.776ZM207.687 462.027H228.385V438.872H207.687V462.027ZM207.687 438.278H228.385V415.124H207.687V438.278ZM207.687 414.53H228.385V391.375H207.687V414.53ZM207.687 390.781H228.385V367.626H207.687V390.781ZM207.687 367.032H228.385V343.877H207.687V367.032ZM207.687 343.284H228.385V320.129H207.687V343.284ZM207.687 319.535H228.385V296.38H207.687V319.535ZM207.687 295.786H228.385V272.631H207.687V295.786ZM228.915 272.631V295.786H249.613V272.631H228.915ZM250.143 272.631V295.786H270.84V272.631H250.143ZM271.371 272.631V295.786L292.068 295.786V272.631H271.371ZM292.599 272.631V295.786H313.296V272.631H292.599ZM313.827 272.631V295.786H334.524V272.631H313.827ZM335.055 272.631V295.786H355.752V272.631H335.055ZM356.283 272.631V295.786H376.98V272.631H356.283ZM377.511 272.631V295.786H398.208V272.631L377.511 272.631ZM398.739 272.631V295.786H419.436V272.631H398.739ZM419.967 272.631V295.786H440.664V272.631H419.967ZM441.194 272.631V295.786H461.892V272.631H441.194ZM462.422 272.631V295.786H483.12V272.631H462.422ZM483.65 272.631V295.786H504.348V272.631H483.65ZM504.878 272.631V295.786H525.575V272.631H504.878ZM526.106 272.631V295.786H546.803V272.631H526.106ZM547.334 272.631V295.786H568.031V272.631H547.334ZM568.562 272.631V295.786H589.259V272.631L568.562 272.631ZM589.79 272.631V295.786H610.487V272.631H589.79ZM611.018 272.631V295.786H631.715V272.631H611.018ZM632.246 272.631V295.786H652.943V272.631H632.246ZM653.474 272.631V295.786L674.171 295.786V272.631H653.474ZM674.702 272.631V295.786H695.399V272.631H674.702ZM695.929 272.631V295.786H716.627V272.631H695.929ZM716.627 296.38H695.929V319.535H716.627V296.38ZM716.627 320.129H695.929V343.284H716.627V320.129ZM716.627 343.877H695.929V367.032H716.627V343.877ZM716.627 367.626H695.929V390.781H716.627V367.626ZM716.627 391.375H695.929V414.53H716.627V391.375ZM716.627 415.124H695.929V438.279H716.627V415.124ZM716.627 438.872H695.929V462.027H716.627V438.872ZM716.627 462.621H695.929V485.776H716.627V462.621ZM716.627 486.37H695.929V509.525H716.627V486.37ZM716.627 510.118H695.929V533.273H716.627V510.118ZM695.399 533.273V510.118H674.702V533.273H695.399ZM674.171 533.273V510.118H653.474V533.273H674.171ZM652.943 533.273V510.118H632.246V533.273H652.943ZM631.715 533.273V510.118H611.018V533.273H631.715ZM610.487 533.273V510.118H589.79V533.273H610.487ZM589.259 533.273V510.118H568.562V533.273H589.259ZM568.031 533.273V510.118H547.334V533.273H568.031ZM546.803 533.273V510.118H526.106V533.273H546.803ZM525.575 533.273V510.118H504.878V533.273H525.575ZM504.348 533.273V510.118H483.65V533.273H504.348ZM483.12 533.273V510.118L462.422 510.118V533.273L483.12 533.273ZM461.892 533.273V510.118H441.194V533.273H461.892ZM440.664 533.273V510.118H419.967V533.273H440.664ZM419.436 533.273V510.118H398.739V533.273H419.436ZM398.208 533.273V510.118H377.511V533.273H398.208ZM376.98 533.273V510.118H356.283V533.273H376.98ZM355.752 533.273V510.118H335.055V533.273H355.752ZM334.524 533.273V510.118H313.827V533.273H334.524ZM313.296 533.273V510.118H292.599V533.273H313.296ZM292.068 533.273V510.118H271.371V533.273H292.068ZM270.84 533.273V510.118H250.143V533.273H270.84ZM249.612 533.273V510.118H228.915V533.273H249.612ZM228.915 509.525H249.612V486.37H228.915V509.525ZM228.915 485.776H249.612V462.621H228.915V485.776ZM228.915 462.027H249.612V438.872H228.915V462.027ZM228.915 438.278H249.612V415.124H228.915V438.278ZM228.915 414.53H249.612L249.613 391.375H228.915L228.915 414.53ZM228.915 390.781H249.613V367.626H228.915V390.781ZM228.915 367.032H249.613V343.877H228.915V367.032ZM228.915 343.284H249.613V320.129H228.915V343.284ZM228.915 319.535H249.613V296.38H228.915V319.535ZM250.143 296.38V319.535H270.84V296.38H250.143ZM271.371 296.38V319.535L292.068 319.535V296.38L271.371 296.38ZM292.599 296.38V319.535H313.296V296.38H292.599ZM313.827 296.38V319.535H334.524V296.38H313.827ZM335.055 296.38V319.535H355.752V296.38H335.055ZM356.283 296.38V319.535H376.98V296.38H356.283ZM377.511 296.38V319.535H398.208V296.38H377.511ZM398.739 296.38V319.535H419.436V296.38H398.739ZM419.967 296.38V319.535H440.664V296.38H419.967ZM441.194 296.38V319.535H461.892V296.38H441.194ZM462.422 296.38V319.535H483.12V296.38H462.422ZM483.65 296.38V319.535H504.348V296.38H483.65ZM504.878 296.38V319.535H525.575V296.38H504.878ZM526.106 296.38V319.535H546.803V296.38H526.106ZM547.334 296.38V319.535H568.031V296.38H547.334ZM568.562 296.38V319.535H589.259V296.38H568.562ZM589.79 296.38V319.535H610.487V296.38H589.79ZM611.018 296.38V319.535H631.715V296.38H611.018ZM632.246 296.38V319.535H652.943V296.38H632.246ZM653.474 296.38V319.535L674.171 319.535V296.38L653.474 296.38ZM674.702 296.38V319.535H695.399V296.38H674.702ZM695.399 320.129H674.702V343.284H695.399V320.129ZM695.399 343.877H674.702V367.032H695.399V343.877ZM695.399 367.626H674.702V390.781H695.399V367.626ZM695.399 391.375H674.702V414.53H695.399V391.375ZM695.399 415.124H674.702V438.279H695.399V415.124ZM695.399 438.872H674.702V462.027H695.399V438.872ZM695.399 462.621H674.702V485.776H695.399V462.621ZM695.399 486.37H674.702V509.525H695.399V486.37ZM674.171 509.525V486.37H653.474V509.525H674.171ZM652.943 509.525V486.37H632.246V509.525H652.943ZM631.715 509.525V486.37H611.018V509.525H631.715ZM610.487 509.525V486.37H589.79V509.525H610.487ZM589.259 509.525V486.37H568.562V509.525H589.259ZM568.031 509.525V486.37H547.334V509.525H568.031ZM546.803 509.525V486.37H526.106V509.525H546.803ZM525.575 509.525V486.37H504.878V509.525H525.575ZM504.348 509.525V486.37H483.65V509.525H504.348ZM483.12 509.525V486.37L462.422 486.37V509.525L483.12 509.525ZM461.892 509.525V486.37H441.194V509.525H461.892ZM440.664 509.525V486.37H419.967V509.525H440.664ZM419.436 509.525V486.37H398.739V509.525H419.436ZM398.208 509.525V486.37H377.511V509.525H398.208ZM376.98 509.525V486.37H356.283V509.525H376.98ZM355.752 509.525V486.37H335.055V509.525H355.752ZM334.524 509.525V486.37H313.827V509.525H334.524ZM313.296 509.525V486.37H292.599V509.525H313.296ZM292.068 509.525V486.37H271.371V509.525H292.068ZM270.84 509.525V486.37H250.143V509.525H270.84ZM250.143 485.776H270.84V462.621H250.143V485.776ZM250.143 462.027H270.84V438.872H250.143V462.027ZM250.143 438.278H270.84V415.124H250.143V438.278ZM250.143 414.53H270.84L270.84 391.375H250.143L250.143 414.53ZM250.143 390.781H270.84V367.626H250.143V390.781ZM250.143 367.032H270.84V343.877H250.143V367.032ZM250.143 343.284H270.84V320.129H250.143V343.284ZM271.371 320.129V343.284L292.068 343.284V320.129L271.371 320.129ZM292.599 320.129V343.284H313.296V320.129H292.599ZM313.827 320.129V343.284H334.524V320.129H313.827ZM335.055 320.129V343.284H355.752V320.129H335.055ZM356.283 320.129V343.284H376.98V320.129H356.283ZM377.511 320.129V343.284H398.208V320.129H377.511ZM398.739 320.129V343.284H419.436V320.129H398.739ZM419.967 320.129V343.284H440.664V320.129H419.967ZM441.194 320.129V343.284H461.892V320.129H441.194ZM462.422 320.129V343.284H483.12V320.129H462.422ZM483.65 320.129V343.284H504.348V320.129H483.65ZM504.878 320.129V343.284H525.575V320.129H504.878ZM526.106 320.129V343.284H546.803V320.129H526.106ZM547.334 320.129V343.284H568.031V320.129H547.334ZM568.562 320.129V343.284H589.259V320.129H568.562ZM589.79 320.129V343.284H610.487V320.129H589.79ZM611.018 320.129V343.284H631.715V320.129H611.018ZM632.246 320.129V343.284H652.943V320.129H632.246ZM653.474 320.129V343.284L674.171 343.284V320.129L653.474 320.129ZM674.171 343.877L653.474 343.877V367.032L674.171 367.032V343.877ZM674.171 367.626L653.474 367.626V390.781L674.171 390.781V367.626ZM674.171 391.375L653.474 391.375V414.53L674.171 414.53V391.375ZM674.171 415.124L653.474 415.124V438.279L674.171 438.279V415.124ZM674.171 438.872L653.474 438.872V462.027H674.171V438.872ZM674.171 462.621H653.474V485.776H674.171V462.621ZM652.943 485.776V462.621H632.246V485.776H652.943ZM631.715 485.776V462.621H611.018V485.776H631.715ZM610.487 485.776V462.621H589.79V485.776H610.487ZM589.259 485.776V462.621H568.562V485.776H589.259ZM568.031 485.776V462.621H547.334V485.776H568.031ZM546.803 485.776V462.621H526.106V485.776H546.803ZM525.575 485.776V462.621H504.878V485.776H525.575ZM504.348 485.776V462.621H483.65V485.776H504.348ZM483.12 485.776V462.621L462.422 462.621V485.776L483.12 485.776ZM461.892 485.776V462.621H441.194V485.776H461.892ZM440.664 485.776V462.621H419.967V485.776H440.664ZM419.436 485.776V462.621H398.739V485.776H419.436ZM398.208 485.776V462.621H377.511V485.776H398.208ZM376.98 485.776V462.621H356.283V485.776H376.98ZM355.752 485.776V462.621H335.055V485.776H355.752ZM334.524 485.776V462.621H313.827V485.776H334.524ZM313.296 485.776V462.621H292.599V485.776H313.296ZM292.068 485.776V462.621H271.371V485.776H292.068ZM271.371 462.027H292.068V438.872L271.371 438.872V462.027ZM271.371 438.278L292.068 438.279V415.124L271.371 415.124V438.278ZM271.371 414.53L292.068 414.53L292.068 391.375L271.371 391.375L271.371 414.53ZM271.371 390.781L292.068 390.781V367.626L271.371 367.626V390.781ZM271.371 367.032L292.068 367.032V343.877L271.371 343.877V367.032ZM292.599 343.877V367.032H313.296V343.877H292.599ZM313.827 343.877V367.032H334.524V343.877H313.827ZM335.055 343.877V367.032H355.752V343.877H335.055ZM356.283 343.877V367.032H376.98V343.877H356.283ZM377.511 343.877V367.032H398.208V343.877H377.511ZM398.739 343.877V367.032H419.436V343.877H398.739ZM419.967 343.877V367.032H440.664V343.877H419.967ZM441.194 343.877V367.032H461.892V343.877H441.194ZM462.422 343.877V367.032H483.12V343.877H462.422ZM483.65 343.877V367.032H504.348V343.877H483.65ZM504.878 343.877V367.032H525.575V343.877H504.878ZM526.106 343.877V367.032H546.803V343.877H526.106ZM547.334 343.877V367.032H568.031V343.877H547.334ZM568.562 343.877V367.032H589.259V343.877H568.562ZM589.79 343.877V367.032H610.487V343.877H589.79ZM611.018 343.877V367.032H631.715V343.877H611.018ZM632.246 343.877V367.032H652.943V343.877H632.246ZM652.943 367.626H632.246V390.781H652.943V367.626ZM652.943 391.375H632.246V414.53H652.943V391.375ZM652.943 415.124H632.246V438.279H652.943V415.124ZM652.943 438.872H632.246V462.027H652.943V438.872ZM631.715 462.027V438.872H611.018V462.027H631.715ZM610.487 462.027V438.872H589.79V462.027H610.487ZM589.259 462.027V438.872H568.562V462.027H589.259ZM568.031 462.027V438.872H547.334V462.027H568.031ZM546.803 462.027V438.872H526.106V462.027H546.803ZM525.575 462.027V438.872H504.878V462.027H525.575ZM504.348 462.027V438.872H483.65V462.027H504.348ZM483.12 462.027V438.872H462.422V462.027L483.12 462.027ZM461.892 462.027V438.872H441.194V462.027H461.892ZM440.664 462.027V438.872H419.967V462.027H440.664ZM419.436 462.027V438.872H398.739V462.027H419.436ZM398.208 462.027V438.872H377.511V462.027H398.208ZM376.98 462.027V438.872H356.283V462.027H376.98ZM355.752 462.027V438.872H335.055V462.027H355.752ZM334.524 462.027V438.872H313.827V462.027H334.524ZM313.296 462.027V438.872H292.599V462.027H313.296ZM292.599 438.279H313.296V415.124H292.599V438.279ZM292.599 414.53H313.296L313.296 391.375H292.599L292.599 414.53ZM292.599 390.781H313.296V367.626H292.599V390.781ZM313.827 367.626V390.781H334.524V367.626H313.827ZM335.055 367.626V390.781H355.752V367.626H335.055ZM356.283 367.626V390.781H376.98V367.626H356.283ZM377.511 367.626V390.781H398.208V367.626H377.511ZM398.739 367.626V390.781H419.436V367.626H398.739ZM419.967 367.626V390.781H440.664V367.626H419.967ZM441.194 367.626V390.781H461.892V367.626H441.194ZM462.422 367.626V390.781H483.12V367.626H462.422ZM483.65 367.626V390.781H504.348V367.626H483.65ZM504.878 367.626V390.781H525.575V367.626H504.878ZM526.106 367.626V390.781H546.803V367.626H526.106ZM547.334 367.626V390.781H568.031V367.626H547.334ZM568.562 367.626V390.781H589.259V367.626H568.562ZM589.79 367.626V390.781H610.487V367.626H589.79ZM611.018 367.626V390.781H631.715V367.626H611.018ZM631.715 391.375H611.018V414.53H631.715V391.375ZM631.715 415.124H611.018V438.279H631.715V415.124ZM610.487 438.279V415.124H589.79V438.279H610.487ZM589.259 438.279V415.124H568.562V438.279H589.259ZM568.031 438.279V415.124H547.334V438.279H568.031ZM546.803 438.279V415.124H526.106V438.279H546.803ZM525.575 438.279V415.124H504.878V438.279H525.575ZM504.348 438.279V415.124H483.65V438.279H504.348ZM483.12 438.279V415.124H462.422V438.279H483.12ZM461.892 438.279V415.124H441.194V438.279H461.892ZM440.664 438.279V415.124H419.967V438.279H440.664ZM419.436 438.279V415.124H398.739V438.279H419.436ZM398.208 438.279V415.124H377.511V438.279H398.208ZM376.98 438.279V415.124H356.283V438.279H376.98ZM355.752 438.279V415.124H335.055V438.279H355.752ZM334.524 438.279V415.124H313.827V438.279H334.524ZM313.827 414.53H334.524L334.524 391.375H313.827L313.827 414.53ZM335.055 391.375L335.055 414.53H355.752L355.752 391.375H335.055ZM356.283 391.375L356.283 414.53H376.98V391.375H356.283ZM377.511 391.375V414.53H398.208V391.375H377.511ZM398.739 391.375V414.53H419.436V391.375H398.739ZM419.967 391.375V414.53H440.664V391.375H419.967ZM441.194 391.375V414.53H461.892V391.375H441.194ZM462.422 391.375V414.53H483.12V391.375H462.422ZM483.65 391.375V414.53H504.348V391.375H483.65ZM504.878 391.375V414.53H525.575V391.375H504.878ZM526.106 391.375V414.53H546.803V391.375H526.106ZM547.334 391.375V414.53H568.031V391.375H547.334ZM568.562 391.375V414.53H589.259V391.375H568.562ZM589.79 391.375V414.53H610.487V391.375H589.79Z" fill="url(#paint0_radial_0_20)"/>
<g id="Ellipse 1" opacity="0.2" filter="url(#filter0_f_0_20)">
<ellipse cx="429.651" cy="423.663" rx="215.468" ry="144.359" fill="var(--fill-0, #A90831)"/>
</g>
<g id="Ellipse 2" opacity="0.2" filter="url(#filter1_f_0_20)">
<ellipse cx="625.413" cy="326.843" rx="125.94" ry="112.66" fill="var(--fill-0, #A5C4D6)"/>
</g>
</g>
<defs>
<filter id="filter0_f_0_20" x="0" y="65.1203" width="859.302" height="717.085" filterUnits="userSpaceOnUse" color-interpolation-filters="sRGB">
<feFlood flood-opacity="0" result="BackgroundImageFix"/>
<feBlend mode="normal" in="SourceGraphic" in2="BackgroundImageFix" result="shape"/>
<feGaussianBlur stdDeviation="107.092" result="effect1_foregroundBlur_0_20"/>
</filter>
<filter id="filter1_f_0_20" x="285.291" y="7.62939e-06" width="680.245" height="653.687" filterUnits="userSpaceOnUse" color-interpolation-filters="sRGB">
<feFlood flood-opacity="0" result="BackgroundImageFix"/>
<feBlend mode="normal" in="SourceGraphic" in2="BackgroundImageFix" result="shape"/>
<feGaussianBlur stdDeviation="107.092" result="effect1_foregroundBlur_0_20"/>
</filter>
<radialGradient id="paint0_radial_0_20" cx="0" cy="0" r="1" gradientUnits="userSpaceOnUse" gradientTransform="translate(474.628 402.656) rotate(90) scale(243.312 353.476)">
<stop stop-color="#869CA5"/>
<stop offset="1" stop-color="#869CA5" stop-opacity="0"/>
</radialGradient>
</defs>
</svg>
