<svg preserveAspectRatio="xMidYMid meet" width="100%" height="100%" overflow="visible" style="display: block;" viewBox="0 0 51.3333 46.6667" fill="none" xmlns="http://www.w3.org/2000/svg">
<path id="Vector" d="M2.33333 44.3332C2.33314 40.7407 3.36965 37.2243 5.31847 34.2063C7.2673 31.1882 10.0456 28.7967 13.3201 27.3186C16.5945 25.8405 20.2259 25.3387 23.7784 25.8735C27.331 26.4082 30.6538 27.9567 33.348 30.3332M35 39.6667L39.6667 44.3333L49 35M32.6667 14C32.6667 20.4433 27.4433 25.6667 21 25.6667C14.5567 25.6667 9.33333 20.4433 9.33333 14C9.33333 7.55668 14.5567 2.33333 21 2.33333C27.4433 2.33333 32.6667 7.55668 32.6667 14Z" stroke="var(--stroke-0, white)" stroke-width="4.66667" stroke-linecap="round" stroke-linejoin="round"/>
</svg>
