<svg preserveAspectRatio="xMidYMid meet" width="100%" height="100%" overflow="visible" style="display: block;" viewBox="0 0 47.216 45.465" fill="none" xmlns="http://www.w3.org/2000/svg">
<path id="Vector" d="M43.1353 17.5241C42.6776 17.6007 42.269 17.856 41.9995 18.2338C41.73 18.6116 41.6216 19.081 41.6981 19.5388C41.8758 20.6 41.9651 21.6741 41.965 22.75C41.9692 27.4623 40.2372 32.011 37.1 35.5272C35.1483 32.6989 32.4039 30.5109 29.2119 29.2381C30.9265 27.8877 32.1776 26.0365 32.7914 23.942C33.4051 21.8475 33.3509 19.6138 32.6362 17.5515C31.9216 15.4893 30.5821 13.701 28.804 12.4353C27.0259 11.1696 24.8976 10.4895 22.715 10.4895C20.5325 10.4895 18.4041 11.1696 16.626 12.4353C14.8479 13.701 13.5084 15.4893 12.7938 17.5515C12.0792 19.6138 12.025 21.8475 12.6387 23.942C13.2524 26.0365 14.5036 27.8877 16.2181 29.2381C13.0262 30.5109 10.2818 32.6989 8.33002 35.5272C5.86847 32.7534 4.26055 29.3276 3.69962 25.6617C3.13868 21.9958 3.6486 18.2459 5.16807 14.8629C6.68754 11.4799 9.15186 8.60787 12.2647 6.59207C15.3776 4.57627 19.0065 3.50255 22.715 3.50003C23.791 3.49985 24.8651 3.58912 25.9263 3.7669C26.382 3.8388 26.8476 3.72786 27.2219 3.45822C27.5962 3.18858 27.8489 2.78204 27.925 2.32705C28.0012 1.87205 27.8945 1.4054 27.6284 1.02861C27.3622 0.651818 26.958 0.39536 26.5038 0.315025C21.7513 -0.484473 16.8677 0.247069 12.5581 2.40403C8.24849 4.56099 4.73588 8.03176 2.52743 12.3152C0.318972 16.5987 -0.471046 21.4731 0.27144 26.2348C1.01393 30.9966 3.25049 35.3991 6.65822 38.8068C10.0659 42.2146 14.4685 44.4511 19.2302 45.1936C23.9919 45.9361 28.8664 45.1461 33.1498 42.9376C37.4333 40.7292 40.9041 37.2166 43.061 32.9069C45.218 28.5973 45.9495 23.7137 45.15 18.9613C45.0734 18.5035 44.8181 18.095 44.4403 17.8255C44.0625 17.5559 43.5931 17.4475 43.1353 17.5241ZM15.715 21C15.715 19.6156 16.1256 18.2622 16.8947 17.111C17.6639 15.9599 18.7572 15.0627 20.0362 14.5329C21.3153 14.0031 22.7228 13.8644 24.0807 14.1345C25.4385 14.4046 26.6858 15.0713 27.6648 16.0503C28.6437 17.0292 29.3104 18.2765 29.5805 19.6344C29.8506 20.9923 29.712 22.3997 29.1822 23.6788C28.6524 24.9579 27.7552 26.0511 26.604 26.8203C25.4529 27.5895 24.0995 28 22.715 28C20.8585 28 19.078 27.2625 17.7653 25.9498C16.4525 24.637 15.715 22.8565 15.715 21ZM10.92 37.9531C12.186 35.9732 13.93 34.3438 15.9914 33.2151C18.0527 32.0865 20.3649 31.4949 22.715 31.4949C25.0651 31.4949 27.3774 32.0865 29.4387 33.2151C31.5 34.3438 33.244 35.9732 34.51 37.9531C31.1376 40.5759 26.9873 41.9999 22.715 41.9999C18.4428 41.9999 14.2924 40.5759 10.92 37.9531ZM46.7031 4.73815L39.7031 11.7382C39.5406 11.9009 39.3476 12.0299 39.1352 12.118C38.9227 12.2061 38.695 12.2514 38.465 12.2514C38.235 12.2514 38.0073 12.2061 37.7949 12.118C37.5824 12.0299 37.3894 11.9009 37.2269 11.7382L33.7269 8.23815C33.5643 8.07556 33.4353 7.88253 33.3473 7.67009C33.2593 7.45766 33.214 7.22997 33.214 7.00003C33.214 6.77008 33.2593 6.54239 33.3473 6.32996C33.4353 6.11752 33.5643 5.92449 33.7269 5.7619C34.0553 5.43353 34.5006 5.24905 34.965 5.24905C35.195 5.24905 35.4227 5.29434 35.6351 5.38234C35.8475 5.47033 36.0406 5.59931 36.2031 5.7619L38.465 8.02596L44.2269 2.2619C44.3895 2.09931 44.5825 1.97033 44.795 1.88234C45.0074 1.79434 45.2351 1.74905 45.465 1.74905C45.695 1.74905 45.9227 1.79434 46.1351 1.88234C46.3475 1.97033 46.5406 2.09931 46.7031 2.2619C46.8657 2.42449 46.9947 2.61752 47.0827 2.82996C47.1707 3.04239 47.216 3.27008 47.216 3.50003C47.216 3.72997 47.1707 3.95766 47.0827 4.17009C46.9947 4.38253 46.8657 4.57556 46.7031 4.73815Z" fill="var(--fill-0, white)"/>
</svg>
