<svg preserveAspectRatio="xMidYMid meet" width="100%" height="100%" overflow="visible" style="display: block;" viewBox="0 0 51.3333 51.3238" fill="none" xmlns="http://www.w3.org/2000/svg">
<path id="Vector" d="M44.3333 18.6667C45.571 18.6667 46.758 19.1583 47.6332 20.0335C48.5083 20.9087 49 22.0957 49 23.3333V47.334C49 47.6616 48.9028 47.9819 48.7207 48.2543C48.5387 48.5267 48.28 48.739 47.9773 48.8644C47.6746 48.9897 47.3415 49.0225 47.0202 48.9586C46.6989 48.8947 46.4037 48.737 46.172 48.5053L41.034 43.3673C40.159 42.4921 38.9722 42.0003 37.7347 42H21C19.7623 42 18.5753 41.5083 17.7002 40.6332C16.825 39.758 16.3333 38.571 16.3333 37.3333V35M35 21C35 22.2377 34.5083 23.4247 33.6332 24.2998C32.758 25.175 31.571 25.6667 30.3333 25.6667H13.5987C12.3611 25.6669 11.1743 26.1588 10.2993 27.034L5.16133 32.172C4.92965 32.4036 4.63448 32.5614 4.31314 32.6253C3.99181 32.6892 3.65874 32.6564 3.35605 32.531C3.05336 32.4057 2.79464 32.1933 2.6126 31.9209C2.43056 31.6485 2.33338 31.3283 2.33333 31.0007V7C2.33333 5.76232 2.825 4.57534 3.70017 3.70017C4.57534 2.825 5.76232 2.33333 7 2.33333H30.3333C31.571 2.33333 32.758 2.825 33.6332 3.70017C34.5083 4.57534 35 5.76232 35 7V21Z" stroke="var(--stroke-0, white)" stroke-width="4.66667" stroke-linecap="round" stroke-linejoin="round"/>
</svg>
